G04*
G04 #@! TF.GenerationSoftware,Altium Limited,Altium Designer,18.1.6 (161)*
G04*
G04 Layer_Color=16711935*
%FSLAX25Y25*%
%MOIN*%
G70*
G01*
G75*
%ADD61C,0.00394*%
D61*
X490413Y366634D02*
X490150Y367618D01*
X489429Y368339D01*
X488445Y368602D01*
X487461Y368339D01*
X486740Y367618D01*
X486476Y366634D01*
X486740Y365650D01*
X487461Y364929D01*
X488445Y364665D01*
X489429Y364929D01*
X490150Y365650D01*
X490413Y366634D01*
X400413D02*
X400150Y367618D01*
X399429Y368339D01*
X398445Y368602D01*
X397461Y368339D01*
X396740Y367618D01*
X396476Y366634D01*
X396740Y365650D01*
X397461Y364929D01*
X398445Y364665D01*
X399429Y364929D01*
X400150Y365650D01*
X400413Y366634D01*
X310413Y366504D02*
X310150Y367488D01*
X309429Y368209D01*
X308445Y368472D01*
X307461Y368209D01*
X306740Y367488D01*
X306476Y366504D01*
X306740Y365520D01*
X307461Y364799D01*
X308445Y364535D01*
X309429Y364799D01*
X310150Y365520D01*
X310413Y366504D01*
X221413Y367504D02*
X221150Y368488D01*
X220429Y369209D01*
X219445Y369472D01*
X218461Y369209D01*
X217740Y368488D01*
X217476Y367504D01*
X217740Y366520D01*
X218461Y365799D01*
X219445Y365535D01*
X220429Y365799D01*
X221150Y366520D01*
X221413Y367504D01*
X530102Y255555D02*
X529839Y256539D01*
X529118Y257260D01*
X528134Y257524D01*
X527150Y257260D01*
X526429Y256539D01*
X526165Y255555D01*
X526429Y254571D01*
X527150Y253850D01*
X528134Y253587D01*
X529118Y253850D01*
X529839Y254571D01*
X530102Y255555D01*
X459024Y181366D02*
X458760Y182350D01*
X458039Y183071D01*
X457055Y183335D01*
X456071Y183071D01*
X455350Y182350D01*
X455087Y181366D01*
X455350Y180382D01*
X456071Y179661D01*
X457055Y179398D01*
X458039Y179661D01*
X458760Y180382D01*
X459024Y181366D01*
X375524Y181236D02*
X375260Y182220D01*
X374539Y182941D01*
X373555Y183205D01*
X372571Y182941D01*
X371850Y182220D01*
X371587Y181236D01*
X371850Y180252D01*
X372571Y179531D01*
X373555Y179268D01*
X374539Y179531D01*
X375260Y180252D01*
X375524Y181236D01*
X285524Y181366D02*
X285260Y182350D01*
X284539Y183071D01*
X283555Y183335D01*
X282571Y183071D01*
X281850Y182350D01*
X281587Y181366D01*
X281850Y180382D01*
X282571Y179661D01*
X283555Y179398D01*
X284539Y179661D01*
X285260Y180382D01*
X285524Y181366D01*
X195524D02*
X195260Y182350D01*
X194539Y183071D01*
X193555Y183335D01*
X192571Y183071D01*
X191850Y182350D01*
X191587Y181366D01*
X191850Y180382D01*
X192571Y179661D01*
X193555Y179398D01*
X194539Y179661D01*
X195260Y180382D01*
X195524Y181366D01*
X453012Y354823D02*
Y370177D01*
X491988Y354823D02*
Y370177D01*
X453012Y354823D02*
X491988D01*
X453012Y370177D02*
X491988D01*
X363012Y354823D02*
Y370177D01*
X401988Y354823D02*
Y370177D01*
X363012Y354823D02*
X401988D01*
X363012Y370177D02*
X401988D01*
X273012Y354693D02*
Y370047D01*
X311988Y354693D02*
Y370047D01*
X273012Y354693D02*
X311988D01*
X273012Y370047D02*
X311988D01*
X184012Y355693D02*
Y371047D01*
X222988Y355693D02*
Y371047D01*
X184012Y355693D02*
X222988D01*
X184012Y371047D02*
X222988D01*
X531677Y252012D02*
Y290988D01*
X516323Y252012D02*
Y290988D01*
Y252012D02*
X531677D01*
X516323Y290988D02*
X531677D01*
X492488Y177823D02*
Y193177D01*
X453512Y177823D02*
Y193177D01*
X492488D01*
X453512Y177823D02*
X492488D01*
X408988Y177693D02*
Y193047D01*
X370012Y177693D02*
Y193047D01*
X408988D01*
X370012Y177693D02*
X408988D01*
X280012Y177823D02*
X318988D01*
X280012Y193177D02*
X318988D01*
X280012Y177823D02*
Y193177D01*
X318988Y177823D02*
Y193177D01*
X190012Y177823D02*
X228988D01*
X190012Y193177D02*
X228988D01*
X190012Y177823D02*
Y193177D01*
X228988Y177823D02*
Y193177D01*
M02*
