G04*
G04 #@! TF.GenerationSoftware,Altium Limited,Altium Designer,18.1.6 (161)*
G04*
G04 Layer_Color=255*
%FSLAX25Y25*%
%MOIN*%
G70*
G01*
G75*
%ADD18O,0.02165X0.07874*%
%ADD19R,0.10039X0.06299*%
%ADD20R,0.05000X0.05500*%
G04:AMPARAMS|DCode=21|XSize=216.54mil|YSize=224.41mil|CornerRadius=27.07mil|HoleSize=0mil|Usage=FLASHONLY|Rotation=0.000|XOffset=0mil|YOffset=0mil|HoleType=Round|Shape=RoundedRectangle|*
%AMROUNDEDRECTD21*
21,1,0.21654,0.17028,0,0,0.0*
21,1,0.16240,0.22441,0,0,0.0*
1,1,0.05413,0.08120,-0.08514*
1,1,0.05413,-0.08120,-0.08514*
1,1,0.05413,-0.08120,0.08514*
1,1,0.05413,0.08120,0.08514*
%
%ADD21ROUNDEDRECTD21*%
G04:AMPARAMS|DCode=22|XSize=39.37mil|YSize=78.74mil|CornerRadius=4.92mil|HoleSize=0mil|Usage=FLASHONLY|Rotation=0.000|XOffset=0mil|YOffset=0mil|HoleType=Round|Shape=RoundedRectangle|*
%AMROUNDEDRECTD22*
21,1,0.03937,0.06890,0,0,0.0*
21,1,0.02953,0.07874,0,0,0.0*
1,1,0.00984,0.01476,-0.03445*
1,1,0.00984,-0.01476,-0.03445*
1,1,0.00984,-0.01476,0.03445*
1,1,0.00984,0.01476,0.03445*
%
%ADD22ROUNDEDRECTD22*%
%ADD23O,0.07874X0.02165*%
%ADD46R,0.06000X0.06000*%
%ADD47C,0.06000*%
%ADD48O,0.06500X0.09000*%
%ADD49R,0.06500X0.09000*%
%ADD50R,0.07000X0.10000*%
%ADD51O,0.07000X0.10000*%
%ADD52O,0.07500X0.06500*%
%ADD53O,0.09000X0.06500*%
%ADD54R,0.09000X0.06500*%
%ADD55C,0.07500*%
%ADD56O,0.16000X0.10000*%
%ADD57O,0.10000X0.16000*%
D18*
X455000Y351870D02*
D03*
X460000D02*
D03*
X465000D02*
D03*
X470000D02*
D03*
X475000D02*
D03*
X480000D02*
D03*
X485000D02*
D03*
X490000D02*
D03*
X455000Y373130D02*
D03*
X460000D02*
D03*
X465000D02*
D03*
X470000D02*
D03*
X475000D02*
D03*
X480000D02*
D03*
X485000D02*
D03*
X490000D02*
D03*
X365000Y351870D02*
D03*
X370000D02*
D03*
X375000D02*
D03*
X380000D02*
D03*
X385000D02*
D03*
X390000D02*
D03*
X395000D02*
D03*
X400000D02*
D03*
X365000Y373130D02*
D03*
X370000D02*
D03*
X375000D02*
D03*
X380000D02*
D03*
X385000D02*
D03*
X390000D02*
D03*
X395000D02*
D03*
X400000D02*
D03*
X275000Y351740D02*
D03*
X280000D02*
D03*
X285000D02*
D03*
X290000D02*
D03*
X295000D02*
D03*
X300000D02*
D03*
X305000D02*
D03*
X310000D02*
D03*
X275000Y373000D02*
D03*
X280000D02*
D03*
X285000D02*
D03*
X290000D02*
D03*
X295000D02*
D03*
X300000D02*
D03*
X305000D02*
D03*
X310000D02*
D03*
X186000Y352740D02*
D03*
X191000D02*
D03*
X196000D02*
D03*
X201000D02*
D03*
X206000D02*
D03*
X211000D02*
D03*
X216000D02*
D03*
X221000D02*
D03*
X186000Y374000D02*
D03*
X191000D02*
D03*
X196000D02*
D03*
X201000D02*
D03*
X206000D02*
D03*
X211000D02*
D03*
X216000D02*
D03*
X221000D02*
D03*
X490500Y196130D02*
D03*
X485500D02*
D03*
X480500D02*
D03*
X475500D02*
D03*
X470500D02*
D03*
X465500D02*
D03*
X460500D02*
D03*
X455500D02*
D03*
X490500Y174870D02*
D03*
X485500D02*
D03*
X480500D02*
D03*
X475500D02*
D03*
X470500D02*
D03*
X465500D02*
D03*
X460500D02*
D03*
X455500D02*
D03*
X407000Y196000D02*
D03*
X402000D02*
D03*
X397000D02*
D03*
X392000D02*
D03*
X387000D02*
D03*
X382000D02*
D03*
X377000D02*
D03*
X372000D02*
D03*
X407000Y174740D02*
D03*
X402000D02*
D03*
X397000D02*
D03*
X392000D02*
D03*
X387000D02*
D03*
X382000D02*
D03*
X377000D02*
D03*
X372000D02*
D03*
X282000Y174870D02*
D03*
X287000D02*
D03*
X292000D02*
D03*
X297000D02*
D03*
X302000D02*
D03*
X307000D02*
D03*
X312000D02*
D03*
X317000D02*
D03*
X282000Y196130D02*
D03*
X287000D02*
D03*
X292000D02*
D03*
X297000D02*
D03*
X302000D02*
D03*
X307000D02*
D03*
X312000D02*
D03*
X317000D02*
D03*
X192000Y174870D02*
D03*
X197000D02*
D03*
X202000D02*
D03*
X207000D02*
D03*
X212000D02*
D03*
X217000D02*
D03*
X222000D02*
D03*
X227000D02*
D03*
X192000Y196130D02*
D03*
X197000D02*
D03*
X202000D02*
D03*
X207000D02*
D03*
X212000D02*
D03*
X217000D02*
D03*
X222000D02*
D03*
X227000D02*
D03*
D19*
X248890Y248500D02*
D03*
X235110D02*
D03*
D20*
X228500Y323500D02*
D03*
X237500D02*
D03*
D21*
X238000Y303067D02*
D03*
D22*
X246996Y273933D02*
D03*
X229004Y273933D02*
D03*
D23*
X534630Y254000D02*
D03*
Y259000D02*
D03*
Y264000D02*
D03*
Y269000D02*
D03*
Y274000D02*
D03*
Y279000D02*
D03*
Y284000D02*
D03*
Y289000D02*
D03*
X513370Y254000D02*
D03*
Y259000D02*
D03*
Y264000D02*
D03*
Y269000D02*
D03*
Y274000D02*
D03*
Y279000D02*
D03*
Y284000D02*
D03*
Y289000D02*
D03*
D46*
X288000Y243200D02*
D03*
D47*
X298000D02*
D03*
X308000D02*
D03*
X318000D02*
D03*
X328000D02*
D03*
X338000D02*
D03*
X348000D02*
D03*
X358000D02*
D03*
X368000D02*
D03*
X378000D02*
D03*
X388000D02*
D03*
X398000D02*
D03*
X408000D02*
D03*
X418000D02*
D03*
X428000D02*
D03*
X438000D02*
D03*
X448000D02*
D03*
X458000D02*
D03*
X468000D02*
D03*
X478000D02*
D03*
Y303200D02*
D03*
X468000D02*
D03*
X458000D02*
D03*
X448000D02*
D03*
X438000D02*
D03*
X428000D02*
D03*
X418000D02*
D03*
X408000D02*
D03*
X398000D02*
D03*
X388000D02*
D03*
X378000D02*
D03*
X368000D02*
D03*
X358000D02*
D03*
X348000D02*
D03*
X338000D02*
D03*
X328000D02*
D03*
X318000D02*
D03*
X308000D02*
D03*
X298000D02*
D03*
X288000D02*
D03*
D48*
X501000Y394000D02*
D03*
X481000D02*
D03*
X451000D02*
D03*
X461000D02*
D03*
X471000D02*
D03*
X491000D02*
D03*
X511000D02*
D03*
X411000D02*
D03*
X391000D02*
D03*
X361000D02*
D03*
X371000D02*
D03*
X381000D02*
D03*
X401000D02*
D03*
X421000D02*
D03*
X321000D02*
D03*
X301000D02*
D03*
X271000D02*
D03*
X281000D02*
D03*
X291000D02*
D03*
X311000D02*
D03*
X331000D02*
D03*
X231000D02*
D03*
X211000D02*
D03*
X181000D02*
D03*
X191000D02*
D03*
X201000D02*
D03*
X221000D02*
D03*
X241000D02*
D03*
X170500Y155000D02*
D03*
X190500D02*
D03*
X210500D02*
D03*
X220500D02*
D03*
X230500D02*
D03*
X200500D02*
D03*
X180500D02*
D03*
X260500D02*
D03*
X280500D02*
D03*
X300500D02*
D03*
X310500D02*
D03*
X320500D02*
D03*
X290500D02*
D03*
X270500D02*
D03*
X350500D02*
D03*
X370500D02*
D03*
X390500D02*
D03*
X400500D02*
D03*
X410500D02*
D03*
X380500D02*
D03*
X360500D02*
D03*
X440500D02*
D03*
X460500D02*
D03*
X480500D02*
D03*
X490500D02*
D03*
X500500D02*
D03*
X470500D02*
D03*
X450500D02*
D03*
D49*
X441000Y394000D02*
D03*
X351000D02*
D03*
X261000D02*
D03*
X171000D02*
D03*
X240500Y155000D02*
D03*
X330500D02*
D03*
X420500D02*
D03*
X510500D02*
D03*
D50*
X188500Y260500D02*
D03*
D51*
X173500D02*
D03*
D52*
X192000Y218100D02*
D03*
Y228200D02*
D03*
Y238000D02*
D03*
D53*
X551000Y229000D02*
D03*
Y249000D02*
D03*
Y269000D02*
D03*
Y279000D02*
D03*
Y289000D02*
D03*
Y259000D02*
D03*
Y239000D02*
D03*
D54*
Y299000D02*
D03*
D55*
X530700Y338200D02*
D03*
X550200Y362700D02*
D03*
X531000Y363000D02*
D03*
X549800Y337600D02*
D03*
D56*
X198000Y286000D02*
D03*
D57*
X183000Y306000D02*
D03*
X208000D02*
D03*
M02*
