G04*
G04 #@! TF.GenerationSoftware,Altium Limited,Altium Designer,18.1.6 (161)*
G04*
G04 Layer_Color=255*
%FSLAX25Y25*%
%MOIN*%
G70*
G01*
G75*
%ADD20R,0.05000X0.05500*%
%ADD46R,0.06000X0.06000*%
%ADD47C,0.06000*%
%ADD48O,0.06500X0.09000*%
%ADD49R,0.06500X0.09000*%
%ADD50R,0.07000X0.10000*%
%ADD51O,0.07000X0.10000*%
%ADD52O,0.07500X0.06500*%
%ADD53O,0.09000X0.06500*%
%ADD54R,0.09000X0.06500*%
%ADD55C,0.07500*%
%ADD56O,0.16000X0.10000*%
%ADD57O,0.10000X0.16000*%
%ADD59R,0.05500X0.03937*%
D20*
X536000Y351000D02*
D03*
X545000D02*
D03*
D46*
X288000Y243200D02*
D03*
D47*
X298000D02*
D03*
X308000D02*
D03*
X318000D02*
D03*
X328000D02*
D03*
X338000D02*
D03*
X348000D02*
D03*
X358000D02*
D03*
X368000D02*
D03*
X378000D02*
D03*
X388000D02*
D03*
X398000D02*
D03*
X408000D02*
D03*
X418000D02*
D03*
X428000D02*
D03*
X438000D02*
D03*
X448000D02*
D03*
X458000D02*
D03*
X468000D02*
D03*
X478000D02*
D03*
Y303200D02*
D03*
X468000D02*
D03*
X458000D02*
D03*
X448000D02*
D03*
X438000D02*
D03*
X428000D02*
D03*
X418000D02*
D03*
X408000D02*
D03*
X398000D02*
D03*
X388000D02*
D03*
X378000D02*
D03*
X368000D02*
D03*
X358000D02*
D03*
X348000D02*
D03*
X338000D02*
D03*
X328000D02*
D03*
X318000D02*
D03*
X308000D02*
D03*
X298000D02*
D03*
X288000D02*
D03*
D48*
X501000Y394000D02*
D03*
X481000D02*
D03*
X451000D02*
D03*
X461000D02*
D03*
X471000D02*
D03*
X491000D02*
D03*
X511000D02*
D03*
X411000D02*
D03*
X391000D02*
D03*
X361000D02*
D03*
X371000D02*
D03*
X381000D02*
D03*
X401000D02*
D03*
X421000D02*
D03*
X321000D02*
D03*
X301000D02*
D03*
X271000D02*
D03*
X281000D02*
D03*
X291000D02*
D03*
X311000D02*
D03*
X331000D02*
D03*
X231000D02*
D03*
X211000D02*
D03*
X181000D02*
D03*
X191000D02*
D03*
X201000D02*
D03*
X221000D02*
D03*
X241000D02*
D03*
X170500Y155000D02*
D03*
X190500D02*
D03*
X210500D02*
D03*
X220500D02*
D03*
X230500D02*
D03*
X200500D02*
D03*
X180500D02*
D03*
X260500D02*
D03*
X280500D02*
D03*
X300500D02*
D03*
X310500D02*
D03*
X320500D02*
D03*
X290500D02*
D03*
X270500D02*
D03*
X350500D02*
D03*
X370500D02*
D03*
X390500D02*
D03*
X400500D02*
D03*
X410500D02*
D03*
X380500D02*
D03*
X360500D02*
D03*
X440500D02*
D03*
X460500D02*
D03*
X480500D02*
D03*
X490500D02*
D03*
X500500D02*
D03*
X470500D02*
D03*
X450500D02*
D03*
D49*
X441000Y394000D02*
D03*
X351000D02*
D03*
X261000D02*
D03*
X171000D02*
D03*
X240500Y155000D02*
D03*
X330500D02*
D03*
X420500D02*
D03*
X510500D02*
D03*
D50*
X188500Y260500D02*
D03*
D51*
X173500D02*
D03*
D52*
X192000Y218100D02*
D03*
Y228200D02*
D03*
Y238000D02*
D03*
D53*
X551000Y229000D02*
D03*
Y249000D02*
D03*
Y269000D02*
D03*
Y279000D02*
D03*
Y289000D02*
D03*
Y259000D02*
D03*
Y239000D02*
D03*
D54*
Y299000D02*
D03*
D55*
X530700Y338200D02*
D03*
X550200Y362700D02*
D03*
X531000Y363000D02*
D03*
X549800Y337600D02*
D03*
D56*
X198000Y286000D02*
D03*
D57*
X183000Y306000D02*
D03*
X208000D02*
D03*
D59*
X531000Y319000D02*
D03*
Y328000D02*
D03*
M02*
