G04*
G04 #@! TF.GenerationSoftware,Altium Limited,Altium Designer,18.1.6 (161)*
G04*
G04 Layer_Color=8388736*
%FSLAX25Y25*%
%MOIN*%
G70*
G01*
G75*
%ADD11C,0.00984*%
%ADD61C,0.00394*%
D11*
X253024Y243579D02*
X252285Y244005D01*
Y243152D01*
X253024Y243579D01*
D61*
X249874Y248500D02*
X249809Y249507D01*
X249617Y250497D01*
X249299Y251455D01*
X248861Y252364D01*
X248310Y253209D01*
X247656Y253978D01*
X246909Y254656D01*
X246082Y255233D01*
X245187Y255700D01*
X244240Y256049D01*
X243257Y256273D01*
X242252Y256370D01*
X241244Y256338D01*
X240248Y256177D01*
X239281Y255890D01*
X238358Y255481D01*
X237495Y254958D01*
X236706Y254329D01*
X236004Y253604D01*
X235401Y252796D01*
X234906Y251916D01*
X234527Y250981D01*
X234271Y250005D01*
X234142Y249005D01*
Y247995D01*
X234271Y246995D01*
X234527Y246019D01*
X234906Y245084D01*
X235401Y244204D01*
X236004Y243396D01*
X236706Y242671D01*
X237495Y242042D01*
X238358Y241519D01*
X239281Y241110D01*
X240248Y240823D01*
X241244Y240662D01*
X242252Y240630D01*
X243257Y240727D01*
X244240Y240951D01*
X245187Y241300D01*
X246082Y241767D01*
X246909Y242344D01*
X247656Y243022D01*
X248310Y243791D01*
X248861Y244636D01*
X249299Y245545D01*
X249617Y246503D01*
X249809Y247493D01*
X249874Y248500D01*
X246528Y256965D02*
X250465Y253028D01*
X246528Y240035D02*
X250465Y243972D01*
Y253028D01*
X233535Y256965D02*
X246528D01*
X233535Y240035D02*
Y256965D01*
Y240035D02*
X246528D01*
M02*
