G04*
G04 #@! TF.GenerationSoftware,Altium Limited,Altium Designer,18.1.6 (161)*
G04*
G04 Layer_Color=32896*
%FSLAX25Y25*%
%MOIN*%
G70*
G01*
G75*
%ADD12C,0.01000*%
%ADD16C,0.00400*%
%ADD17C,0.00500*%
G36*
X375397Y260000D02*
X372995D01*
Y270097D01*
X370456Y260000D01*
X367976D01*
X365437Y270097D01*
X365417Y260000D01*
X363015D01*
Y272831D01*
X366921D01*
X369206Y264062D01*
X371530Y272831D01*
X375397D01*
Y260000D01*
D02*
G37*
G36*
X317412Y273026D02*
X317998Y272948D01*
X318272Y272890D01*
X318526Y272851D01*
X318760Y272792D01*
X318975Y272733D01*
X319151Y272655D01*
X319326Y272597D01*
X319463Y272558D01*
X319600Y272499D01*
X319697Y272460D01*
X319756Y272421D01*
X319795Y272401D01*
X319815D01*
X320381Y272050D01*
X320889Y271679D01*
X321299Y271269D01*
X321651Y270878D01*
X321924Y270546D01*
X322022Y270390D01*
X322119Y270253D01*
X322178Y270156D01*
X322236Y270077D01*
X322256Y270019D01*
X322275Y269999D01*
X322549Y269394D01*
X322744Y268789D01*
X322900Y268183D01*
X322998Y267636D01*
X323018Y267382D01*
X323057Y267167D01*
X323076Y266953D01*
Y266777D01*
X323096Y266640D01*
Y266543D01*
Y266464D01*
Y266445D01*
X323057Y265761D01*
X322978Y265117D01*
X322861Y264550D01*
X322803Y264277D01*
X322725Y264023D01*
X322646Y263808D01*
X322588Y263613D01*
X322529Y263437D01*
X322471Y263281D01*
X322412Y263164D01*
X322393Y263086D01*
X322354Y263027D01*
Y263008D01*
X322041Y262461D01*
X321690Y261972D01*
X321319Y261562D01*
X320967Y261230D01*
X320635Y260957D01*
X320498Y260840D01*
X320361Y260762D01*
X320264Y260703D01*
X320186Y260645D01*
X320147Y260625D01*
X320127Y260605D01*
X319834Y260449D01*
X319541Y260332D01*
X318936Y260117D01*
X318350Y259981D01*
X317803Y259863D01*
X317549Y259844D01*
X317334Y259805D01*
X317120Y259785D01*
X316944D01*
X316807Y259766D01*
X316612D01*
X316026Y259785D01*
X315459Y259863D01*
X314932Y259961D01*
X314463Y260059D01*
X314249Y260117D01*
X314053Y260176D01*
X313897Y260215D01*
X313760Y260254D01*
X313643Y260293D01*
X313565Y260332D01*
X313507Y260351D01*
X313487D01*
X312940Y260586D01*
X312471Y260820D01*
X312061Y261055D01*
X311729Y261269D01*
X311456Y261465D01*
X311280Y261601D01*
X311163Y261699D01*
X311124Y261738D01*
Y266875D01*
X316690D01*
Y264707D01*
X313741D01*
Y263066D01*
X313975Y262890D01*
X314210Y262754D01*
X314444Y262617D01*
X314659Y262500D01*
X314854Y262402D01*
X315010Y262344D01*
X315108Y262304D01*
X315147Y262285D01*
X315459Y262187D01*
X315752Y262109D01*
X316026Y262051D01*
X316260Y262012D01*
X316475Y261992D01*
X316631Y261972D01*
X316768D01*
X317061Y261992D01*
X317354Y262031D01*
X317627Y262070D01*
X317881Y262148D01*
X318330Y262324D01*
X318702Y262539D01*
X318877Y262636D01*
X319014Y262754D01*
X319131Y262851D01*
X319248Y262930D01*
X319326Y263008D01*
X319385Y263066D01*
X319405Y263086D01*
X319424Y263105D01*
X319600Y263340D01*
X319756Y263594D01*
X319893Y263847D01*
X319990Y264121D01*
X320186Y264707D01*
X320303Y265253D01*
X320342Y265527D01*
X320361Y265761D01*
X320381Y265976D01*
X320401Y266172D01*
X320420Y266328D01*
Y266445D01*
Y266523D01*
Y266543D01*
X320401Y266933D01*
X320381Y267285D01*
X320322Y267636D01*
X320264Y267949D01*
X320186Y268222D01*
X320108Y268495D01*
X320029Y268730D01*
X319932Y268945D01*
X319834Y269140D01*
X319756Y269296D01*
X319678Y269433D01*
X319600Y269550D01*
X319541Y269628D01*
X319483Y269687D01*
X319463Y269726D01*
X319444Y269745D01*
X319248Y269941D01*
X319034Y270116D01*
X318819Y270253D01*
X318604Y270370D01*
X318155Y270566D01*
X317725Y270702D01*
X317334Y270780D01*
X317178Y270800D01*
X317022Y270820D01*
X316905Y270839D01*
X316748D01*
X316358Y270820D01*
X315987Y270761D01*
X315674Y270663D01*
X315401Y270566D01*
X315186Y270468D01*
X315030Y270370D01*
X314932Y270312D01*
X314893Y270292D01*
X314639Y270077D01*
X314424Y269824D01*
X314249Y269589D01*
X314112Y269355D01*
X313995Y269140D01*
X313936Y268964D01*
X313897Y268847D01*
X313878Y268828D01*
Y268808D01*
X311300Y269296D01*
X311378Y269609D01*
X311495Y269921D01*
X311729Y270448D01*
X311866Y270702D01*
X312022Y270917D01*
X312159Y271132D01*
X312315Y271308D01*
X312452Y271484D01*
X312589Y271620D01*
X312706Y271738D01*
X312823Y271855D01*
X312901Y271933D01*
X312979Y271991D01*
X313018Y272011D01*
X313038Y272030D01*
X313292Y272206D01*
X313585Y272362D01*
X313878Y272499D01*
X314171Y272616D01*
X314795Y272792D01*
X315381Y272929D01*
X315674Y272968D01*
X315928Y272987D01*
X316163Y273007D01*
X316358Y273026D01*
X316514Y273046D01*
X316748D01*
X317412Y273026D01*
D02*
G37*
G36*
X414223Y263398D02*
X414203Y262930D01*
X414164Y262519D01*
X414125Y262168D01*
X414066Y261875D01*
X414008Y261641D01*
X413949Y261465D01*
X413930Y261367D01*
X413910Y261328D01*
X413773Y261074D01*
X413598Y260840D01*
X413422Y260645D01*
X413246Y260469D01*
X413090Y260351D01*
X412953Y260254D01*
X412875Y260195D01*
X412836Y260176D01*
X412543Y260039D01*
X412250Y259941D01*
X411977Y259863D01*
X411723Y259824D01*
X411488Y259785D01*
X411313Y259766D01*
X411157D01*
X410824Y259785D01*
X410493Y259824D01*
X410199Y259902D01*
X409946Y259981D01*
X409731Y260059D01*
X409555Y260137D01*
X409457Y260176D01*
X409418Y260195D01*
X409125Y260371D01*
X408852Y260566D01*
X408618Y260762D01*
X408422Y260957D01*
X408266Y261133D01*
X408168Y261269D01*
X408090Y261348D01*
X408071Y261387D01*
Y260000D01*
X405786D01*
Y269296D01*
X408247D01*
Y265351D01*
Y265000D01*
Y264668D01*
X408266Y264375D01*
X408286Y264121D01*
Y263886D01*
X408305Y263672D01*
X408325Y263496D01*
X408344Y263340D01*
X408364Y263222D01*
X408383Y263105D01*
X408403Y263008D01*
Y262949D01*
X408442Y262851D01*
Y262832D01*
X408520Y262656D01*
X408618Y262480D01*
X408735Y262344D01*
X408852Y262207D01*
X408950Y262109D01*
X409047Y262031D01*
X409106Y261992D01*
X409125Y261972D01*
X409321Y261855D01*
X409496Y261777D01*
X409692Y261719D01*
X409867Y261680D01*
X410024Y261660D01*
X410141Y261641D01*
X410239D01*
X410434Y261660D01*
X410610Y261680D01*
X410766Y261719D01*
X410903Y261777D01*
X411000Y261816D01*
X411098Y261855D01*
X411137Y261875D01*
X411157Y261894D01*
X411274Y261992D01*
X411371Y262109D01*
X411527Y262324D01*
X411586Y262422D01*
X411625Y262500D01*
X411645Y262558D01*
Y262578D01*
X411664Y262676D01*
X411684Y262812D01*
X411703Y262969D01*
Y263144D01*
X411742Y263535D01*
Y263965D01*
X411762Y264355D01*
Y264531D01*
Y264687D01*
Y264824D01*
Y264922D01*
Y264980D01*
Y265000D01*
Y269296D01*
X414223D01*
Y263398D01*
D02*
G37*
G36*
X290871Y263398D02*
X290852Y262930D01*
X290813Y262519D01*
X290774Y262168D01*
X290715Y261875D01*
X290656Y261641D01*
X290598Y261465D01*
X290578Y261367D01*
X290559Y261328D01*
X290422Y261074D01*
X290246Y260840D01*
X290071Y260645D01*
X289895Y260469D01*
X289738Y260351D01*
X289602Y260254D01*
X289524Y260195D01*
X289485Y260176D01*
X289192Y260039D01*
X288899Y259941D01*
X288625Y259863D01*
X288371Y259824D01*
X288137Y259785D01*
X287961Y259766D01*
X287805D01*
X287473Y259785D01*
X287141Y259824D01*
X286848Y259902D01*
X286594Y259981D01*
X286379Y260059D01*
X286204Y260137D01*
X286106Y260176D01*
X286067Y260195D01*
X285774Y260371D01*
X285501Y260566D01*
X285266Y260762D01*
X285071Y260957D01*
X284915Y261133D01*
X284817Y261269D01*
X284739Y261348D01*
X284719Y261387D01*
Y260000D01*
X282434Y260000D01*
Y269296D01*
X284895Y269296D01*
Y265351D01*
Y265000D01*
Y264668D01*
X284915Y264375D01*
X284934Y264121D01*
Y263886D01*
X284954Y263672D01*
X284973Y263496D01*
X284993Y263340D01*
X285012Y263222D01*
X285032Y263105D01*
X285051Y263008D01*
Y262949D01*
X285090Y262851D01*
Y262832D01*
X285168Y262656D01*
X285266Y262480D01*
X285383Y262344D01*
X285501Y262207D01*
X285598Y262109D01*
X285696Y262031D01*
X285754Y261992D01*
X285774Y261972D01*
X285969Y261855D01*
X286145Y261777D01*
X286340Y261719D01*
X286516Y261680D01*
X286672Y261660D01*
X286789Y261641D01*
X286887D01*
X287082Y261660D01*
X287258Y261680D01*
X287414Y261719D01*
X287551Y261777D01*
X287649Y261816D01*
X287746Y261855D01*
X287786Y261875D01*
X287805Y261894D01*
X287922Y261992D01*
X288020Y262109D01*
X288176Y262324D01*
X288235Y262422D01*
X288274Y262500D01*
X288293Y262558D01*
Y262578D01*
X288313Y262676D01*
X288332Y262812D01*
X288352Y262968D01*
Y263144D01*
X288391Y263535D01*
Y263965D01*
X288410Y264355D01*
Y264531D01*
Y264687D01*
Y264824D01*
Y264921D01*
Y264980D01*
Y265000D01*
Y269296D01*
X290871D01*
Y263398D01*
D02*
G37*
G36*
X389127Y269472D02*
X389459Y269433D01*
X389752Y269374D01*
X390044Y269277D01*
X390318Y269179D01*
X390572Y269081D01*
X390787Y268945D01*
X391002Y268828D01*
X391197Y268710D01*
X391353Y268593D01*
X391509Y268476D01*
X391627Y268378D01*
X391724Y268281D01*
X391783Y268222D01*
X391822Y268183D01*
X391841Y268163D01*
X392056Y267910D01*
X392232Y267636D01*
X392388Y267343D01*
X392525Y267050D01*
X392642Y266738D01*
X392740Y266445D01*
X392876Y265859D01*
X392935Y265605D01*
X392974Y265351D01*
X392994Y265117D01*
X393013Y264941D01*
X393033Y264765D01*
Y264648D01*
Y264570D01*
Y264550D01*
X393013Y264199D01*
X392994Y263867D01*
X392896Y263242D01*
X392818Y262949D01*
X392740Y262695D01*
X392662Y262441D01*
X392583Y262226D01*
X392505Y262031D01*
X392427Y261855D01*
X392349Y261699D01*
X392271Y261582D01*
X392212Y261484D01*
X392173Y261406D01*
X392134Y261367D01*
Y261348D01*
X391900Y261074D01*
X391646Y260820D01*
X391373Y260605D01*
X391080Y260430D01*
X390787Y260273D01*
X390474Y260156D01*
X390181Y260039D01*
X389888Y259961D01*
X389615Y259902D01*
X389361Y259844D01*
X389146Y259824D01*
X388931Y259785D01*
X388775D01*
X388638Y259766D01*
X388541D01*
X387994Y259805D01*
X387506Y259883D01*
X387076Y259981D01*
X386705Y260117D01*
X386412Y260254D01*
X386275Y260313D01*
X386178Y260351D01*
X386100Y260410D01*
X386041Y260430D01*
X386021Y260469D01*
X386002D01*
X385650Y260762D01*
X385338Y261094D01*
X385084Y261426D01*
X384869Y261758D01*
X384713Y262051D01*
X384635Y262187D01*
X384596Y262304D01*
X384557Y262383D01*
X384518Y262461D01*
X384498Y262500D01*
Y262519D01*
X386939Y262930D01*
X387017Y262676D01*
X387115Y262480D01*
X387232Y262304D01*
X387330Y262168D01*
X387408Y262051D01*
X387486Y261972D01*
X387525Y261933D01*
X387545Y261914D01*
X387701Y261816D01*
X387857Y261738D01*
X388033Y261680D01*
X388170Y261641D01*
X388306Y261621D01*
X388423Y261601D01*
X388521D01*
X388814Y261621D01*
X389088Y261699D01*
X389341Y261797D01*
X389537Y261914D01*
X389713Y262012D01*
X389830Y262109D01*
X389908Y262187D01*
X389927Y262207D01*
X390123Y262461D01*
X390259Y262734D01*
X390357Y263008D01*
X390435Y263301D01*
X390474Y263535D01*
X390494Y263750D01*
X390513Y263828D01*
Y263886D01*
Y263906D01*
Y263926D01*
X384361D01*
Y264433D01*
X384400Y264921D01*
X384459Y265351D01*
X384518Y265761D01*
X384615Y266132D01*
X384713Y266484D01*
X384810Y266796D01*
X384928Y267070D01*
X385025Y267324D01*
X385142Y267519D01*
X385240Y267695D01*
X385318Y267851D01*
X385396Y267968D01*
X385455Y268046D01*
X385494Y268085D01*
X385514Y268105D01*
X385748Y268359D01*
X386002Y268554D01*
X386256Y268749D01*
X386529Y268906D01*
X386803Y269042D01*
X387076Y269160D01*
X387349Y269238D01*
X387603Y269316D01*
X387838Y269374D01*
X388072Y269413D01*
X388267Y269453D01*
X388443Y269472D01*
X388599Y269492D01*
X388795D01*
X389127Y269472D01*
D02*
G37*
G36*
X378288D02*
X378483Y269453D01*
X378659Y269394D01*
X378815Y269355D01*
X378952Y269296D01*
X379049Y269238D01*
X379108Y269218D01*
X379127Y269199D01*
X379303Y269062D01*
X379498Y268886D01*
X379674Y268691D01*
X379830Y268476D01*
X379967Y268281D01*
X380084Y268125D01*
X380162Y268007D01*
X380182Y267988D01*
Y269296D01*
X382467D01*
Y260000D01*
X380006D01*
Y262851D01*
Y263281D01*
Y263672D01*
X379987Y264023D01*
X379967Y264336D01*
Y264629D01*
X379947Y264882D01*
X379928Y265097D01*
X379908Y265293D01*
X379889Y265449D01*
X379869Y265605D01*
X379850Y265722D01*
Y265800D01*
X379830Y265879D01*
X379811Y265918D01*
Y265957D01*
X379733Y266211D01*
X379635Y266425D01*
X379537Y266621D01*
X379440Y266757D01*
X379362Y266855D01*
X379303Y266933D01*
X379264Y266972D01*
X379244Y266992D01*
X379108Y267089D01*
X378952Y267167D01*
X378795Y267207D01*
X378659Y267246D01*
X378541Y267265D01*
X378444Y267285D01*
X378366D01*
X378151Y267265D01*
X377956Y267226D01*
X377760Y267148D01*
X377565Y267089D01*
X377428Y267011D01*
X377291Y266933D01*
X377213Y266894D01*
X377194Y266875D01*
X376432Y269023D01*
X376725Y269179D01*
X377018Y269296D01*
X377311Y269374D01*
X377545Y269433D01*
X377760Y269472D01*
X377936Y269492D01*
X378073D01*
X378288Y269472D01*
D02*
G37*
G36*
X333622Y269472D02*
X333954Y269433D01*
X334247Y269355D01*
X334540Y269257D01*
X334814Y269121D01*
X335068Y269003D01*
X335282Y268847D01*
X335497Y268710D01*
X335693Y268574D01*
X335849Y268417D01*
X336005Y268300D01*
X336122Y268183D01*
X336220Y268066D01*
X336279Y267988D01*
X336317Y267949D01*
X336337Y267929D01*
Y269296D01*
X338622D01*
Y260000D01*
X336161D01*
Y264199D01*
Y264472D01*
Y264746D01*
X336142Y264980D01*
Y265195D01*
X336122Y265390D01*
X336103Y265566D01*
X336083Y265722D01*
X336064Y265859D01*
X336044Y266074D01*
X336005Y266211D01*
X335985Y266308D01*
Y266328D01*
X335907Y266543D01*
X335790Y266718D01*
X335673Y266875D01*
X335575Y267011D01*
X335458Y267128D01*
X335380Y267207D01*
X335321Y267246D01*
X335302Y267265D01*
X335107Y267382D01*
X334911Y267460D01*
X334716Y267539D01*
X334540Y267578D01*
X334384Y267597D01*
X334267Y267617D01*
X334150D01*
X333974Y267597D01*
X333818Y267578D01*
X333661Y267539D01*
X333544Y267499D01*
X333447Y267441D01*
X333368Y267402D01*
X333329Y267382D01*
X333310Y267363D01*
X333075Y267148D01*
X332919Y266914D01*
X332861Y266816D01*
X332822Y266738D01*
X332802Y266679D01*
Y266660D01*
X332763Y266562D01*
X332744Y266445D01*
X332704Y266172D01*
X332665Y265859D01*
X332646Y265527D01*
X332626Y265234D01*
Y265097D01*
Y264961D01*
Y264863D01*
Y264785D01*
Y264746D01*
Y264726D01*
Y260000D01*
X330166D01*
Y265761D01*
Y266132D01*
X330185Y266464D01*
X330205Y266757D01*
X330224Y266992D01*
X330263Y267167D01*
X330283Y267304D01*
X330302Y267382D01*
Y267402D01*
X330361Y267617D01*
X330439Y267812D01*
X330517Y267988D01*
X330595Y268144D01*
X330673Y268261D01*
X330732Y268359D01*
X330771Y268417D01*
X330790Y268437D01*
X330927Y268613D01*
X331103Y268749D01*
X331259Y268886D01*
X331435Y269003D01*
X331572Y269081D01*
X331689Y269140D01*
X331767Y269179D01*
X331806Y269199D01*
X332060Y269296D01*
X332314Y269374D01*
X332568Y269413D01*
X332802Y269453D01*
X332997Y269472D01*
X333154Y269492D01*
X333290D01*
X333622Y269472D01*
D02*
G37*
G36*
X304679D02*
X304874Y269453D01*
X305050Y269394D01*
X305206Y269355D01*
X305343Y269296D01*
X305441Y269238D01*
X305499Y269218D01*
X305519Y269199D01*
X305695Y269062D01*
X305890Y268886D01*
X306066Y268691D01*
X306222Y268476D01*
X306359Y268281D01*
X306476Y268125D01*
X306554Y268007D01*
X306573Y267988D01*
Y269296D01*
X308858D01*
Y260000D01*
X306398D01*
Y262851D01*
Y263281D01*
Y263672D01*
X306378Y264023D01*
X306359Y264336D01*
Y264629D01*
X306339Y264882D01*
X306319Y265097D01*
X306300Y265293D01*
X306280Y265449D01*
X306261Y265605D01*
X306241Y265722D01*
Y265800D01*
X306222Y265879D01*
X306202Y265918D01*
Y265957D01*
X306124Y266211D01*
X306027Y266425D01*
X305929Y266621D01*
X305831Y266757D01*
X305753Y266855D01*
X305695Y266933D01*
X305655Y266972D01*
X305636Y266992D01*
X305499Y267089D01*
X305343Y267167D01*
X305187Y267207D01*
X305050Y267246D01*
X304933Y267265D01*
X304835Y267285D01*
X304757D01*
X304542Y267265D01*
X304347Y267226D01*
X304152Y267148D01*
X303956Y267089D01*
X303820Y267011D01*
X303683Y266933D01*
X303605Y266894D01*
X303585Y266875D01*
X302824Y269023D01*
X303116Y269179D01*
X303410Y269296D01*
X303702Y269374D01*
X303937Y269433D01*
X304152Y269472D01*
X304327Y269492D01*
X304464D01*
X304679Y269472D01*
D02*
G37*
G36*
X422191Y273026D02*
X422679Y272968D01*
X423109Y272909D01*
X423480Y272831D01*
X423773Y272734D01*
X423890Y272694D01*
X423988Y272675D01*
X424066Y272636D01*
X424144Y272616D01*
X424163Y272597D01*
X424183D01*
X424554Y272421D01*
X424866Y272206D01*
X425140Y271991D01*
X425355Y271777D01*
X425531Y271581D01*
X425667Y271425D01*
X425745Y271327D01*
X425765Y271308D01*
Y271288D01*
X425941Y270956D01*
X426077Y270644D01*
X426175Y270331D01*
X426234Y270058D01*
X426273Y269804D01*
X426312Y269628D01*
Y269550D01*
Y269492D01*
Y269472D01*
Y269453D01*
X426292Y269179D01*
X426253Y268906D01*
X426195Y268652D01*
X426136Y268417D01*
X425941Y267968D01*
X425726Y267597D01*
X425609Y267441D01*
X425511Y267285D01*
X425413Y267167D01*
X425316Y267070D01*
X425257Y266992D01*
X425199Y266933D01*
X425160Y266894D01*
X425140Y266875D01*
X424964Y266738D01*
X424769Y266601D01*
X424339Y266347D01*
X423851Y266132D01*
X423363Y265957D01*
X422933Y265800D01*
X422738Y265742D01*
X422562Y265703D01*
X422425Y265664D01*
X422328Y265625D01*
X422250Y265605D01*
X422230D01*
X421937Y265527D01*
X421683Y265468D01*
X421449Y265410D01*
X421234Y265351D01*
X421039Y265293D01*
X420882Y265254D01*
X420726Y265214D01*
X420609Y265176D01*
X420414Y265117D01*
X420277Y265078D01*
X420199Y265039D01*
X420179D01*
X419945Y264941D01*
X419750Y264843D01*
X419593Y264765D01*
X419457Y264668D01*
X419359Y264590D01*
X419301Y264531D01*
X419261Y264492D01*
X419242Y264472D01*
X419144Y264355D01*
X419086Y264218D01*
X419007Y263984D01*
X418988Y263867D01*
X418968Y263789D01*
Y263730D01*
Y263711D01*
X418988Y263457D01*
X419066Y263222D01*
X419164Y263008D01*
X419281Y262832D01*
X419418Y262676D01*
X419515Y262578D01*
X419593Y262500D01*
X419613Y262480D01*
X419867Y262304D01*
X420160Y262168D01*
X420472Y262090D01*
X420785Y262012D01*
X421058Y261972D01*
X421273Y261953D01*
X421488D01*
X421917Y261972D01*
X422289Y262051D01*
X422601Y262148D01*
X422874Y262246D01*
X423089Y262363D01*
X423245Y262441D01*
X423343Y262519D01*
X423382Y262539D01*
X423617Y262793D01*
X423812Y263086D01*
X423968Y263398D01*
X424085Y263691D01*
X424183Y263984D01*
X424242Y264199D01*
X424261Y264297D01*
Y264355D01*
X424281Y264394D01*
Y264414D01*
X426800Y264160D01*
X426741Y263769D01*
X426663Y263398D01*
X426566Y263047D01*
X426468Y262734D01*
X426331Y262441D01*
X426214Y262168D01*
X426077Y261933D01*
X425941Y261699D01*
X425804Y261523D01*
X425687Y261348D01*
X425570Y261211D01*
X425472Y261094D01*
X425374Y260996D01*
X425316Y260937D01*
X425277Y260898D01*
X425257Y260879D01*
X425003Y260684D01*
X424710Y260508D01*
X424417Y260371D01*
X424124Y260234D01*
X423812Y260137D01*
X423499Y260039D01*
X422894Y259902D01*
X422601Y259863D01*
X422347Y259824D01*
X422113Y259805D01*
X421917Y259785D01*
X421742Y259766D01*
X421507D01*
X420902Y259785D01*
X420375Y259844D01*
X419906Y259902D01*
X419496Y260000D01*
X419320Y260039D01*
X419164Y260078D01*
X419047Y260117D01*
X418929Y260137D01*
X418851Y260176D01*
X418793Y260195D01*
X418754Y260215D01*
X418734D01*
X418324Y260410D01*
X417992Y260645D01*
X417680Y260879D01*
X417445Y261113D01*
X417250Y261309D01*
X417113Y261484D01*
X417016Y261601D01*
X416996Y261621D01*
Y261641D01*
X416781Y262012D01*
X416625Y262383D01*
X416527Y262734D01*
X416449Y263047D01*
X416410Y263320D01*
X416371Y263535D01*
Y263613D01*
Y263672D01*
Y263711D01*
Y263730D01*
X416391Y264160D01*
X416449Y264550D01*
X416547Y264902D01*
X416625Y265195D01*
X416722Y265429D01*
X416820Y265625D01*
X416879Y265722D01*
X416898Y265761D01*
X417113Y266054D01*
X417328Y266328D01*
X417562Y266543D01*
X417797Y266738D01*
X417992Y266875D01*
X418148Y266992D01*
X418265Y267050D01*
X418285Y267070D01*
X418304D01*
X418480Y267167D01*
X418676Y267246D01*
X419125Y267421D01*
X419574Y267558D01*
X420043Y267714D01*
X420453Y267812D01*
X420628Y267871D01*
X420785Y267910D01*
X420922Y267949D01*
X421019Y267968D01*
X421078Y267988D01*
X421097D01*
X421429Y268066D01*
X421742Y268163D01*
X422015Y268242D01*
X422250Y268320D01*
X422484Y268378D01*
X422660Y268457D01*
X422835Y268515D01*
X422972Y268593D01*
X423109Y268652D01*
X423207Y268691D01*
X423363Y268769D01*
X423441Y268828D01*
X423460Y268847D01*
X423577Y268984D01*
X423675Y269101D01*
X423734Y269238D01*
X423792Y269355D01*
X423812Y269472D01*
X423831Y269550D01*
Y269609D01*
Y269628D01*
X423812Y269804D01*
X423773Y269960D01*
X423714Y270097D01*
X423636Y270214D01*
X423558Y270312D01*
X423499Y270370D01*
X423460Y270409D01*
X423441Y270429D01*
X423187Y270585D01*
X422894Y270702D01*
X422601Y270781D01*
X422328Y270839D01*
X422074Y270878D01*
X421859Y270898D01*
X421683D01*
X421292Y270878D01*
X420961Y270820D01*
X420687Y270761D01*
X420453Y270683D01*
X420277Y270585D01*
X420160Y270527D01*
X420082Y270468D01*
X420062Y270448D01*
X419867Y270273D01*
X419711Y270058D01*
X419593Y269824D01*
X419496Y269589D01*
X419418Y269374D01*
X419379Y269199D01*
X419340Y269081D01*
Y269062D01*
Y269042D01*
X416742Y269140D01*
X416762Y269453D01*
X416820Y269765D01*
X416898Y270058D01*
X416976Y270331D01*
X417191Y270800D01*
X417289Y271015D01*
X417406Y271210D01*
X417523Y271386D01*
X417640Y271542D01*
X417738Y271679D01*
X417836Y271777D01*
X417914Y271855D01*
X417972Y271913D01*
X418012Y271952D01*
X418031Y271972D01*
X418265Y272167D01*
X418539Y272323D01*
X418812Y272480D01*
X419105Y272597D01*
X419711Y272792D01*
X420296Y272909D01*
X420570Y272948D01*
X420824Y272987D01*
X421058Y273007D01*
X421273Y273026D01*
X421429Y273046D01*
X421664D01*
X422191Y273026D01*
D02*
G37*
G36*
X356765Y269472D02*
X357215Y269394D01*
X357644Y269296D01*
X358015Y269199D01*
X358308Y269081D01*
X358445Y269023D01*
X358543Y268984D01*
X358621Y268945D01*
X358679Y268906D01*
X358718Y268886D01*
X358738D01*
X359128Y268632D01*
X359461Y268359D01*
X359753Y268066D01*
X359988Y267773D01*
X360183Y267519D01*
X360320Y267324D01*
X360379Y267246D01*
X360418Y267187D01*
X360437Y267148D01*
Y267128D01*
X360632Y266699D01*
X360769Y266269D01*
X360886Y265879D01*
X360945Y265508D01*
X360984Y265195D01*
X361003Y265058D01*
Y264961D01*
X361023Y264863D01*
Y264804D01*
Y264765D01*
Y264746D01*
X361003Y264179D01*
X360925Y263652D01*
X360828Y263183D01*
X360730Y262793D01*
X360671Y262617D01*
X360613Y262461D01*
X360574Y262344D01*
X360535Y262226D01*
X360496Y262148D01*
X360457Y262090D01*
X360437Y262051D01*
Y262031D01*
X360183Y261641D01*
X359910Y261289D01*
X359617Y260996D01*
X359324Y260762D01*
X359070Y260586D01*
X358875Y260449D01*
X358797Y260391D01*
X358738Y260351D01*
X358699Y260332D01*
X358679D01*
X358250Y260137D01*
X357820Y260000D01*
X357410Y259902D01*
X357039Y259844D01*
X356726Y259805D01*
X356590Y259785D01*
X356472Y259766D01*
X356258D01*
X355887Y259785D01*
X355516Y259824D01*
X355164Y259902D01*
X354852Y259981D01*
X354539Y260078D01*
X354266Y260195D01*
X354012Y260332D01*
X353777Y260469D01*
X353562Y260586D01*
X353367Y260723D01*
X353211Y260840D01*
X353074Y260937D01*
X352977Y261016D01*
X352899Y261094D01*
X352859Y261133D01*
X352840Y261152D01*
X352606Y261426D01*
X352391Y261699D01*
X352215Y261992D01*
X352039Y262285D01*
X351922Y262578D01*
X351805Y262871D01*
X351707Y263144D01*
X351649Y263418D01*
X351590Y263672D01*
X351551Y263906D01*
X351512Y264121D01*
X351492Y264297D01*
X351473Y264453D01*
Y264550D01*
Y264629D01*
Y264648D01*
X351492Y265039D01*
X351531Y265390D01*
X351590Y265742D01*
X351688Y266074D01*
X351785Y266367D01*
X351902Y266660D01*
X352020Y266914D01*
X352137Y267167D01*
X352274Y267382D01*
X352391Y267558D01*
X352508Y267734D01*
X352606Y267851D01*
X352703Y267968D01*
X352762Y268046D01*
X352801Y268085D01*
X352820Y268105D01*
X353074Y268359D01*
X353348Y268554D01*
X353641Y268749D01*
X353934Y268906D01*
X354207Y269042D01*
X354500Y269160D01*
X354773Y269238D01*
X355047Y269316D01*
X355301Y269374D01*
X355516Y269413D01*
X355730Y269453D01*
X355906Y269472D01*
X356062Y269492D01*
X356258D01*
X356765Y269472D01*
D02*
G37*
G36*
X345829D02*
X346278Y269394D01*
X346708Y269296D01*
X347078Y269199D01*
X347372Y269081D01*
X347508Y269023D01*
X347606Y268984D01*
X347684Y268945D01*
X347743Y268906D01*
X347782Y268886D01*
X347801D01*
X348192Y268632D01*
X348524Y268359D01*
X348817Y268066D01*
X349051Y267773D01*
X349246Y267519D01*
X349383Y267324D01*
X349442Y267246D01*
X349481Y267187D01*
X349500Y267148D01*
Y267128D01*
X349696Y266699D01*
X349832Y266269D01*
X349949Y265879D01*
X350008Y265508D01*
X350047Y265195D01*
X350067Y265058D01*
Y264961D01*
X350086Y264863D01*
Y264804D01*
Y264765D01*
Y264746D01*
X350067Y264179D01*
X349989Y263652D01*
X349891Y263183D01*
X349793Y262793D01*
X349735Y262617D01*
X349676Y262461D01*
X349637Y262344D01*
X349598Y262226D01*
X349559Y262148D01*
X349520Y262090D01*
X349500Y262051D01*
Y262031D01*
X349246Y261641D01*
X348973Y261289D01*
X348680Y260996D01*
X348387Y260762D01*
X348133Y260586D01*
X347938Y260449D01*
X347860Y260391D01*
X347801Y260351D01*
X347762Y260332D01*
X347743D01*
X347313Y260137D01*
X346883Y260000D01*
X346473Y259902D01*
X346102Y259844D01*
X345790Y259805D01*
X345653Y259785D01*
X345536Y259766D01*
X345321D01*
X344950Y259785D01*
X344579Y259824D01*
X344227Y259902D01*
X343915Y259981D01*
X343602Y260078D01*
X343329Y260195D01*
X343075Y260332D01*
X342841Y260469D01*
X342626Y260586D01*
X342430Y260723D01*
X342274Y260840D01*
X342137Y260937D01*
X342040Y261016D01*
X341962Y261094D01*
X341923Y261133D01*
X341903Y261152D01*
X341669Y261426D01*
X341454Y261699D01*
X341278Y261992D01*
X341102Y262285D01*
X340985Y262578D01*
X340868Y262871D01*
X340770Y263144D01*
X340712Y263418D01*
X340653Y263672D01*
X340614Y263906D01*
X340575Y264121D01*
X340556Y264297D01*
X340536Y264453D01*
Y264550D01*
Y264629D01*
Y264648D01*
X340556Y265039D01*
X340595Y265390D01*
X340653Y265742D01*
X340751Y266074D01*
X340848Y266367D01*
X340966Y266660D01*
X341083Y266914D01*
X341200Y267167D01*
X341337Y267382D01*
X341454Y267558D01*
X341571Y267734D01*
X341669Y267851D01*
X341766Y267968D01*
X341825Y268046D01*
X341864Y268085D01*
X341884Y268105D01*
X342137Y268359D01*
X342411Y268554D01*
X342704Y268749D01*
X342997Y268906D01*
X343270Y269042D01*
X343563Y269160D01*
X343837Y269238D01*
X344110Y269316D01*
X344364Y269374D01*
X344579Y269413D01*
X344794Y269453D01*
X344969Y269472D01*
X345126Y269492D01*
X345321D01*
X345829Y269472D01*
D02*
G37*
G36*
X298078Y269472D02*
X298527Y269394D01*
X298957Y269296D01*
X299328Y269199D01*
X299621Y269081D01*
X299757Y269023D01*
X299855Y268984D01*
X299933Y268945D01*
X299992Y268906D01*
X300031Y268886D01*
X300050D01*
X300441Y268632D01*
X300773Y268359D01*
X301066Y268066D01*
X301300Y267773D01*
X301496Y267519D01*
X301632Y267324D01*
X301691Y267246D01*
X301730Y267187D01*
X301749Y267148D01*
Y267128D01*
X301945Y266699D01*
X302081Y266269D01*
X302199Y265879D01*
X302257Y265507D01*
X302296Y265195D01*
X302316Y265058D01*
Y264961D01*
X302335Y264863D01*
Y264804D01*
Y264765D01*
Y264746D01*
X302316Y264179D01*
X302238Y263652D01*
X302140Y263183D01*
X302042Y262793D01*
X301984Y262617D01*
X301925Y262461D01*
X301886Y262344D01*
X301847Y262226D01*
X301808Y262148D01*
X301769Y262090D01*
X301749Y262051D01*
Y262031D01*
X301496Y261641D01*
X301222Y261289D01*
X300929Y260996D01*
X300636Y260762D01*
X300382Y260586D01*
X300187Y260449D01*
X300109Y260391D01*
X300050Y260351D01*
X300011Y260332D01*
X299992D01*
X299562Y260137D01*
X299132Y260000D01*
X298722Y259902D01*
X298351Y259844D01*
X298039Y259805D01*
X297902Y259785D01*
X297785Y259766D01*
X297570D01*
X297199Y259785D01*
X296828Y259824D01*
X296476Y259902D01*
X296164Y259981D01*
X295851Y260078D01*
X295578Y260195D01*
X295324Y260332D01*
X295090Y260469D01*
X294875Y260586D01*
X294680Y260723D01*
X294523Y260840D01*
X294387Y260937D01*
X294289Y261016D01*
X294211Y261094D01*
X294172Y261133D01*
X294152Y261152D01*
X293918Y261426D01*
X293703Y261699D01*
X293527Y261992D01*
X293352Y262285D01*
X293234Y262578D01*
X293117Y262871D01*
X293020Y263144D01*
X292961Y263418D01*
X292902Y263672D01*
X292863Y263906D01*
X292824Y264121D01*
X292805Y264297D01*
X292785Y264453D01*
Y264550D01*
Y264629D01*
Y264648D01*
X292805Y265039D01*
X292844Y265390D01*
X292902Y265742D01*
X293000Y266074D01*
X293098Y266367D01*
X293215Y266660D01*
X293332Y266914D01*
X293449Y267167D01*
X293586Y267382D01*
X293703Y267558D01*
X293820Y267734D01*
X293918Y267851D01*
X294016Y267968D01*
X294074Y268046D01*
X294113Y268085D01*
X294133Y268105D01*
X294387Y268359D01*
X294660Y268554D01*
X294953Y268749D01*
X295246Y268906D01*
X295519Y269042D01*
X295812Y269160D01*
X296086Y269238D01*
X296359Y269316D01*
X296613Y269374D01*
X296828Y269413D01*
X297043Y269453D01*
X297218Y269472D01*
X297375Y269492D01*
X297570D01*
X298078Y269472D01*
D02*
G37*
G36*
X398481Y269472D02*
X398814Y269413D01*
X399107Y269355D01*
X399341Y269277D01*
X399556Y269179D01*
X399712Y269121D01*
X399810Y269062D01*
X399849Y269042D01*
X400122Y268867D01*
X400356Y268691D01*
X400552Y268496D01*
X400727Y268320D01*
X400864Y268163D01*
X400962Y268046D01*
X401020Y267968D01*
X401040Y267929D01*
Y269296D01*
X403325D01*
Y256446D01*
X400864D01*
Y261113D01*
X400610Y260859D01*
X400376Y260645D01*
X400142Y260449D01*
X399946Y260313D01*
X399790Y260195D01*
X399673Y260117D01*
X399575Y260078D01*
X399556Y260059D01*
X399321Y259961D01*
X399067Y259883D01*
X398833Y259844D01*
X398618Y259805D01*
X398442Y259785D01*
X398306Y259766D01*
X398169Y259766D01*
X397876Y259785D01*
X397583Y259824D01*
X397310Y259883D01*
X397056Y259961D01*
X396587Y260176D01*
X396177Y260410D01*
X396021Y260527D01*
X395865Y260645D01*
X395728Y260762D01*
X395611Y260859D01*
X395532Y260937D01*
X395474Y260996D01*
X395435Y261035D01*
X395415Y261055D01*
X395220Y261309D01*
X395025Y261582D01*
X394888Y261875D01*
X394751Y262168D01*
X394634Y262461D01*
X394536Y262773D01*
X394400Y263340D01*
X394361Y263613D01*
X394322Y263867D01*
X394302Y264082D01*
X394283Y264277D01*
X394263Y264453D01*
Y264570D01*
Y264648D01*
Y264668D01*
X394283Y265078D01*
X394302Y265468D01*
X394361Y265840D01*
X394439Y266172D01*
X394517Y266484D01*
X394615Y266777D01*
X394732Y267050D01*
X394829Y267285D01*
X394927Y267499D01*
X395044Y267675D01*
X395142Y267831D01*
X395220Y267968D01*
X395298Y268066D01*
X395337Y268144D01*
X395376Y268183D01*
X395396Y268203D01*
X395611Y268437D01*
X395845Y268632D01*
X396079Y268808D01*
X396294Y268945D01*
X396529Y269081D01*
X396763Y269179D01*
X397193Y269335D01*
X397583Y269433D01*
X397739Y269453D01*
X397876Y269472D01*
X397993Y269492D01*
X398149D01*
X398481Y269472D01*
D02*
G37*
G36*
X275130Y269472D02*
X275462Y269413D01*
X275755Y269355D01*
X275989Y269277D01*
X276204Y269179D01*
X276360Y269121D01*
X276458Y269062D01*
X276497Y269042D01*
X276770Y268867D01*
X277005Y268691D01*
X277200Y268495D01*
X277376Y268320D01*
X277513Y268163D01*
X277610Y268046D01*
X277669Y267968D01*
X277689Y267929D01*
Y269296D01*
X279974D01*
Y256446D01*
X277513D01*
Y261113D01*
X277259Y260859D01*
X277024Y260645D01*
X276790Y260449D01*
X276595Y260312D01*
X276438Y260195D01*
X276321Y260117D01*
X276224Y260078D01*
X276204Y260059D01*
X275970Y259961D01*
X275716Y259883D01*
X275482Y259844D01*
X275267Y259805D01*
X275091Y259785D01*
X274954Y259766D01*
X274817D01*
X274525Y259785D01*
X274232Y259824D01*
X273958Y259883D01*
X273704Y259961D01*
X273236Y260176D01*
X272826Y260410D01*
X272669Y260527D01*
X272513Y260645D01*
X272376Y260762D01*
X272259Y260859D01*
X272181Y260937D01*
X272122Y260996D01*
X272083Y261035D01*
X272064Y261055D01*
X271868Y261309D01*
X271673Y261582D01*
X271536Y261875D01*
X271400Y262168D01*
X271283Y262461D01*
X271185Y262773D01*
X271048Y263340D01*
X271009Y263613D01*
X270970Y263867D01*
X270951Y264082D01*
X270931Y264277D01*
X270912Y264453D01*
Y264570D01*
Y264648D01*
Y264668D01*
X270931Y265078D01*
X270951Y265468D01*
X271009Y265839D01*
X271087Y266172D01*
X271165Y266484D01*
X271263Y266777D01*
X271380Y267050D01*
X271478Y267285D01*
X271576Y267499D01*
X271693Y267675D01*
X271790Y267831D01*
X271868Y267968D01*
X271947Y268066D01*
X271986Y268144D01*
X272025Y268183D01*
X272044Y268203D01*
X272259Y268437D01*
X272494Y268632D01*
X272728Y268808D01*
X272943Y268945D01*
X273177Y269081D01*
X273411Y269179D01*
X273841Y269335D01*
X274232Y269433D01*
X274388Y269453D01*
X274525Y269472D01*
X274642Y269492D01*
X274798D01*
X275130Y269472D01*
D02*
G37*
%LPC*%
G36*
X388775Y267617D02*
X388638D01*
X388365Y267597D01*
X388111Y267539D01*
X387896Y267441D01*
X387720Y267343D01*
X387564Y267226D01*
X387467Y267148D01*
X387388Y267070D01*
X387369Y267050D01*
X387193Y266816D01*
X387056Y266562D01*
X386959Y266289D01*
X386881Y266035D01*
X386842Y265800D01*
X386822Y265605D01*
X386803Y265527D01*
Y265468D01*
Y265449D01*
Y265429D01*
X390474D01*
X390455Y265781D01*
X390396Y266093D01*
X390318Y266367D01*
X390220Y266601D01*
X390123Y266777D01*
X390044Y266914D01*
X389986Y266992D01*
X389966Y267011D01*
X389752Y267207D01*
X389537Y267363D01*
X389322Y267460D01*
X389107Y267539D01*
X388912Y267578D01*
X388775Y267617D01*
D02*
G37*
G36*
X356297Y267480D02*
X356258D01*
X355906Y267441D01*
X355594Y267363D01*
X355320Y267246D01*
X355105Y267109D01*
X354910Y266972D01*
X354773Y266855D01*
X354676Y266777D01*
X354656Y266738D01*
X354441Y266425D01*
X354266Y266093D01*
X354148Y265742D01*
X354070Y265410D01*
X354031Y265097D01*
X354012Y264961D01*
X353992Y264863D01*
Y264765D01*
Y264687D01*
Y264648D01*
Y264629D01*
X354012Y264140D01*
X354090Y263711D01*
X354207Y263340D01*
X354324Y263047D01*
X354441Y262812D01*
X354558Y262636D01*
X354637Y262539D01*
X354656Y262500D01*
X354910Y262265D01*
X355184Y262090D01*
X355437Y261953D01*
X355691Y261875D01*
X355926Y261816D01*
X356101Y261797D01*
X356219Y261777D01*
X356258D01*
X356609Y261816D01*
X356902Y261894D01*
X357176Y262012D01*
X357410Y262148D01*
X357605Y262265D01*
X357742Y262383D01*
X357820Y262461D01*
X357859Y262500D01*
X358074Y262812D01*
X358230Y263144D01*
X358347Y263496D01*
X358425Y263847D01*
X358465Y264160D01*
X358484Y264277D01*
Y264394D01*
X358504Y264492D01*
Y264570D01*
Y264609D01*
Y264629D01*
X358484Y265117D01*
X358406Y265527D01*
X358308Y265898D01*
X358172Y266191D01*
X358054Y266425D01*
X357957Y266601D01*
X357879Y266699D01*
X357859Y266738D01*
X357605Y266992D01*
X357332Y267167D01*
X357078Y267304D01*
X356824Y267382D01*
X356590Y267441D01*
X356414Y267460D01*
X356297Y267480D01*
D02*
G37*
G36*
X345360D02*
X345321D01*
X344969Y267441D01*
X344657Y267363D01*
X344383Y267246D01*
X344169Y267109D01*
X343973Y266972D01*
X343837Y266855D01*
X343739Y266777D01*
X343719Y266738D01*
X343505Y266425D01*
X343329Y266093D01*
X343212Y265742D01*
X343133Y265410D01*
X343094Y265097D01*
X343075Y264961D01*
X343055Y264863D01*
Y264765D01*
Y264687D01*
Y264648D01*
Y264629D01*
X343075Y264140D01*
X343153Y263711D01*
X343270Y263340D01*
X343387Y263047D01*
X343505Y262812D01*
X343622Y262636D01*
X343700Y262539D01*
X343719Y262500D01*
X343973Y262265D01*
X344247Y262090D01*
X344501Y261953D01*
X344755Y261875D01*
X344989Y261816D01*
X345165Y261797D01*
X345282Y261777D01*
X345321D01*
X345672Y261816D01*
X345965Y261894D01*
X346239Y262012D01*
X346473Y262148D01*
X346668Y262265D01*
X346805Y262383D01*
X346883Y262461D01*
X346922Y262500D01*
X347137Y262812D01*
X347293Y263144D01*
X347411Y263496D01*
X347489Y263847D01*
X347528Y264160D01*
X347547Y264277D01*
Y264394D01*
X347567Y264492D01*
Y264570D01*
Y264609D01*
Y264629D01*
X347547Y265117D01*
X347469Y265527D01*
X347372Y265898D01*
X347235Y266191D01*
X347118Y266425D01*
X347020Y266601D01*
X346942Y266699D01*
X346922Y266738D01*
X346668Y266992D01*
X346395Y267167D01*
X346141Y267304D01*
X345887Y267382D01*
X345653Y267441D01*
X345477Y267460D01*
X345360Y267480D01*
D02*
G37*
G36*
X297609Y267480D02*
X297570D01*
X297218Y267441D01*
X296906Y267363D01*
X296633Y267246D01*
X296418Y267109D01*
X296222Y266972D01*
X296086Y266855D01*
X295988Y266777D01*
X295969Y266738D01*
X295754Y266425D01*
X295578Y266093D01*
X295461Y265742D01*
X295383Y265410D01*
X295344Y265097D01*
X295324Y264961D01*
X295304Y264863D01*
Y264765D01*
Y264687D01*
Y264648D01*
Y264629D01*
X295324Y264140D01*
X295402Y263711D01*
X295519Y263340D01*
X295637Y263047D01*
X295754Y262812D01*
X295871Y262636D01*
X295949Y262539D01*
X295969Y262500D01*
X296222Y262265D01*
X296496Y262090D01*
X296750Y261953D01*
X297004Y261875D01*
X297238Y261816D01*
X297414Y261797D01*
X297531Y261777D01*
X297570D01*
X297921Y261816D01*
X298215Y261894D01*
X298488Y262012D01*
X298722Y262148D01*
X298918Y262265D01*
X299054Y262383D01*
X299132Y262461D01*
X299171Y262500D01*
X299386Y262812D01*
X299542Y263144D01*
X299660Y263496D01*
X299738Y263847D01*
X299777Y264160D01*
X299796Y264277D01*
Y264394D01*
X299816Y264492D01*
Y264570D01*
Y264609D01*
Y264629D01*
X299796Y265117D01*
X299718Y265527D01*
X299621Y265898D01*
X299484Y266191D01*
X299367Y266425D01*
X299269Y266601D01*
X299191Y266699D01*
X299171Y266738D01*
X298918Y266992D01*
X298644Y267167D01*
X298390Y267304D01*
X298136Y267382D01*
X297902Y267441D01*
X297726Y267460D01*
X297609Y267480D01*
D02*
G37*
G36*
X398872Y267558D02*
X398833D01*
X398521Y267519D01*
X398228Y267441D01*
X397974Y267324D01*
X397778Y267207D01*
X397603Y267070D01*
X397466Y266953D01*
X397388Y266875D01*
X397368Y266835D01*
X397173Y266543D01*
X397036Y266211D01*
X396919Y265840D01*
X396861Y265488D01*
X396821Y265175D01*
X396802Y265039D01*
X396782Y264902D01*
Y264804D01*
Y264726D01*
Y264687D01*
Y264668D01*
Y264375D01*
X396802Y264121D01*
X396841Y263867D01*
X396880Y263652D01*
X396919Y263437D01*
X396958Y263262D01*
X397075Y262949D01*
X397173Y262695D01*
X397271Y262539D01*
X397349Y262441D01*
X397368Y262402D01*
X397583Y262168D01*
X397817Y262012D01*
X398052Y261894D01*
X398286Y261797D01*
X398481Y261758D01*
X398638Y261738D01*
X398735Y261719D01*
X398774D01*
X399107Y261758D01*
X399399Y261836D01*
X399653Y261953D01*
X399868Y262090D01*
X400044Y262226D01*
X400181Y262344D01*
X400278Y262422D01*
X400298Y262461D01*
X400395Y262617D01*
X400493Y262773D01*
X400649Y263144D01*
X400747Y263515D01*
X400825Y263906D01*
X400864Y264238D01*
X400884Y264394D01*
Y264531D01*
X400903Y264629D01*
Y264707D01*
Y264765D01*
Y264785D01*
X400884Y265273D01*
X400806Y265683D01*
X400708Y266035D01*
X400610Y266328D01*
X400493Y266562D01*
X400415Y266718D01*
X400337Y266816D01*
X400317Y266855D01*
X400083Y267089D01*
X399829Y267265D01*
X399595Y267382D01*
X399360Y267480D01*
X399146Y267519D01*
X398989Y267539D01*
X398872Y267558D01*
D02*
G37*
G36*
X275521Y267558D02*
X275482D01*
X275169Y267519D01*
X274876Y267441D01*
X274622Y267324D01*
X274427Y267207D01*
X274251Y267070D01*
X274114Y266953D01*
X274036Y266875D01*
X274017Y266835D01*
X273821Y266543D01*
X273685Y266211D01*
X273568Y265839D01*
X273509Y265488D01*
X273470Y265175D01*
X273450Y265039D01*
X273431Y264902D01*
Y264804D01*
Y264726D01*
Y264687D01*
Y264668D01*
Y264375D01*
X273450Y264121D01*
X273489Y263867D01*
X273529Y263652D01*
X273568Y263437D01*
X273607Y263262D01*
X273724Y262949D01*
X273821Y262695D01*
X273919Y262539D01*
X273997Y262441D01*
X274017Y262402D01*
X274232Y262168D01*
X274466Y262012D01*
X274700Y261894D01*
X274935Y261797D01*
X275130Y261758D01*
X275286Y261738D01*
X275384Y261719D01*
X275423D01*
X275755Y261758D01*
X276048Y261836D01*
X276302Y261953D01*
X276517Y262090D01*
X276692Y262226D01*
X276829Y262344D01*
X276927Y262422D01*
X276946Y262461D01*
X277044Y262617D01*
X277142Y262773D01*
X277298Y263144D01*
X277396Y263515D01*
X277474Y263906D01*
X277513Y264238D01*
X277532Y264394D01*
Y264531D01*
X277552Y264629D01*
Y264707D01*
Y264765D01*
Y264785D01*
X277532Y265273D01*
X277454Y265683D01*
X277356Y266035D01*
X277259Y266328D01*
X277142Y266562D01*
X277063Y266718D01*
X276985Y266816D01*
X276966Y266855D01*
X276731Y267089D01*
X276478Y267265D01*
X276243Y267382D01*
X276009Y267480D01*
X275794Y267519D01*
X275638Y267538D01*
X275521Y267558D01*
D02*
G37*
%LPD*%
D12*
X524500Y320500D02*
Y326498D01*
X521501D01*
X520501Y325498D01*
Y323499D01*
X521501Y322499D01*
X524500D01*
X522501D02*
X520501Y320500D01*
X518502D02*
X516503D01*
X517502D01*
Y326498D01*
X518502Y325498D01*
X524001Y352998D02*
X525001Y353998D01*
X527000D01*
X528000Y352998D01*
Y349000D01*
X527000Y348000D01*
X525001D01*
X524001Y349000D01*
X519003Y348000D02*
Y353998D01*
X522002Y350999D01*
X518003D01*
D16*
X538800Y353500D02*
X542200D01*
X538800Y348500D02*
X542200D01*
X528500Y321800D02*
Y325200D01*
X533500Y321800D02*
Y325200D01*
D17*
X532800Y347700D02*
Y354400D01*
Y347700D02*
X548100D01*
Y354400D01*
X532800D02*
X548100D01*
X534400Y316500D02*
Y330500D01*
X527700Y316500D02*
X534400D01*
X527700D02*
Y330500D01*
X534400D01*
M02*
