G04*
G04 #@! TF.GenerationSoftware,Altium Limited,Altium Designer,18.1.6 (161)*
G04*
G04 Layer_Color=8388736*
%FSLAX25Y25*%
%MOIN*%
G70*
G01*
G75*
%ADD24O,0.02965X0.08674*%
%ADD25R,0.10839X0.07099*%
%ADD26R,0.05800X0.06300*%
G04:AMPARAMS|DCode=27|XSize=224.53mil|YSize=232.41mil|CornerRadius=31.07mil|HoleSize=0mil|Usage=FLASHONLY|Rotation=0.000|XOffset=0mil|YOffset=0mil|HoleType=Round|Shape=RoundedRectangle|*
%AMROUNDEDRECTD27*
21,1,0.22453,0.17028,0,0,0.0*
21,1,0.16240,0.23241,0,0,0.0*
1,1,0.06213,0.08120,-0.08514*
1,1,0.06213,-0.08120,-0.08514*
1,1,0.06213,-0.08120,0.08514*
1,1,0.06213,0.08120,0.08514*
%
%ADD27ROUNDEDRECTD27*%
G04:AMPARAMS|DCode=28|XSize=47.37mil|YSize=86.74mil|CornerRadius=8.92mil|HoleSize=0mil|Usage=FLASHONLY|Rotation=0.000|XOffset=0mil|YOffset=0mil|HoleType=Round|Shape=RoundedRectangle|*
%AMROUNDEDRECTD28*
21,1,0.04737,0.06890,0,0,0.0*
21,1,0.02953,0.08674,0,0,0.0*
1,1,0.01784,0.01476,-0.03445*
1,1,0.01784,-0.01476,-0.03445*
1,1,0.01784,-0.01476,0.03445*
1,1,0.01784,0.01476,0.03445*
%
%ADD28ROUNDEDRECTD28*%
%ADD29O,0.08674X0.02965*%
%ADD30R,0.06800X0.06800*%
%ADD31C,0.06800*%
%ADD32O,0.07300X0.09800*%
%ADD33R,0.07300X0.09800*%
%ADD34R,0.07800X0.10800*%
%ADD35O,0.07800X0.10800*%
%ADD36O,0.08300X0.07300*%
%ADD37O,0.09800X0.07300*%
%ADD38R,0.09800X0.07300*%
%ADD39C,0.08300*%
%ADD40O,0.16800X0.10800*%
%ADD41O,0.10800X0.16800*%
%ADD42C,0.03556*%
D24*
X455000Y351870D02*
D03*
X460000D02*
D03*
X465000D02*
D03*
X470000D02*
D03*
X475000D02*
D03*
X480000D02*
D03*
X485000D02*
D03*
X490000D02*
D03*
X455000Y373130D02*
D03*
X460000D02*
D03*
X465000D02*
D03*
X470000D02*
D03*
X475000D02*
D03*
X480000D02*
D03*
X485000D02*
D03*
X490000D02*
D03*
X365000Y351870D02*
D03*
X370000D02*
D03*
X375000D02*
D03*
X380000D02*
D03*
X385000D02*
D03*
X390000D02*
D03*
X395000D02*
D03*
X400000D02*
D03*
X365000Y373130D02*
D03*
X370000D02*
D03*
X375000D02*
D03*
X380000D02*
D03*
X385000D02*
D03*
X390000D02*
D03*
X395000D02*
D03*
X400000D02*
D03*
X275000Y351740D02*
D03*
X280000D02*
D03*
X285000D02*
D03*
X290000D02*
D03*
X295000D02*
D03*
X300000D02*
D03*
X305000D02*
D03*
X310000D02*
D03*
X275000Y373000D02*
D03*
X280000D02*
D03*
X285000D02*
D03*
X290000D02*
D03*
X295000D02*
D03*
X300000D02*
D03*
X305000D02*
D03*
X310000D02*
D03*
X186000Y352740D02*
D03*
X191000D02*
D03*
X196000D02*
D03*
X201000D02*
D03*
X206000D02*
D03*
X211000D02*
D03*
X216000D02*
D03*
X221000D02*
D03*
X186000Y374000D02*
D03*
X191000D02*
D03*
X196000D02*
D03*
X201000D02*
D03*
X206000D02*
D03*
X211000D02*
D03*
X216000D02*
D03*
X221000D02*
D03*
X490500Y196130D02*
D03*
X485500D02*
D03*
X480500D02*
D03*
X475500D02*
D03*
X470500D02*
D03*
X465500D02*
D03*
X460500D02*
D03*
X455500D02*
D03*
X490500Y174870D02*
D03*
X485500D02*
D03*
X480500D02*
D03*
X475500D02*
D03*
X470500D02*
D03*
X465500D02*
D03*
X460500D02*
D03*
X455500D02*
D03*
X407000Y196000D02*
D03*
X402000D02*
D03*
X397000D02*
D03*
X392000D02*
D03*
X387000D02*
D03*
X382000D02*
D03*
X377000D02*
D03*
X372000D02*
D03*
X407000Y174740D02*
D03*
X402000D02*
D03*
X397000D02*
D03*
X392000D02*
D03*
X387000D02*
D03*
X382000D02*
D03*
X377000D02*
D03*
X372000D02*
D03*
X282000Y174870D02*
D03*
X287000D02*
D03*
X292000D02*
D03*
X297000D02*
D03*
X302000D02*
D03*
X307000D02*
D03*
X312000D02*
D03*
X317000D02*
D03*
X282000Y196130D02*
D03*
X287000D02*
D03*
X292000D02*
D03*
X297000D02*
D03*
X302000D02*
D03*
X307000D02*
D03*
X312000D02*
D03*
X317000D02*
D03*
X192000Y174870D02*
D03*
X197000D02*
D03*
X202000D02*
D03*
X207000D02*
D03*
X212000D02*
D03*
X217000D02*
D03*
X222000D02*
D03*
X227000D02*
D03*
X192000Y196130D02*
D03*
X197000D02*
D03*
X202000D02*
D03*
X207000D02*
D03*
X212000D02*
D03*
X217000D02*
D03*
X222000D02*
D03*
X227000D02*
D03*
D25*
X248890Y248500D02*
D03*
X235110D02*
D03*
D26*
X228500Y323500D02*
D03*
X237500D02*
D03*
D27*
X238000Y303067D02*
D03*
D28*
X246996Y273933D02*
D03*
X229004Y273933D02*
D03*
D29*
X534630Y254000D02*
D03*
Y259000D02*
D03*
Y264000D02*
D03*
Y269000D02*
D03*
Y274000D02*
D03*
Y279000D02*
D03*
Y284000D02*
D03*
Y289000D02*
D03*
X513370Y254000D02*
D03*
Y259000D02*
D03*
Y264000D02*
D03*
Y269000D02*
D03*
Y274000D02*
D03*
Y279000D02*
D03*
Y284000D02*
D03*
Y289000D02*
D03*
D30*
X288000Y243200D02*
D03*
D31*
X298000D02*
D03*
X308000D02*
D03*
X318000D02*
D03*
X328000D02*
D03*
X338000D02*
D03*
X348000D02*
D03*
X358000D02*
D03*
X368000D02*
D03*
X378000D02*
D03*
X388000D02*
D03*
X398000D02*
D03*
X408000D02*
D03*
X418000D02*
D03*
X428000D02*
D03*
X438000D02*
D03*
X448000D02*
D03*
X458000D02*
D03*
X468000D02*
D03*
X478000D02*
D03*
Y303200D02*
D03*
X468000D02*
D03*
X458000D02*
D03*
X448000D02*
D03*
X438000D02*
D03*
X428000D02*
D03*
X418000D02*
D03*
X408000D02*
D03*
X398000D02*
D03*
X388000D02*
D03*
X378000D02*
D03*
X368000D02*
D03*
X358000D02*
D03*
X348000D02*
D03*
X338000D02*
D03*
X328000D02*
D03*
X318000D02*
D03*
X308000D02*
D03*
X298000D02*
D03*
X288000D02*
D03*
D32*
X501000Y394000D02*
D03*
X481000D02*
D03*
X451000D02*
D03*
X461000D02*
D03*
X471000D02*
D03*
X491000D02*
D03*
X511000D02*
D03*
X411000D02*
D03*
X391000D02*
D03*
X361000D02*
D03*
X371000D02*
D03*
X381000D02*
D03*
X401000D02*
D03*
X421000D02*
D03*
X321000D02*
D03*
X301000D02*
D03*
X271000D02*
D03*
X281000D02*
D03*
X291000D02*
D03*
X311000D02*
D03*
X331000D02*
D03*
X231000D02*
D03*
X211000D02*
D03*
X181000D02*
D03*
X191000D02*
D03*
X201000D02*
D03*
X221000D02*
D03*
X241000D02*
D03*
X170500Y155000D02*
D03*
X190500D02*
D03*
X210500D02*
D03*
X220500D02*
D03*
X230500D02*
D03*
X200500D02*
D03*
X180500D02*
D03*
X260500D02*
D03*
X280500D02*
D03*
X300500D02*
D03*
X310500D02*
D03*
X320500D02*
D03*
X290500D02*
D03*
X270500D02*
D03*
X350500D02*
D03*
X370500D02*
D03*
X390500D02*
D03*
X400500D02*
D03*
X410500D02*
D03*
X380500D02*
D03*
X360500D02*
D03*
X440500D02*
D03*
X460500D02*
D03*
X480500D02*
D03*
X490500D02*
D03*
X500500D02*
D03*
X470500D02*
D03*
X450500D02*
D03*
D33*
X441000Y394000D02*
D03*
X351000D02*
D03*
X261000D02*
D03*
X171000D02*
D03*
X240500Y155000D02*
D03*
X330500D02*
D03*
X420500D02*
D03*
X510500D02*
D03*
D34*
X188500Y260500D02*
D03*
D35*
X173500D02*
D03*
D36*
X192000Y218100D02*
D03*
Y228200D02*
D03*
Y238000D02*
D03*
D37*
X551000Y229000D02*
D03*
Y249000D02*
D03*
Y269000D02*
D03*
Y279000D02*
D03*
Y289000D02*
D03*
Y259000D02*
D03*
Y239000D02*
D03*
D38*
Y299000D02*
D03*
D39*
X530700Y338200D02*
D03*
X550200Y362700D02*
D03*
X531000Y363000D02*
D03*
X549800Y337600D02*
D03*
D40*
X198000Y286000D02*
D03*
D41*
X183000Y306000D02*
D03*
X208000D02*
D03*
D42*
X390000Y359600D02*
D03*
X284900Y344700D02*
D03*
X320400Y331300D02*
D03*
Y345600D02*
D03*
X372100Y215100D02*
D03*
X402000Y215000D02*
D03*
X392000Y208000D02*
D03*
X382000Y203000D02*
D03*
X342500Y360000D02*
D03*
X290000Y340200D02*
D03*
X222000Y187000D02*
D03*
X275000Y344000D02*
D03*
X228571Y352740D02*
D03*
X413500Y373000D02*
D03*
X318000Y360000D02*
D03*
X407500Y352000D02*
D03*
X455500Y343000D02*
D03*
X485500Y211500D02*
D03*
X486000Y284000D02*
D03*
X485500Y267000D02*
D03*
X513370Y219000D02*
D03*
X201000Y346000D02*
D03*
X211000Y360000D02*
D03*
X196000Y362500D02*
D03*
X368000Y314000D02*
D03*
X397500Y338500D02*
D03*
X438000Y287500D02*
D03*
X506500Y360000D02*
D03*
Y306000D02*
D03*
X506000Y198500D02*
D03*
X506500Y244500D02*
D03*
X501500Y264000D02*
D03*
X470000Y344000D02*
D03*
X475500D02*
D03*
X397500Y327500D02*
D03*
X476000Y186000D02*
D03*
X207500Y204500D02*
D03*
X215500Y273500D02*
D03*
X213000Y187500D02*
D03*
X186000Y361000D02*
D03*
X283000Y188500D02*
D03*
X292000Y188000D02*
D03*
X307500Y204667D02*
D03*
X391000Y187500D02*
D03*
X399000D02*
D03*
X184000Y195500D02*
D03*
X465500Y204000D02*
D03*
X455000Y359500D02*
D03*
X480000Y364000D02*
D03*
X521000Y339000D02*
D03*
X544250Y329500D02*
D03*
X521000Y279000D02*
D03*
X485000Y188000D02*
D03*
X490500Y203500D02*
D03*
X460500Y188500D02*
D03*
X440000Y164000D02*
D03*
X302000Y187500D02*
D03*
X260000Y165000D02*
D03*
X233000Y196000D02*
D03*
X465000Y339000D02*
D03*
X365000Y360500D02*
D03*
X380000Y339000D02*
D03*
X375000Y344000D02*
D03*
X284000Y360500D02*
D03*
X300000D02*
D03*
M02*
