M48
;Layer_Color=9474304
;FILE_FORMAT=2:5
INCH,LZ
;TYPE=PLATED
T1F00S00C0.01575
T2F00S00C0.03000
T3F00S00C0.03100
T4F00S00C0.03200
T5F00S00C0.03600
T6F00S00C0.04200
%
T01
X0476Y0186
X0485Y0188
X04905Y02035
X04855Y02115
X0506Y01985
X051337Y0219
X05065Y02445
X05015Y0264
X04855Y0267
X0486Y0284
X0521Y0279
X05065Y0306
X0438Y02875
X0402Y0215
X0392Y0208
X0382Y0203
X03721Y02151
X0391Y01875
X0399
X04605Y01885
X04655Y0204
X044Y0164
X0302Y01875
X0292Y0188
X0283Y01885
X03075Y0204667
X0233Y0196
X0222Y0187
X0213Y01875
X02075Y02045
X0184Y01955
X026Y0165
X02155Y02735
X0201Y0346
X0196Y03625
X0186Y0361
X0211Y036
X0228571Y035274
X0275Y0344
X02849Y03447
X029Y03402
X0284Y03605
X03
X0318Y036
X03204Y03456
Y03313
X03425Y036
X0365Y03605
X039Y03596
X04075Y0352
X03975Y03385
Y03275
X038Y0339
X0375Y0344
X0368Y0314
X04135Y0373
X0455Y03595
X04555Y0343
X0465Y0339
X047Y0344
X04755
X048Y0364
X05065Y036
X0521Y0339
X054425Y03295
T02
X0478Y02432
Y03032
X0468
X0458
X0448
X0438
X0428
X0418
X0408
X0398
X0388
X0378
X0368
X0358
X0348
X0338
X0328
X0318
Y02432
X0328
X0338
X0348
X0358
X0368
X0378
X0388
X0398
X0408
X0418
X0428
X0438
X0448
X0458
X0468
X0308
X0298
X0288
Y03032
X0298
X0308
T03
X05307Y03382
X05498Y03376
X05502Y03627
X0531Y0363
T04
X01735Y02605
X01885
T05
X0192Y02181
Y02282
Y0238
T06
X01705Y0155
X01805
X01905
X02005
X02105
X02205
X02305
X02405
X02605
X02705
X02805
X02905
X03005
X03105
X03205
X03305
X03505
X03605
X03705
X03805
X03905
X04005
X04105
X04205
X04405
X04505
X04605
X04705
X04805
X04905
X05005
X05105
X0551Y0229
Y0239
Y0249
Y0259
Y0269
Y0279
Y0289
Y0299
X0311Y0394
X0301
X0291
X0281
X0271
X0261
X0241
X0231
X0221
X0211
X0201
X0191
X0181
X0171
X0321
X0331
X0351
X0361
X0371
X0381
X0391
X0401
X0411
X0421
X0441
X0451
X0461
X0471
X0481
X0491
X0501
X0511
M30
