G04*
G04 #@! TF.GenerationSoftware,Altium Limited,Altium Designer,18.1.6 (161)*
G04*
G04 Layer_Physical_Order=2*
G04 Layer_Color=16711680*
%FSLAX25Y25*%
%MOIN*%
G70*
G01*
G75*
%ADD20R,0.05000X0.05500*%
%ADD43C,0.02000*%
%ADD44C,0.05000*%
%ADD45C,0.02500*%
%ADD46R,0.06000X0.06000*%
%ADD47C,0.06000*%
%ADD48O,0.06500X0.09000*%
%ADD49R,0.06500X0.09000*%
%ADD50R,0.07000X0.10000*%
%ADD51O,0.07000X0.10000*%
%ADD52O,0.07500X0.06500*%
%ADD53O,0.09000X0.06500*%
%ADD54R,0.09000X0.06500*%
%ADD55C,0.07500*%
%ADD56O,0.16000X0.10000*%
%ADD57O,0.10000X0.16000*%
%ADD58C,0.02756*%
%ADD59R,0.05500X0.03937*%
G36*
X560197Y143803D02*
X145803D01*
X145803Y408197D01*
X560197D01*
Y143803D01*
D02*
G37*
%LPC*%
G36*
X445050Y399300D02*
X436950D01*
Y388700D01*
X445050D01*
Y399300D01*
D02*
G37*
G36*
X355050D02*
X346950D01*
Y388700D01*
X355050D01*
Y399300D01*
D02*
G37*
G36*
X265050D02*
X256950D01*
Y388700D01*
X265050D01*
Y399300D01*
D02*
G37*
G36*
X175050D02*
X166950D01*
Y388700D01*
X175050D01*
Y399300D01*
D02*
G37*
G36*
X511000Y399335D02*
X509943Y399196D01*
X508957Y398788D01*
X508111Y398138D01*
X507462Y397292D01*
X507054Y396307D01*
X506915Y395250D01*
Y392750D01*
X507054Y391693D01*
X507462Y390707D01*
X508111Y389861D01*
X508957Y389212D01*
X509943Y388804D01*
X511000Y388665D01*
X512057Y388804D01*
X513042Y389212D01*
X513889Y389861D01*
X514538Y390707D01*
X514946Y391693D01*
X515085Y392750D01*
Y395250D01*
X514946Y396307D01*
X514538Y397292D01*
X513889Y398138D01*
X513042Y398788D01*
X512057Y399196D01*
X511000Y399335D01*
D02*
G37*
G36*
X501000D02*
X499943Y399196D01*
X498957Y398788D01*
X498111Y398138D01*
X497462Y397292D01*
X497054Y396307D01*
X496915Y395250D01*
Y392750D01*
X497054Y391693D01*
X497462Y390707D01*
X498111Y389861D01*
X498957Y389212D01*
X499943Y388804D01*
X501000Y388665D01*
X502057Y388804D01*
X503043Y389212D01*
X503889Y389861D01*
X504538Y390707D01*
X504946Y391693D01*
X505085Y392750D01*
Y395250D01*
X504946Y396307D01*
X504538Y397292D01*
X503889Y398138D01*
X503043Y398788D01*
X502057Y399196D01*
X501000Y399335D01*
D02*
G37*
G36*
X491000D02*
X489943Y399196D01*
X488958Y398788D01*
X488111Y398138D01*
X487462Y397292D01*
X487054Y396307D01*
X486915Y395250D01*
Y392750D01*
X487054Y391693D01*
X487462Y390707D01*
X488111Y389861D01*
X488958Y389212D01*
X489943Y388804D01*
X491000Y388665D01*
X492057Y388804D01*
X493043Y389212D01*
X493889Y389861D01*
X494538Y390707D01*
X494946Y391693D01*
X495085Y392750D01*
Y395250D01*
X494946Y396307D01*
X494538Y397292D01*
X493889Y398138D01*
X493043Y398788D01*
X492057Y399196D01*
X491000Y399335D01*
D02*
G37*
G36*
X481000D02*
X479943Y399196D01*
X478958Y398788D01*
X478112Y398138D01*
X477462Y397292D01*
X477054Y396307D01*
X476915Y395250D01*
Y392750D01*
X477054Y391693D01*
X477462Y390707D01*
X478112Y389861D01*
X478958Y389212D01*
X479943Y388804D01*
X481000Y388665D01*
X482057Y388804D01*
X483042Y389212D01*
X483888Y389861D01*
X484538Y390707D01*
X484946Y391693D01*
X485085Y392750D01*
Y395250D01*
X484946Y396307D01*
X484538Y397292D01*
X483888Y398138D01*
X483042Y398788D01*
X482057Y399196D01*
X481000Y399335D01*
D02*
G37*
G36*
X471000D02*
X469943Y399196D01*
X468958Y398788D01*
X468112Y398138D01*
X467462Y397292D01*
X467054Y396307D01*
X466915Y395250D01*
Y392750D01*
X467054Y391693D01*
X467462Y390707D01*
X468112Y389861D01*
X468958Y389212D01*
X469943Y388804D01*
X471000Y388665D01*
X472057Y388804D01*
X473042Y389212D01*
X473888Y389861D01*
X474538Y390707D01*
X474946Y391693D01*
X475085Y392750D01*
Y395250D01*
X474946Y396307D01*
X474538Y397292D01*
X473888Y398138D01*
X473042Y398788D01*
X472057Y399196D01*
X471000Y399335D01*
D02*
G37*
G36*
X461000D02*
X459943Y399196D01*
X458957Y398788D01*
X458111Y398138D01*
X457462Y397292D01*
X457054Y396307D01*
X456915Y395250D01*
Y392750D01*
X457054Y391693D01*
X457462Y390707D01*
X458111Y389861D01*
X458957Y389212D01*
X459943Y388804D01*
X461000Y388665D01*
X462057Y388804D01*
X463042Y389212D01*
X463889Y389861D01*
X464538Y390707D01*
X464946Y391693D01*
X465085Y392750D01*
Y395250D01*
X464946Y396307D01*
X464538Y397292D01*
X463889Y398138D01*
X463042Y398788D01*
X462057Y399196D01*
X461000Y399335D01*
D02*
G37*
G36*
X451000D02*
X449943Y399196D01*
X448957Y398788D01*
X448111Y398138D01*
X447462Y397292D01*
X447054Y396307D01*
X446915Y395250D01*
Y392750D01*
X447054Y391693D01*
X447462Y390707D01*
X448111Y389861D01*
X448957Y389212D01*
X449943Y388804D01*
X451000Y388665D01*
X452057Y388804D01*
X453043Y389212D01*
X453889Y389861D01*
X454538Y390707D01*
X454946Y391693D01*
X455085Y392750D01*
Y395250D01*
X454946Y396307D01*
X454538Y397292D01*
X453889Y398138D01*
X453043Y398788D01*
X452057Y399196D01*
X451000Y399335D01*
D02*
G37*
G36*
X421000D02*
X419943Y399196D01*
X418958Y398788D01*
X418112Y398138D01*
X417462Y397292D01*
X417054Y396307D01*
X416915Y395250D01*
Y392750D01*
X417054Y391693D01*
X417462Y390707D01*
X418112Y389861D01*
X418958Y389212D01*
X419943Y388804D01*
X421000Y388665D01*
X422057Y388804D01*
X423042Y389212D01*
X423888Y389861D01*
X424538Y390707D01*
X424946Y391693D01*
X425085Y392750D01*
Y395250D01*
X424946Y396307D01*
X424538Y397292D01*
X423888Y398138D01*
X423042Y398788D01*
X422057Y399196D01*
X421000Y399335D01*
D02*
G37*
G36*
X411000D02*
X409943Y399196D01*
X408957Y398788D01*
X408111Y398138D01*
X407462Y397292D01*
X407054Y396307D01*
X406915Y395250D01*
Y392750D01*
X407054Y391693D01*
X407462Y390707D01*
X408111Y389861D01*
X408957Y389212D01*
X409943Y388804D01*
X411000Y388665D01*
X412057Y388804D01*
X413042Y389212D01*
X413889Y389861D01*
X414538Y390707D01*
X414946Y391693D01*
X415085Y392750D01*
Y395250D01*
X414946Y396307D01*
X414538Y397292D01*
X413889Y398138D01*
X413042Y398788D01*
X412057Y399196D01*
X411000Y399335D01*
D02*
G37*
G36*
X401000D02*
X399943Y399196D01*
X398957Y398788D01*
X398112Y398138D01*
X397462Y397292D01*
X397054Y396307D01*
X396915Y395250D01*
Y392750D01*
X397054Y391693D01*
X397462Y390707D01*
X398112Y389861D01*
X398957Y389212D01*
X399943Y388804D01*
X401000Y388665D01*
X402057Y388804D01*
X403043Y389212D01*
X403889Y389861D01*
X404538Y390707D01*
X404946Y391693D01*
X405085Y392750D01*
Y395250D01*
X404946Y396307D01*
X404538Y397292D01*
X403889Y398138D01*
X403043Y398788D01*
X402057Y399196D01*
X401000Y399335D01*
D02*
G37*
G36*
X391000D02*
X389943Y399196D01*
X388958Y398788D01*
X388111Y398138D01*
X387462Y397292D01*
X387054Y396307D01*
X386915Y395250D01*
Y392750D01*
X387054Y391693D01*
X387462Y390707D01*
X388111Y389861D01*
X388958Y389212D01*
X389943Y388804D01*
X391000Y388665D01*
X392057Y388804D01*
X393042Y389212D01*
X393888Y389861D01*
X394538Y390707D01*
X394946Y391693D01*
X395085Y392750D01*
Y395250D01*
X394946Y396307D01*
X394538Y397292D01*
X393888Y398138D01*
X393042Y398788D01*
X392057Y399196D01*
X391000Y399335D01*
D02*
G37*
G36*
X381000D02*
X379943Y399196D01*
X378958Y398788D01*
X378112Y398138D01*
X377462Y397292D01*
X377054Y396307D01*
X376915Y395250D01*
Y392750D01*
X377054Y391693D01*
X377462Y390707D01*
X378112Y389861D01*
X378958Y389212D01*
X379943Y388804D01*
X381000Y388665D01*
X382057Y388804D01*
X383043Y389212D01*
X383889Y389861D01*
X384538Y390707D01*
X384946Y391693D01*
X385085Y392750D01*
Y395250D01*
X384946Y396307D01*
X384538Y397292D01*
X383889Y398138D01*
X383043Y398788D01*
X382057Y399196D01*
X381000Y399335D01*
D02*
G37*
G36*
X371000D02*
X369943Y399196D01*
X368957Y398788D01*
X368111Y398138D01*
X367462Y397292D01*
X367054Y396307D01*
X366915Y395250D01*
Y392750D01*
X367054Y391693D01*
X367462Y390707D01*
X368111Y389861D01*
X368957Y389212D01*
X369943Y388804D01*
X371000Y388665D01*
X372057Y388804D01*
X373042Y389212D01*
X373888Y389861D01*
X374538Y390707D01*
X374946Y391693D01*
X375085Y392750D01*
Y395250D01*
X374946Y396307D01*
X374538Y397292D01*
X373888Y398138D01*
X373042Y398788D01*
X372057Y399196D01*
X371000Y399335D01*
D02*
G37*
G36*
X361000D02*
X359943Y399196D01*
X358958Y398788D01*
X358112Y398138D01*
X357462Y397292D01*
X357054Y396307D01*
X356915Y395250D01*
Y392750D01*
X357054Y391693D01*
X357462Y390707D01*
X358112Y389861D01*
X358958Y389212D01*
X359943Y388804D01*
X361000Y388665D01*
X362057Y388804D01*
X363042Y389212D01*
X363889Y389861D01*
X364538Y390707D01*
X364946Y391693D01*
X365085Y392750D01*
Y395250D01*
X364946Y396307D01*
X364538Y397292D01*
X363889Y398138D01*
X363042Y398788D01*
X362057Y399196D01*
X361000Y399335D01*
D02*
G37*
G36*
X331000D02*
X329943Y399196D01*
X328958Y398788D01*
X328112Y398138D01*
X327462Y397292D01*
X327054Y396307D01*
X326915Y395250D01*
Y392750D01*
X327054Y391693D01*
X327462Y390707D01*
X328112Y389861D01*
X328958Y389212D01*
X329943Y388804D01*
X331000Y388665D01*
X332057Y388804D01*
X333043Y389212D01*
X333889Y389861D01*
X334538Y390707D01*
X334946Y391693D01*
X335085Y392750D01*
Y395250D01*
X334946Y396307D01*
X334538Y397292D01*
X333889Y398138D01*
X333043Y398788D01*
X332057Y399196D01*
X331000Y399335D01*
D02*
G37*
G36*
X321000D02*
X319943Y399196D01*
X318957Y398788D01*
X318111Y398138D01*
X317462Y397292D01*
X317054Y396307D01*
X316915Y395250D01*
Y392750D01*
X317054Y391693D01*
X317462Y390707D01*
X318111Y389861D01*
X318957Y389212D01*
X319943Y388804D01*
X321000Y388665D01*
X322057Y388804D01*
X323042Y389212D01*
X323888Y389861D01*
X324538Y390707D01*
X324946Y391693D01*
X325085Y392750D01*
Y395250D01*
X324946Y396307D01*
X324538Y397292D01*
X323888Y398138D01*
X323042Y398788D01*
X322057Y399196D01*
X321000Y399335D01*
D02*
G37*
G36*
X311000D02*
X309943Y399196D01*
X308958Y398788D01*
X308112Y398138D01*
X307462Y397292D01*
X307054Y396307D01*
X306915Y395250D01*
Y392750D01*
X307054Y391693D01*
X307462Y390707D01*
X308112Y389861D01*
X308958Y389212D01*
X309943Y388804D01*
X311000Y388665D01*
X312057Y388804D01*
X313042Y389212D01*
X313889Y389861D01*
X314538Y390707D01*
X314946Y391693D01*
X315085Y392750D01*
Y395250D01*
X314946Y396307D01*
X314538Y397292D01*
X313889Y398138D01*
X313042Y398788D01*
X312057Y399196D01*
X311000Y399335D01*
D02*
G37*
G36*
X301000D02*
X299943Y399196D01*
X298957Y398788D01*
X298112Y398138D01*
X297462Y397292D01*
X297054Y396307D01*
X296915Y395250D01*
Y392750D01*
X297054Y391693D01*
X297462Y390707D01*
X298112Y389861D01*
X298957Y389212D01*
X299943Y388804D01*
X301000Y388665D01*
X302057Y388804D01*
X303043Y389212D01*
X303889Y389861D01*
X304538Y390707D01*
X304946Y391693D01*
X305085Y392750D01*
Y395250D01*
X304946Y396307D01*
X304538Y397292D01*
X303889Y398138D01*
X303043Y398788D01*
X302057Y399196D01*
X301000Y399335D01*
D02*
G37*
G36*
X291000D02*
X289943Y399196D01*
X288958Y398788D01*
X288111Y398138D01*
X287462Y397292D01*
X287054Y396307D01*
X286915Y395250D01*
Y392750D01*
X287054Y391693D01*
X287462Y390707D01*
X288111Y389861D01*
X288958Y389212D01*
X289943Y388804D01*
X291000Y388665D01*
X292057Y388804D01*
X293042Y389212D01*
X293888Y389861D01*
X294538Y390707D01*
X294946Y391693D01*
X295085Y392750D01*
Y395250D01*
X294946Y396307D01*
X294538Y397292D01*
X293888Y398138D01*
X293042Y398788D01*
X292057Y399196D01*
X291000Y399335D01*
D02*
G37*
G36*
X281000D02*
X279943Y399196D01*
X278958Y398788D01*
X278112Y398138D01*
X277462Y397292D01*
X277054Y396307D01*
X276915Y395250D01*
Y392750D01*
X277054Y391693D01*
X277462Y390707D01*
X278112Y389861D01*
X278958Y389212D01*
X279943Y388804D01*
X281000Y388665D01*
X282057Y388804D01*
X283043Y389212D01*
X283889Y389861D01*
X284538Y390707D01*
X284946Y391693D01*
X285085Y392750D01*
Y395250D01*
X284946Y396307D01*
X284538Y397292D01*
X283889Y398138D01*
X283043Y398788D01*
X282057Y399196D01*
X281000Y399335D01*
D02*
G37*
G36*
X271000D02*
X269943Y399196D01*
X268957Y398788D01*
X268111Y398138D01*
X267462Y397292D01*
X267054Y396307D01*
X266915Y395250D01*
Y392750D01*
X267054Y391693D01*
X267462Y390707D01*
X268111Y389861D01*
X268957Y389212D01*
X269943Y388804D01*
X271000Y388665D01*
X272057Y388804D01*
X273042Y389212D01*
X273888Y389861D01*
X274538Y390707D01*
X274946Y391693D01*
X275085Y392750D01*
Y395250D01*
X274946Y396307D01*
X274538Y397292D01*
X273888Y398138D01*
X273042Y398788D01*
X272057Y399196D01*
X271000Y399335D01*
D02*
G37*
G36*
X241000D02*
X239943Y399196D01*
X238958Y398788D01*
X238111Y398138D01*
X237462Y397292D01*
X237054Y396307D01*
X236915Y395250D01*
Y392750D01*
X237054Y391693D01*
X237462Y390707D01*
X238111Y389861D01*
X238958Y389212D01*
X239943Y388804D01*
X241000Y388665D01*
X242057Y388804D01*
X243042Y389212D01*
X243888Y389861D01*
X244538Y390707D01*
X244946Y391693D01*
X245085Y392750D01*
Y395250D01*
X244946Y396307D01*
X244538Y397292D01*
X243888Y398138D01*
X243042Y398788D01*
X242057Y399196D01*
X241000Y399335D01*
D02*
G37*
G36*
X231000D02*
X229943Y399196D01*
X228958Y398788D01*
X228112Y398138D01*
X227462Y397292D01*
X227054Y396307D01*
X226915Y395250D01*
Y392750D01*
X227054Y391693D01*
X227462Y390707D01*
X228112Y389861D01*
X228958Y389212D01*
X229943Y388804D01*
X231000Y388665D01*
X232057Y388804D01*
X233043Y389212D01*
X233889Y389861D01*
X234538Y390707D01*
X234946Y391693D01*
X235085Y392750D01*
Y395250D01*
X234946Y396307D01*
X234538Y397292D01*
X233889Y398138D01*
X233043Y398788D01*
X232057Y399196D01*
X231000Y399335D01*
D02*
G37*
G36*
X221000D02*
X219943Y399196D01*
X218957Y398788D01*
X218111Y398138D01*
X217462Y397292D01*
X217054Y396307D01*
X216915Y395250D01*
Y392750D01*
X217054Y391693D01*
X217462Y390707D01*
X218111Y389861D01*
X218957Y389212D01*
X219943Y388804D01*
X221000Y388665D01*
X222057Y388804D01*
X223042Y389212D01*
X223888Y389861D01*
X224538Y390707D01*
X224946Y391693D01*
X225085Y392750D01*
Y395250D01*
X224946Y396307D01*
X224538Y397292D01*
X223888Y398138D01*
X223042Y398788D01*
X222057Y399196D01*
X221000Y399335D01*
D02*
G37*
G36*
X211000D02*
X209943Y399196D01*
X208958Y398788D01*
X208112Y398138D01*
X207462Y397292D01*
X207054Y396307D01*
X206915Y395250D01*
Y392750D01*
X207054Y391693D01*
X207462Y390707D01*
X208112Y389861D01*
X208958Y389212D01*
X209943Y388804D01*
X211000Y388665D01*
X212057Y388804D01*
X213042Y389212D01*
X213889Y389861D01*
X214538Y390707D01*
X214946Y391693D01*
X215085Y392750D01*
Y395250D01*
X214946Y396307D01*
X214538Y397292D01*
X213889Y398138D01*
X213042Y398788D01*
X212057Y399196D01*
X211000Y399335D01*
D02*
G37*
G36*
X201000D02*
X199943Y399196D01*
X198958Y398788D01*
X198111Y398138D01*
X197462Y397292D01*
X197054Y396307D01*
X196915Y395250D01*
Y392750D01*
X197054Y391693D01*
X197462Y390707D01*
X198111Y389861D01*
X198958Y389212D01*
X199943Y388804D01*
X201000Y388665D01*
X202057Y388804D01*
X203043Y389212D01*
X203889Y389861D01*
X204538Y390707D01*
X204946Y391693D01*
X205085Y392750D01*
Y395250D01*
X204946Y396307D01*
X204538Y397292D01*
X203889Y398138D01*
X203043Y398788D01*
X202057Y399196D01*
X201000Y399335D01*
D02*
G37*
G36*
X191000D02*
X189943Y399196D01*
X188958Y398788D01*
X188111Y398138D01*
X187462Y397292D01*
X187054Y396307D01*
X186915Y395250D01*
Y392750D01*
X187054Y391693D01*
X187462Y390707D01*
X188111Y389861D01*
X188958Y389212D01*
X189943Y388804D01*
X191000Y388665D01*
X192057Y388804D01*
X193043Y389212D01*
X193888Y389861D01*
X194538Y390707D01*
X194946Y391693D01*
X195085Y392750D01*
Y395250D01*
X194946Y396307D01*
X194538Y397292D01*
X193888Y398138D01*
X193043Y398788D01*
X192057Y399196D01*
X191000Y399335D01*
D02*
G37*
G36*
X181000D02*
X179943Y399196D01*
X178957Y398788D01*
X178112Y398138D01*
X177462Y397292D01*
X177054Y396307D01*
X176915Y395250D01*
Y392750D01*
X177054Y391693D01*
X177462Y390707D01*
X178112Y389861D01*
X178957Y389212D01*
X179943Y388804D01*
X181000Y388665D01*
X182057Y388804D01*
X183043Y389212D01*
X183888Y389861D01*
X184538Y390707D01*
X184946Y391693D01*
X185085Y392750D01*
Y395250D01*
X184946Y396307D01*
X184538Y397292D01*
X183888Y398138D01*
X183043Y398788D01*
X182057Y399196D01*
X181000Y399335D01*
D02*
G37*
G36*
X413500Y379335D02*
X344000D01*
X343298Y379196D01*
X342702Y378798D01*
X341202Y377298D01*
X340804Y376702D01*
X340665Y376000D01*
Y361835D01*
X319174D01*
X318850Y362052D01*
X318000Y362221D01*
X317150Y362052D01*
X316430Y361570D01*
X315948Y360850D01*
X315779Y360000D01*
X315948Y359150D01*
X316430Y358430D01*
X317150Y357948D01*
X317719Y357835D01*
X317670Y357335D01*
X285835D01*
Y359327D01*
X286052Y359650D01*
X286221Y360500D01*
X286052Y361350D01*
X285570Y362070D01*
X284850Y362552D01*
X284000Y362721D01*
X283150Y362552D01*
X282430Y362070D01*
X281948Y361350D01*
X281779Y360500D01*
X281948Y359650D01*
X282165Y359327D01*
Y356062D01*
X282304Y355360D01*
X282702Y354765D01*
X283264Y354202D01*
X283860Y353804D01*
X284562Y353665D01*
X388000D01*
X388702Y353804D01*
X389298Y354202D01*
X391298Y356202D01*
X391696Y356798D01*
X391835Y357500D01*
Y358426D01*
X392052Y358750D01*
X392221Y359600D01*
X392052Y360450D01*
X391570Y361170D01*
X390850Y361652D01*
X390000Y361821D01*
X389150Y361652D01*
X388430Y361170D01*
X387948Y360450D01*
X387779Y359600D01*
X387948Y358750D01*
X388165Y358426D01*
Y358260D01*
X387240Y357335D01*
X342830D01*
X342781Y357835D01*
X343350Y357948D01*
X344070Y358430D01*
X344552Y359150D01*
X344721Y360000D01*
X344552Y360850D01*
X344335Y361174D01*
Y375240D01*
X344760Y375665D01*
X411665D01*
Y374173D01*
X411448Y373850D01*
X411279Y373000D01*
X411448Y372150D01*
X411930Y371430D01*
X412650Y370948D01*
X413500Y370779D01*
X414350Y370948D01*
X415070Y371430D01*
X415552Y372150D01*
X415721Y373000D01*
X415552Y373850D01*
X415335Y374173D01*
Y377500D01*
X415196Y378202D01*
X414798Y378798D01*
X414202Y379196D01*
X413500Y379335D01*
D02*
G37*
G36*
X551200Y367359D02*
Y363700D01*
X554859D01*
X554828Y363940D01*
X554349Y365095D01*
X553588Y366088D01*
X552596Y366849D01*
X551440Y367328D01*
X551200Y367359D01*
D02*
G37*
G36*
X299000Y370835D02*
X187000D01*
X186298Y370696D01*
X185702Y370298D01*
X184702Y369298D01*
X184304Y368702D01*
X184165Y368000D01*
Y362174D01*
X183948Y361850D01*
X183779Y361000D01*
X183948Y360150D01*
X184430Y359430D01*
X185150Y358948D01*
X186000Y358779D01*
X186850Y358948D01*
X187570Y359430D01*
X188052Y360150D01*
X188221Y361000D01*
X188052Y361850D01*
X187835Y362174D01*
Y367165D01*
X195381D01*
X195569Y366665D01*
X194702Y365798D01*
X194304Y365202D01*
X194165Y364500D01*
Y363673D01*
X193948Y363350D01*
X193779Y362500D01*
X193948Y361650D01*
X194430Y360930D01*
X195150Y360448D01*
X195981Y360283D01*
X196037Y360200D01*
X196217Y359813D01*
X195702Y359298D01*
X195304Y358702D01*
X195165Y358000D01*
Y343300D01*
X195304Y342598D01*
X195702Y342002D01*
X220165Y317540D01*
Y314000D01*
X220304Y313298D01*
X220702Y312702D01*
X221298Y312304D01*
X222000Y312165D01*
X366827D01*
X367150Y311948D01*
X368000Y311779D01*
X368850Y311948D01*
X369570Y312430D01*
X370052Y313150D01*
X370221Y314000D01*
X370052Y314850D01*
X369570Y315570D01*
X369730Y316065D01*
X379000D01*
X379702Y316204D01*
X380298Y316602D01*
X381298Y317602D01*
X381696Y318198D01*
X381835Y318900D01*
Y337826D01*
X382052Y338150D01*
X382221Y339000D01*
X382052Y339850D01*
X381570Y340570D01*
X380850Y341052D01*
X380000Y341221D01*
X379150Y341052D01*
X378430Y340570D01*
X377948Y339850D01*
X377779Y339000D01*
X377948Y338150D01*
X378165Y337826D01*
Y319735D01*
X292260D01*
X291835Y320160D01*
Y322081D01*
X292335Y322269D01*
X293602Y321002D01*
X294198Y320604D01*
X294900Y320465D01*
X373700D01*
X374402Y320604D01*
X374998Y321002D01*
X376298Y322302D01*
X376696Y322898D01*
X376835Y323600D01*
Y342827D01*
X376928Y342965D01*
X385940D01*
X386165Y342740D01*
Y334000D01*
Y306553D01*
X386084Y306519D01*
X385290Y305910D01*
X384681Y305116D01*
X384298Y304192D01*
X384167Y303200D01*
X384298Y302208D01*
X384681Y301284D01*
X385290Y300490D01*
X386084Y299881D01*
X387008Y299498D01*
X388000Y299367D01*
X388992Y299498D01*
X389916Y299881D01*
X390710Y300490D01*
X391319Y301284D01*
X391702Y302208D01*
X391833Y303200D01*
X391702Y304192D01*
X391319Y305116D01*
X390710Y305910D01*
X389916Y306519D01*
X389835Y306553D01*
Y332165D01*
X460000Y332165D01*
X460702Y332304D01*
X461298Y332702D01*
X465468Y336872D01*
X465850Y336948D01*
X466174Y337165D01*
X519827D01*
X520150Y336948D01*
X521000Y336779D01*
X521850Y336948D01*
X522570Y337430D01*
X523052Y338150D01*
X523221Y339000D01*
X523052Y339850D01*
X522570Y340570D01*
X521850Y341052D01*
X521000Y341221D01*
X520150Y341052D01*
X519827Y340835D01*
X466174D01*
X465850Y341052D01*
X465000Y341221D01*
X464150Y341052D01*
X463430Y340570D01*
X462948Y339850D01*
X462873Y339468D01*
X459240Y335835D01*
X397830Y335835D01*
X397781Y336335D01*
X398350Y336448D01*
X398674Y336665D01*
X458000D01*
X458702Y336804D01*
X459298Y337202D01*
X464260Y342165D01*
X468826D01*
X469150Y341948D01*
X470000Y341779D01*
X470850Y341948D01*
X471570Y342430D01*
X472052Y343150D01*
X472221Y344000D01*
X472052Y344850D01*
X471570Y345570D01*
X470850Y346052D01*
X470000Y346221D01*
X469150Y346052D01*
X468826Y345835D01*
X463500D01*
X462798Y345696D01*
X462202Y345298D01*
X457240Y340335D01*
X455830D01*
X455781Y340835D01*
X456350Y340948D01*
X457070Y341430D01*
X457552Y342150D01*
X457721Y343000D01*
X457552Y343850D01*
X457070Y344570D01*
X456350Y345052D01*
X455500Y345221D01*
X454650Y345052D01*
X454326Y344835D01*
X451760D01*
X451335Y345260D01*
Y350000D01*
X451196Y350702D01*
X450798Y351298D01*
X448798Y353298D01*
X448202Y353696D01*
X447500Y353835D01*
X408673D01*
X408350Y354052D01*
X407500Y354221D01*
X406650Y354052D01*
X405930Y353570D01*
X405448Y352850D01*
X405279Y352000D01*
X405448Y351150D01*
X405930Y350430D01*
X406650Y349948D01*
X407500Y349779D01*
X408350Y349948D01*
X408673Y350165D01*
X446740D01*
X447665Y349240D01*
Y344500D01*
X447804Y343798D01*
X448202Y343202D01*
X449702Y341702D01*
X450298Y341304D01*
X451000Y341165D01*
X454326D01*
X454650Y340948D01*
X455219Y340835D01*
X455170Y340335D01*
X398674D01*
X398350Y340552D01*
X397500Y340721D01*
X396650Y340552D01*
X395930Y340070D01*
X395448Y339350D01*
X395279Y338500D01*
X395448Y337650D01*
X395930Y336930D01*
X396650Y336448D01*
X397219Y336335D01*
X397170Y335835D01*
X389835D01*
Y343500D01*
X389696Y344202D01*
X389298Y344798D01*
X387998Y346098D01*
X387402Y346496D01*
X386700Y346635D01*
X375800D01*
X375098Y346496D01*
X374553Y346132D01*
X374150Y346052D01*
X373430Y345570D01*
X372948Y344850D01*
X372779Y344000D01*
X372948Y343150D01*
X373165Y342827D01*
Y324360D01*
X372940Y324135D01*
X295660D01*
X295335Y324460D01*
Y342800D01*
X295196Y343502D01*
X294798Y344098D01*
X292898Y345998D01*
X292302Y346396D01*
X291600Y346535D01*
X286073D01*
X285750Y346752D01*
X284900Y346921D01*
X284295Y346800D01*
X280585Y350510D01*
Y364750D01*
X280446Y365452D01*
X280048Y366048D01*
X279431Y366665D01*
X279619Y367165D01*
X298165D01*
Y361673D01*
X297948Y361350D01*
X297779Y360500D01*
X297948Y359650D01*
X298430Y358930D01*
X299150Y358448D01*
X300000Y358279D01*
X300850Y358448D01*
X301570Y358930D01*
X302052Y359650D01*
X302221Y360500D01*
X302052Y361350D01*
X301835Y361673D01*
Y368000D01*
X301696Y368702D01*
X301298Y369298D01*
X300298Y370298D01*
X299702Y370696D01*
X299586Y370719D01*
X299000Y370835D01*
D02*
G37*
G36*
X554859Y361700D02*
X551200D01*
Y358041D01*
X551440Y358072D01*
X552596Y358551D01*
X553588Y359312D01*
X554349Y360304D01*
X554828Y361460D01*
X554859Y361700D01*
D02*
G37*
G36*
X542600Y370835D02*
X523000D01*
X522298Y370696D01*
X521702Y370298D01*
X520202Y368798D01*
X519804Y368202D01*
X519665Y367500D01*
Y346760D01*
X518740Y345835D01*
X475500D01*
X474798Y345696D01*
X474202Y345298D01*
X473804Y344702D01*
X473665Y344000D01*
X473804Y343298D01*
X474202Y342702D01*
X474798Y342304D01*
X475500Y342165D01*
X519500D01*
X520202Y342304D01*
X520798Y342702D01*
X522798Y344702D01*
X523196Y345298D01*
X523335Y346000D01*
Y366740D01*
X523760Y367165D01*
X528132D01*
X528302Y366665D01*
X527755Y366245D01*
X527026Y365295D01*
X526567Y364188D01*
X526411Y363000D01*
X526567Y361812D01*
X527026Y360705D01*
X527755Y359755D01*
X528705Y359026D01*
X529812Y358567D01*
X531000Y358411D01*
X532188Y358567D01*
X533295Y359026D01*
X534245Y359755D01*
X534974Y360705D01*
X535433Y361812D01*
X535589Y363000D01*
X535433Y364188D01*
X534974Y365295D01*
X534245Y366245D01*
X533698Y366665D01*
X533868Y367165D01*
X541840D01*
X543165Y365840D01*
Y362900D01*
Y354750D01*
X541500D01*
Y352000D01*
X548500D01*
Y354750D01*
X546835D01*
Y358729D01*
X547284Y358950D01*
X547804Y358551D01*
X548960Y358072D01*
X549200Y358041D01*
Y362700D01*
Y367359D01*
X548960Y367328D01*
X547804Y366849D01*
X547275Y366443D01*
X546812Y366718D01*
X546696Y367302D01*
X546298Y367898D01*
X543898Y370298D01*
X543302Y370696D01*
X543186Y370719D01*
X542600Y370835D01*
D02*
G37*
G36*
X478900Y369435D02*
X368600D01*
X367898Y369296D01*
X367302Y368898D01*
X363702Y365298D01*
X363304Y364702D01*
X363165Y364000D01*
Y361673D01*
X362948Y361350D01*
X362779Y360500D01*
X362948Y359650D01*
X363430Y358930D01*
X364150Y358448D01*
X365000Y358279D01*
X365850Y358448D01*
X366570Y358930D01*
X367052Y359650D01*
X367221Y360500D01*
X367052Y361350D01*
X366835Y361673D01*
Y363240D01*
X369360Y365765D01*
X478140D01*
X478165Y365740D01*
Y365174D01*
X477948Y364850D01*
X477779Y364000D01*
X477948Y363150D01*
X478430Y362430D01*
X478571Y362335D01*
X478420Y361835D01*
X455500D01*
X454798Y361696D01*
X454765Y361674D01*
X454150Y361552D01*
X453430Y361070D01*
X452948Y360350D01*
X452779Y359500D01*
X452948Y358650D01*
X453430Y357930D01*
X454150Y357448D01*
X455000Y357279D01*
X455850Y357448D01*
X456570Y357930D01*
X456727Y358165D01*
X505327D01*
X505650Y357948D01*
X506500Y357779D01*
X507350Y357948D01*
X508070Y358430D01*
X508552Y359150D01*
X508721Y360000D01*
X508552Y360850D01*
X508070Y361570D01*
X507350Y362052D01*
X506500Y362221D01*
X505650Y362052D01*
X505327Y361835D01*
X481580D01*
X481429Y362335D01*
X481570Y362430D01*
X482052Y363150D01*
X482221Y364000D01*
X482052Y364850D01*
X481835Y365174D01*
Y366500D01*
X481696Y367202D01*
X481298Y367798D01*
X480198Y368898D01*
X479602Y369296D01*
X479486Y369319D01*
X478900Y369435D01*
D02*
G37*
G36*
X539300Y354550D02*
X532700D01*
Y347450D01*
X534165D01*
Y344260D01*
X532347Y342443D01*
X531888Y342633D01*
X530700Y342789D01*
X529512Y342633D01*
X528405Y342174D01*
X527455Y341445D01*
X526726Y340495D01*
X526267Y339388D01*
X526111Y338200D01*
X526267Y337012D01*
X526726Y335905D01*
X527455Y334955D01*
X528405Y334226D01*
X528865Y334035D01*
Y330769D01*
X527450D01*
Y329835D01*
X440000D01*
X439298Y329696D01*
X438702Y329298D01*
X436702Y327298D01*
X436304Y326702D01*
X436165Y326000D01*
Y306553D01*
X436084Y306519D01*
X435335Y305945D01*
X434966Y306020D01*
X434835Y306065D01*
Y325000D01*
X434696Y325702D01*
X434298Y326298D01*
X431798Y328798D01*
X431202Y329196D01*
X430500Y329335D01*
X398674D01*
X398350Y329552D01*
X397500Y329721D01*
X396650Y329552D01*
X395930Y329070D01*
X395448Y328350D01*
X395279Y327500D01*
X395448Y326650D01*
X395930Y325930D01*
X396650Y325448D01*
X397500Y325279D01*
X398350Y325448D01*
X398674Y325665D01*
X429740D01*
X431165Y324240D01*
Y306065D01*
X431035Y306020D01*
X430665Y305945D01*
X429916Y306519D01*
X428992Y306902D01*
X428000Y307033D01*
X427008Y306902D01*
X426084Y306519D01*
X425290Y305910D01*
X424681Y305116D01*
X424298Y304192D01*
X424167Y303200D01*
X424298Y302208D01*
X424681Y301284D01*
X425290Y300490D01*
X426084Y299881D01*
X427008Y299498D01*
X428000Y299367D01*
X428992Y299498D01*
X429916Y299881D01*
X430665Y300455D01*
X431035Y300380D01*
X431165Y300336D01*
Y256000D01*
X431304Y255298D01*
X431702Y254702D01*
X436702Y249702D01*
X437298Y249304D01*
X438000Y249165D01*
X468240D01*
X470901Y246503D01*
X470874Y246414D01*
X470296Y246228D01*
X469916Y246519D01*
X468992Y246902D01*
X468000Y247033D01*
X467008Y246902D01*
X466084Y246519D01*
X465290Y245910D01*
X464681Y245116D01*
X464298Y244192D01*
X464167Y243200D01*
X464298Y242208D01*
X464681Y241284D01*
X465290Y240490D01*
X466084Y239881D01*
X467008Y239498D01*
X468000Y239367D01*
X468992Y239498D01*
X469916Y239881D01*
X470665Y240455D01*
X471034Y240380D01*
X471165Y240335D01*
Y214630D01*
X469870Y213335D01*
X459678D01*
X458976Y213196D01*
X458380Y212798D01*
X455418Y209835D01*
X393174D01*
X392850Y210052D01*
X392000Y210221D01*
X391150Y210052D01*
X390430Y209570D01*
X389948Y208850D01*
X389779Y208000D01*
X389948Y207150D01*
X390430Y206430D01*
X391150Y205948D01*
X392000Y205779D01*
X392850Y205948D01*
X393174Y206165D01*
X456178D01*
X456880Y206304D01*
X457476Y206702D01*
X460438Y209665D01*
X462097D01*
X462157Y209581D01*
X462036Y208902D01*
X461880Y208798D01*
X457918Y204835D01*
X383173D01*
X382850Y205052D01*
X382000Y205221D01*
X381150Y205052D01*
X380430Y204570D01*
X379948Y203850D01*
X379779Y203000D01*
X379948Y202150D01*
X380430Y201430D01*
X381150Y200948D01*
X382000Y200779D01*
X382850Y200948D01*
X383173Y201165D01*
X458678D01*
X459380Y201304D01*
X459976Y201702D01*
X462893Y204619D01*
X463354Y204373D01*
X463279Y204000D01*
X463448Y203150D01*
X463930Y202430D01*
X464650Y201948D01*
X465500Y201779D01*
X466350Y201948D01*
X466674Y202165D01*
X480240D01*
X485202Y197202D01*
X485798Y196804D01*
X486500Y196665D01*
X504826D01*
X505150Y196448D01*
X506000Y196279D01*
X506850Y196448D01*
X507570Y196930D01*
X508052Y197650D01*
X508221Y198500D01*
X508052Y199350D01*
X507570Y200070D01*
X506850Y200552D01*
X506000Y200721D01*
X505150Y200552D01*
X504826Y200335D01*
X487260D01*
X482431Y205165D01*
X482619Y205665D01*
X488665D01*
Y204674D01*
X488448Y204350D01*
X488279Y203500D01*
X488448Y202650D01*
X488930Y201930D01*
X489650Y201448D01*
X490500Y201279D01*
X491350Y201448D01*
X492070Y201930D01*
X492552Y202650D01*
X492721Y203500D01*
X492552Y204350D01*
X492335Y204674D01*
Y206500D01*
X492196Y207202D01*
X491798Y207798D01*
X490798Y208798D01*
X490642Y208902D01*
X490521Y209581D01*
X490581Y209665D01*
X512000D01*
X512702Y209804D01*
X513298Y210202D01*
X514668Y211572D01*
X515066Y212168D01*
X515205Y212870D01*
Y217827D01*
X515422Y218150D01*
X515591Y219000D01*
X515422Y219850D01*
X514940Y220570D01*
X514220Y221052D01*
X513370Y221221D01*
X512520Y221052D01*
X511800Y220570D01*
X511318Y219850D01*
X511150Y219000D01*
X511318Y218150D01*
X511535Y217827D01*
Y213630D01*
X511240Y213335D01*
X486673D01*
X486350Y213552D01*
X485500Y213721D01*
X484650Y213552D01*
X483930Y213070D01*
X483448Y212350D01*
X483279Y211500D01*
X483448Y210650D01*
X483930Y209930D01*
X484071Y209835D01*
X483920Y209335D01*
X471711D01*
X471651Y209419D01*
X471772Y210098D01*
X471928Y210202D01*
X474298Y212572D01*
X474696Y213168D01*
X474835Y213870D01*
Y240335D01*
X474965Y240380D01*
X475335Y240455D01*
X476084Y239881D01*
X476165Y239847D01*
Y237500D01*
X476304Y236798D01*
X476702Y236202D01*
X479202Y233702D01*
X479798Y233304D01*
X480500Y233165D01*
X516000D01*
X516702Y233304D01*
X517298Y233702D01*
X517798Y234202D01*
X518196Y234798D01*
X518335Y235500D01*
Y278670D01*
X518835Y278719D01*
X518948Y278150D01*
X519430Y277430D01*
X520150Y276948D01*
X521000Y276779D01*
X521850Y276948D01*
X522570Y277430D01*
X522727Y277665D01*
X531240D01*
X532165Y276740D01*
Y190560D01*
X528440Y186835D01*
X488760D01*
X487127Y188468D01*
X487052Y188850D01*
X486570Y189570D01*
X485850Y190052D01*
X485468Y190128D01*
X479798Y195798D01*
X479202Y196196D01*
X478500Y196335D01*
X452500D01*
X451798Y196196D01*
X451202Y195798D01*
X449702Y194298D01*
X449304Y193702D01*
X449165Y193000D01*
Y189760D01*
X448740Y189335D01*
X400174D01*
X399850Y189552D01*
X399000Y189721D01*
X398150Y189552D01*
X397430Y189070D01*
X396948Y188350D01*
X396779Y187500D01*
X396948Y186650D01*
X397430Y185930D01*
X398150Y185448D01*
X398719Y185335D01*
X398670Y184835D01*
X393760D01*
X392835Y185760D01*
Y186326D01*
X393052Y186650D01*
X393221Y187500D01*
X393052Y188350D01*
X392570Y189070D01*
X391850Y189552D01*
X391000Y189721D01*
X390150Y189552D01*
X389826Y189335D01*
X303173D01*
X302850Y189552D01*
X302000Y189721D01*
X301150Y189552D01*
X300430Y189070D01*
X299948Y188350D01*
X299779Y187500D01*
X299948Y186650D01*
X300430Y185930D01*
X301150Y185448D01*
X302000Y185279D01*
X302850Y185448D01*
X303173Y185665D01*
X389165D01*
Y185000D01*
X389304Y184298D01*
X389702Y183702D01*
X391702Y181702D01*
X392298Y181304D01*
X393000Y181165D01*
X474500D01*
X475202Y181304D01*
X475798Y181702D01*
X477298Y183202D01*
X477696Y183798D01*
X477835Y184500D01*
Y184826D01*
X478052Y185150D01*
X478134Y185564D01*
X478676Y185728D01*
X484702Y179702D01*
X485298Y179304D01*
X486000Y179165D01*
X494740D01*
X495665Y178240D01*
Y166260D01*
X495240Y165835D01*
X441174D01*
X440850Y166052D01*
X440000Y166221D01*
X439150Y166052D01*
X438430Y165570D01*
X437948Y164850D01*
X437779Y164000D01*
X437948Y163150D01*
X438430Y162430D01*
X439150Y161948D01*
X440000Y161779D01*
X440850Y161948D01*
X441174Y162165D01*
X496000D01*
X496702Y162304D01*
X497298Y162702D01*
X498798Y164202D01*
X499196Y164798D01*
X499335Y165500D01*
Y179000D01*
X499196Y179702D01*
X498798Y180298D01*
X496798Y182298D01*
X496642Y182402D01*
X496521Y183081D01*
X496581Y183165D01*
X529200D01*
X529902Y183304D01*
X530498Y183702D01*
X535298Y188502D01*
X535696Y189098D01*
X535835Y189800D01*
Y277500D01*
X535696Y278202D01*
X535298Y278798D01*
X533298Y280798D01*
X532702Y281196D01*
X532000Y281335D01*
X521500D01*
X520798Y281196D01*
X520765Y281174D01*
X520150Y281052D01*
X519430Y280570D01*
X518948Y279850D01*
X518835Y279281D01*
X518335Y279330D01*
Y316240D01*
X519260Y317165D01*
X527450D01*
Y316232D01*
X534550D01*
Y321769D01*
X527450D01*
Y320835D01*
X518500D01*
X517798Y320696D01*
X517202Y320298D01*
X515202Y318298D01*
X514804Y317702D01*
X514665Y317000D01*
Y236835D01*
X481260D01*
X479835Y238260D01*
Y239847D01*
X479916Y239881D01*
X480710Y240490D01*
X481319Y241284D01*
X481702Y242208D01*
X481833Y243200D01*
X481702Y244192D01*
X481319Y245116D01*
X480710Y245910D01*
X479916Y246519D01*
X478992Y246902D01*
X478000Y247033D01*
X477008Y246902D01*
X476084Y246519D01*
X475335Y245945D01*
X474965Y246020D01*
X474835Y246064D01*
Y247000D01*
X474696Y247702D01*
X474298Y248298D01*
X470298Y252298D01*
X469702Y252696D01*
X469000Y252835D01*
X438760D01*
X434835Y256760D01*
Y300336D01*
X434966Y300380D01*
X435335Y300455D01*
X436084Y299881D01*
X437008Y299498D01*
X438000Y299367D01*
X438992Y299498D01*
X439916Y299881D01*
X440710Y300490D01*
X441319Y301284D01*
X441702Y302208D01*
X441833Y303200D01*
X441702Y304192D01*
X441319Y305116D01*
X440710Y305910D01*
X439916Y306519D01*
X439835Y306553D01*
Y325240D01*
X440760Y326165D01*
X527450D01*
Y325232D01*
X534550D01*
Y330769D01*
X532535D01*
Y334035D01*
X532995Y334226D01*
X533945Y334955D01*
X534674Y335905D01*
X535133Y337012D01*
X535289Y338200D01*
X535133Y339388D01*
X534943Y339847D01*
X537298Y342202D01*
X537696Y342798D01*
X537835Y343500D01*
Y347450D01*
X539300D01*
Y354550D01*
D02*
G37*
G36*
X548500Y350000D02*
X541500D01*
Y347250D01*
X542415D01*
Y329500D01*
X542554Y328798D01*
X542952Y328202D01*
X543548Y327804D01*
X544250Y327665D01*
X544952Y327804D01*
X545548Y328202D01*
X545946Y328798D01*
X546085Y329500D01*
Y334195D01*
X546382Y334296D01*
X546585Y334332D01*
X547505Y333626D01*
X548612Y333167D01*
X549800Y333011D01*
X550988Y333167D01*
X552095Y333626D01*
X553045Y334355D01*
X553774Y335305D01*
X554233Y336412D01*
X554389Y337600D01*
X554233Y338788D01*
X553774Y339895D01*
X553045Y340845D01*
X552095Y341574D01*
X550988Y342033D01*
X549800Y342189D01*
X548612Y342033D01*
X547505Y341574D01*
X546585Y340868D01*
X546382Y340904D01*
X546085Y341004D01*
Y347250D01*
X548500D01*
Y350000D01*
D02*
G37*
G36*
X320400Y347435D02*
X319698Y347296D01*
X319102Y346898D01*
X318704Y346302D01*
X318565Y345600D01*
Y331300D01*
X318704Y330598D01*
X319102Y330002D01*
X319698Y329604D01*
X320400Y329465D01*
X321102Y329604D01*
X321698Y330002D01*
X322096Y330598D01*
X322235Y331300D01*
Y345600D01*
X322096Y346302D01*
X321698Y346898D01*
X321102Y347296D01*
X320400Y347435D01*
D02*
G37*
G36*
X184000Y314931D02*
Y307000D01*
X189029D01*
Y309000D01*
X188913Y310176D01*
X188570Y311307D01*
X188013Y312350D01*
X187263Y313263D01*
X186349Y314013D01*
X185307Y314570D01*
X184176Y314913D01*
X184000Y314931D01*
D02*
G37*
G36*
X182000D02*
X181824Y314913D01*
X180693Y314570D01*
X179650Y314013D01*
X178737Y313263D01*
X177987Y312350D01*
X177430Y311307D01*
X177087Y310176D01*
X176971Y309000D01*
Y307000D01*
X182000D01*
Y314931D01*
D02*
G37*
G36*
X289000Y307103D02*
Y304200D01*
X291903D01*
X291897Y304244D01*
X291494Y305217D01*
X290853Y306053D01*
X290017Y306694D01*
X289044Y307097D01*
X289000Y307103D01*
D02*
G37*
G36*
X287000D02*
X286956Y307097D01*
X285983Y306694D01*
X285147Y306053D01*
X284506Y305217D01*
X284103Y304244D01*
X284097Y304200D01*
X287000D01*
Y307103D01*
D02*
G37*
G36*
X478000Y307033D02*
X477008Y306902D01*
X476084Y306519D01*
X475290Y305910D01*
X474681Y305116D01*
X474298Y304192D01*
X474167Y303200D01*
X474298Y302208D01*
X474681Y301284D01*
X475290Y300490D01*
X476084Y299881D01*
X477008Y299498D01*
X478000Y299367D01*
X478992Y299498D01*
X479916Y299881D01*
X480710Y300490D01*
X481319Y301284D01*
X481702Y302208D01*
X481833Y303200D01*
X481702Y304192D01*
X481319Y305116D01*
X480710Y305910D01*
X479916Y306519D01*
X478992Y306902D01*
X478000Y307033D01*
D02*
G37*
G36*
X468000D02*
X467008Y306902D01*
X466084Y306519D01*
X465290Y305910D01*
X464681Y305116D01*
X464298Y304192D01*
X464167Y303200D01*
X464298Y302208D01*
X464681Y301284D01*
X465290Y300490D01*
X466084Y299881D01*
X467008Y299498D01*
X468000Y299367D01*
X468992Y299498D01*
X469916Y299881D01*
X470710Y300490D01*
X471319Y301284D01*
X471702Y302208D01*
X471833Y303200D01*
X471702Y304192D01*
X471319Y305116D01*
X470710Y305910D01*
X469916Y306519D01*
X468992Y306902D01*
X468000Y307033D01*
D02*
G37*
G36*
X458000D02*
X457008Y306902D01*
X456084Y306519D01*
X455290Y305910D01*
X454681Y305116D01*
X454298Y304192D01*
X454167Y303200D01*
X454298Y302208D01*
X454681Y301284D01*
X455290Y300490D01*
X456084Y299881D01*
X457008Y299498D01*
X458000Y299367D01*
X458992Y299498D01*
X459916Y299881D01*
X460710Y300490D01*
X461319Y301284D01*
X461702Y302208D01*
X461833Y303200D01*
X461702Y304192D01*
X461319Y305116D01*
X460710Y305910D01*
X459916Y306519D01*
X458992Y306902D01*
X458000Y307033D01*
D02*
G37*
G36*
X448000D02*
X447008Y306902D01*
X446084Y306519D01*
X445290Y305910D01*
X444681Y305116D01*
X444298Y304192D01*
X444167Y303200D01*
X444298Y302208D01*
X444681Y301284D01*
X445290Y300490D01*
X446084Y299881D01*
X447008Y299498D01*
X448000Y299367D01*
X448992Y299498D01*
X449916Y299881D01*
X450710Y300490D01*
X451319Y301284D01*
X451702Y302208D01*
X451833Y303200D01*
X451702Y304192D01*
X451319Y305116D01*
X450710Y305910D01*
X449916Y306519D01*
X448992Y306902D01*
X448000Y307033D01*
D02*
G37*
G36*
X418000D02*
X417008Y306902D01*
X416084Y306519D01*
X415290Y305910D01*
X414681Y305116D01*
X414298Y304192D01*
X414167Y303200D01*
X414298Y302208D01*
X414681Y301284D01*
X415290Y300490D01*
X416084Y299881D01*
X417008Y299498D01*
X418000Y299367D01*
X418992Y299498D01*
X419916Y299881D01*
X420710Y300490D01*
X421319Y301284D01*
X421702Y302208D01*
X421833Y303200D01*
X421702Y304192D01*
X421319Y305116D01*
X420710Y305910D01*
X419916Y306519D01*
X418992Y306902D01*
X418000Y307033D01*
D02*
G37*
G36*
X408000D02*
X407008Y306902D01*
X406084Y306519D01*
X405290Y305910D01*
X404681Y305116D01*
X404298Y304192D01*
X404167Y303200D01*
X404298Y302208D01*
X404681Y301284D01*
X405290Y300490D01*
X406084Y299881D01*
X407008Y299498D01*
X408000Y299367D01*
X408992Y299498D01*
X409916Y299881D01*
X410710Y300490D01*
X411319Y301284D01*
X411702Y302208D01*
X411833Y303200D01*
X411702Y304192D01*
X411319Y305116D01*
X410710Y305910D01*
X409916Y306519D01*
X408992Y306902D01*
X408000Y307033D01*
D02*
G37*
G36*
X398000D02*
X397008Y306902D01*
X396084Y306519D01*
X395290Y305910D01*
X394681Y305116D01*
X394298Y304192D01*
X394167Y303200D01*
X394298Y302208D01*
X394681Y301284D01*
X395290Y300490D01*
X396084Y299881D01*
X397008Y299498D01*
X398000Y299367D01*
X398992Y299498D01*
X399916Y299881D01*
X400710Y300490D01*
X401319Y301284D01*
X401702Y302208D01*
X401833Y303200D01*
X401702Y304192D01*
X401319Y305116D01*
X400710Y305910D01*
X399916Y306519D01*
X398992Y306902D01*
X398000Y307033D01*
D02*
G37*
G36*
X378000D02*
X377008Y306902D01*
X376084Y306519D01*
X375290Y305910D01*
X374681Y305116D01*
X374298Y304192D01*
X374167Y303200D01*
X374298Y302208D01*
X374681Y301284D01*
X375290Y300490D01*
X376084Y299881D01*
X377008Y299498D01*
X378000Y299367D01*
X378992Y299498D01*
X379916Y299881D01*
X380710Y300490D01*
X381319Y301284D01*
X381702Y302208D01*
X381833Y303200D01*
X381702Y304192D01*
X381319Y305116D01*
X380710Y305910D01*
X379916Y306519D01*
X378992Y306902D01*
X378000Y307033D01*
D02*
G37*
G36*
X368000D02*
X367008Y306902D01*
X366084Y306519D01*
X365290Y305910D01*
X364681Y305116D01*
X364298Y304192D01*
X364167Y303200D01*
X364298Y302208D01*
X364681Y301284D01*
X365290Y300490D01*
X366084Y299881D01*
X367008Y299498D01*
X368000Y299367D01*
X368992Y299498D01*
X369916Y299881D01*
X370710Y300490D01*
X371319Y301284D01*
X371702Y302208D01*
X371833Y303200D01*
X371702Y304192D01*
X371319Y305116D01*
X370710Y305910D01*
X369916Y306519D01*
X368992Y306902D01*
X368000Y307033D01*
D02*
G37*
G36*
X358000D02*
X357008Y306902D01*
X356084Y306519D01*
X355290Y305910D01*
X354681Y305116D01*
X354298Y304192D01*
X354167Y303200D01*
X354298Y302208D01*
X354681Y301284D01*
X355290Y300490D01*
X356084Y299881D01*
X357008Y299498D01*
X358000Y299367D01*
X358992Y299498D01*
X359916Y299881D01*
X360710Y300490D01*
X361319Y301284D01*
X361702Y302208D01*
X361833Y303200D01*
X361702Y304192D01*
X361319Y305116D01*
X360710Y305910D01*
X359916Y306519D01*
X358992Y306902D01*
X358000Y307033D01*
D02*
G37*
G36*
X348000D02*
X347008Y306902D01*
X346084Y306519D01*
X345290Y305910D01*
X344681Y305116D01*
X344298Y304192D01*
X344167Y303200D01*
X344298Y302208D01*
X344681Y301284D01*
X345290Y300490D01*
X346084Y299881D01*
X347008Y299498D01*
X348000Y299367D01*
X348992Y299498D01*
X349916Y299881D01*
X350710Y300490D01*
X351319Y301284D01*
X351702Y302208D01*
X351833Y303200D01*
X351702Y304192D01*
X351319Y305116D01*
X350710Y305910D01*
X349916Y306519D01*
X348992Y306902D01*
X348000Y307033D01*
D02*
G37*
G36*
X338000D02*
X337008Y306902D01*
X336084Y306519D01*
X335290Y305910D01*
X334681Y305116D01*
X334298Y304192D01*
X334167Y303200D01*
X334298Y302208D01*
X334681Y301284D01*
X335290Y300490D01*
X336084Y299881D01*
X337008Y299498D01*
X338000Y299367D01*
X338992Y299498D01*
X339916Y299881D01*
X340710Y300490D01*
X341319Y301284D01*
X341702Y302208D01*
X341833Y303200D01*
X341702Y304192D01*
X341319Y305116D01*
X340710Y305910D01*
X339916Y306519D01*
X338992Y306902D01*
X338000Y307033D01*
D02*
G37*
G36*
X328000D02*
X327008Y306902D01*
X326084Y306519D01*
X325290Y305910D01*
X324681Y305116D01*
X324298Y304192D01*
X324167Y303200D01*
X324298Y302208D01*
X324681Y301284D01*
X325290Y300490D01*
X326084Y299881D01*
X327008Y299498D01*
X328000Y299367D01*
X328992Y299498D01*
X329916Y299881D01*
X330710Y300490D01*
X331319Y301284D01*
X331702Y302208D01*
X331833Y303200D01*
X331702Y304192D01*
X331319Y305116D01*
X330710Y305910D01*
X329916Y306519D01*
X328992Y306902D01*
X328000Y307033D01*
D02*
G37*
G36*
X318000D02*
X317008Y306902D01*
X316084Y306519D01*
X315290Y305910D01*
X314681Y305116D01*
X314298Y304192D01*
X314167Y303200D01*
X314298Y302208D01*
X314681Y301284D01*
X315290Y300490D01*
X316084Y299881D01*
X317008Y299498D01*
X318000Y299367D01*
X318992Y299498D01*
X319916Y299881D01*
X320710Y300490D01*
X321319Y301284D01*
X321702Y302208D01*
X321833Y303200D01*
X321702Y304192D01*
X321319Y305116D01*
X320710Y305910D01*
X319916Y306519D01*
X318992Y306902D01*
X318000Y307033D01*
D02*
G37*
G36*
X308000D02*
X307008Y306902D01*
X306084Y306519D01*
X305290Y305910D01*
X304681Y305116D01*
X304298Y304192D01*
X304167Y303200D01*
X304298Y302208D01*
X304681Y301284D01*
X305290Y300490D01*
X306084Y299881D01*
X307008Y299498D01*
X308000Y299367D01*
X308992Y299498D01*
X309916Y299881D01*
X310710Y300490D01*
X311319Y301284D01*
X311702Y302208D01*
X311833Y303200D01*
X311702Y304192D01*
X311319Y305116D01*
X310710Y305910D01*
X309916Y306519D01*
X308992Y306902D01*
X308000Y307033D01*
D02*
G37*
G36*
X298000D02*
X297008Y306902D01*
X296084Y306519D01*
X295290Y305910D01*
X294681Y305116D01*
X294298Y304192D01*
X294167Y303200D01*
X294298Y302208D01*
X294681Y301284D01*
X295290Y300490D01*
X296084Y299881D01*
X297008Y299498D01*
X298000Y299367D01*
X298992Y299498D01*
X299916Y299881D01*
X300710Y300490D01*
X301319Y301284D01*
X301702Y302208D01*
X301833Y303200D01*
X301702Y304192D01*
X301319Y305116D01*
X300710Y305910D01*
X299916Y306519D01*
X298992Y306902D01*
X298000Y307033D01*
D02*
G37*
G36*
X291903Y302200D02*
X289000D01*
Y299297D01*
X289044Y299303D01*
X290017Y299706D01*
X290853Y300347D01*
X291494Y301183D01*
X291897Y302156D01*
X291903Y302200D01*
D02*
G37*
G36*
X287000D02*
X284097D01*
X284103Y302156D01*
X284506Y301183D01*
X285147Y300347D01*
X285983Y299706D01*
X286956Y299303D01*
X287000Y299297D01*
Y302200D01*
D02*
G37*
G36*
X189029Y305000D02*
X184000D01*
Y297070D01*
X184176Y297087D01*
X185307Y297430D01*
X186349Y297987D01*
X187263Y298737D01*
X188013Y299651D01*
X188570Y300693D01*
X188913Y301824D01*
X189029Y303000D01*
Y305000D01*
D02*
G37*
G36*
X182000D02*
X176971D01*
Y303000D01*
X177087Y301824D01*
X177430Y300693D01*
X177987Y299651D01*
X178737Y298737D01*
X179650Y297987D01*
X180693Y297430D01*
X181824Y297087D01*
X182000Y297070D01*
Y305000D01*
D02*
G37*
G36*
X556300Y303050D02*
X545700D01*
Y294950D01*
X556300D01*
Y303050D01*
D02*
G37*
G36*
X201000Y292029D02*
X199000D01*
Y287000D01*
X206930D01*
X206913Y287176D01*
X206570Y288307D01*
X206013Y289350D01*
X205263Y290263D01*
X204349Y291013D01*
X203307Y291570D01*
X202176Y291913D01*
X201000Y292029D01*
D02*
G37*
G36*
X197000D02*
X195000D01*
X193824Y291913D01*
X192693Y291570D01*
X191650Y291013D01*
X190737Y290263D01*
X189987Y289350D01*
X189430Y288307D01*
X189087Y287176D01*
X189069Y287000D01*
X197000D01*
Y292029D01*
D02*
G37*
G36*
X552250Y293085D02*
X549750D01*
X548693Y292946D01*
X547708Y292538D01*
X546862Y291888D01*
X546212Y291042D01*
X545804Y290057D01*
X545665Y289000D01*
X545804Y287943D01*
X546212Y286958D01*
X546862Y286111D01*
X547708Y285462D01*
X548693Y285054D01*
X549750Y284915D01*
X552250D01*
X553307Y285054D01*
X554292Y285462D01*
X555138Y286111D01*
X555788Y286958D01*
X556196Y287943D01*
X556335Y289000D01*
X556196Y290057D01*
X555788Y291042D01*
X555138Y291888D01*
X554292Y292538D01*
X553307Y292946D01*
X552250Y293085D01*
D02*
G37*
G36*
X206930Y285000D02*
X199000D01*
Y279971D01*
X201000D01*
X202176Y280087D01*
X203307Y280430D01*
X204349Y280987D01*
X205263Y281737D01*
X206013Y282650D01*
X206570Y283693D01*
X206913Y284824D01*
X206930Y285000D01*
D02*
G37*
G36*
X197000D02*
X189069D01*
X189087Y284824D01*
X189430Y283693D01*
X189987Y282650D01*
X190737Y281737D01*
X191650Y280987D01*
X192693Y280430D01*
X193824Y280087D01*
X195000Y279971D01*
X197000D01*
Y285000D01*
D02*
G37*
G36*
X552250Y283085D02*
X549750D01*
X548693Y282946D01*
X547708Y282538D01*
X546862Y281889D01*
X546212Y281043D01*
X545804Y280057D01*
X545665Y279000D01*
X545804Y277943D01*
X546212Y276958D01*
X546862Y276112D01*
X547708Y275462D01*
X548693Y275054D01*
X549750Y274915D01*
X552250D01*
X553307Y275054D01*
X554292Y275462D01*
X555138Y276112D01*
X555788Y276958D01*
X556196Y277943D01*
X556335Y279000D01*
X556196Y280057D01*
X555788Y281043D01*
X555138Y281889D01*
X554292Y282538D01*
X553307Y282946D01*
X552250Y283085D01*
D02*
G37*
G36*
Y273085D02*
X549750D01*
X548693Y272946D01*
X547708Y272538D01*
X546862Y271888D01*
X546212Y271042D01*
X545804Y270057D01*
X545665Y269000D01*
X545804Y267943D01*
X546212Y266957D01*
X546862Y266111D01*
X547708Y265462D01*
X548693Y265054D01*
X549750Y264915D01*
X552250D01*
X553307Y265054D01*
X554292Y265462D01*
X555138Y266111D01*
X555788Y266957D01*
X556196Y267943D01*
X556335Y269000D01*
X556196Y270057D01*
X555788Y271042D01*
X555138Y271888D01*
X554292Y272538D01*
X553307Y272946D01*
X552250Y273085D01*
D02*
G37*
G36*
X208000Y314828D02*
X206863Y314716D01*
X205770Y314384D01*
X204762Y313846D01*
X203879Y313121D01*
X203154Y312238D01*
X202616Y311230D01*
X202284Y310137D01*
X202172Y309000D01*
Y303000D01*
X202284Y301863D01*
X202616Y300770D01*
X203154Y299762D01*
X203879Y298879D01*
X204762Y298154D01*
X205770Y297616D01*
X206863Y297284D01*
X208000Y297172D01*
X209137Y297284D01*
X210230Y297616D01*
X211173Y298120D01*
X212172Y297121D01*
Y273500D01*
Y264879D01*
X210621Y263329D01*
X192800D01*
Y266300D01*
X184200D01*
Y254700D01*
X192800D01*
Y256672D01*
X212000D01*
X212861Y256785D01*
X213332Y256980D01*
X213664Y257118D01*
X214354Y257646D01*
X217854Y261146D01*
X218383Y261836D01*
X218715Y262638D01*
X218829Y263500D01*
Y273500D01*
Y298500D01*
X218715Y299361D01*
X218383Y300164D01*
X217854Y300854D01*
X213828Y304879D01*
Y309000D01*
X213716Y310137D01*
X213384Y311230D01*
X212846Y312238D01*
X212121Y313121D01*
X211238Y313846D01*
X210230Y314384D01*
X209137Y314716D01*
X208000Y314828D01*
D02*
G37*
G36*
X438000Y289721D02*
X437150Y289552D01*
X436430Y289070D01*
X435948Y288350D01*
X435779Y287500D01*
X435948Y286650D01*
X436430Y285930D01*
X437150Y285448D01*
X438000Y285279D01*
X438850Y285448D01*
X439174Y285665D01*
X483892D01*
X484159Y285165D01*
X483948Y284850D01*
X483826Y284235D01*
X483804Y284202D01*
X483665Y283500D01*
Y268174D01*
X483448Y267850D01*
X483279Y267000D01*
X483448Y266150D01*
X483930Y265430D01*
X484650Y264948D01*
X485500Y264779D01*
X486350Y264948D01*
X487070Y265430D01*
X487552Y266150D01*
X487721Y267000D01*
X487552Y267850D01*
X487335Y268174D01*
Y282273D01*
X487570Y282430D01*
X488052Y283150D01*
X488221Y284000D01*
X488052Y284850D01*
X487841Y285165D01*
X488108Y285665D01*
X498740D01*
X499665Y284740D01*
Y265174D01*
X499448Y264850D01*
X499279Y264000D01*
X499448Y263150D01*
X499930Y262430D01*
X500650Y261948D01*
X501500Y261779D01*
X502350Y261948D01*
X503070Y262430D01*
X503552Y263150D01*
X503721Y264000D01*
X503552Y264850D01*
X503335Y265174D01*
Y285500D01*
X503196Y286202D01*
X502798Y286798D01*
X500798Y288798D01*
X500202Y289196D01*
X499500Y289335D01*
X439174D01*
X438850Y289552D01*
X438000Y289721D01*
D02*
G37*
G36*
X172500Y266407D02*
X172325Y266384D01*
X171231Y265931D01*
X170291Y265209D01*
X169569Y264269D01*
X169116Y263175D01*
X168961Y262000D01*
Y261500D01*
X172500D01*
Y266407D01*
D02*
G37*
G36*
X552250Y263085D02*
X549750D01*
X548693Y262946D01*
X547708Y262538D01*
X546862Y261889D01*
X546212Y261042D01*
X545804Y260057D01*
X545665Y259000D01*
X545804Y257943D01*
X546212Y256958D01*
X546862Y256112D01*
X547708Y255462D01*
X548693Y255054D01*
X549750Y254915D01*
X552250D01*
X553307Y255054D01*
X554292Y255462D01*
X555138Y256112D01*
X555788Y256958D01*
X556196Y257943D01*
X556335Y259000D01*
X556196Y260057D01*
X555788Y261042D01*
X555138Y261889D01*
X554292Y262538D01*
X553307Y262946D01*
X552250Y263085D01*
D02*
G37*
G36*
X172500Y259500D02*
X168961D01*
Y259000D01*
X169116Y257825D01*
X169569Y256731D01*
X170291Y255791D01*
X171231Y255069D01*
X172325Y254616D01*
X172500Y254593D01*
Y259500D01*
D02*
G37*
G36*
X552250Y253085D02*
X549750D01*
X548693Y252946D01*
X547708Y252538D01*
X546862Y251888D01*
X546212Y251043D01*
X545804Y250057D01*
X545665Y249000D01*
X545804Y247943D01*
X546212Y246957D01*
X546862Y246111D01*
X547708Y245462D01*
X548693Y245054D01*
X549750Y244915D01*
X552250D01*
X553307Y245054D01*
X554292Y245462D01*
X555138Y246111D01*
X555788Y246957D01*
X556196Y247943D01*
X556335Y249000D01*
X556196Y250057D01*
X555788Y251043D01*
X555138Y251888D01*
X554292Y252538D01*
X553307Y252946D01*
X552250Y253085D01*
D02*
G37*
G36*
X506500Y308221D02*
X505650Y308052D01*
X504930Y307570D01*
X504448Y306850D01*
X504279Y306000D01*
X504448Y305150D01*
X504665Y304826D01*
Y245673D01*
X504448Y245350D01*
X504279Y244500D01*
X504448Y243650D01*
X504930Y242930D01*
X505650Y242448D01*
X506500Y242279D01*
X507350Y242448D01*
X508070Y242930D01*
X508552Y243650D01*
X508721Y244500D01*
X508552Y245350D01*
X508335Y245673D01*
Y304826D01*
X508552Y305150D01*
X508721Y306000D01*
X508552Y306850D01*
X508070Y307570D01*
X507350Y308052D01*
X506500Y308221D01*
D02*
G37*
G36*
X291800Y247000D02*
X284200D01*
Y239400D01*
X291800D01*
Y247000D01*
D02*
G37*
G36*
X448000Y247033D02*
X447008Y246902D01*
X446084Y246519D01*
X445290Y245910D01*
X444681Y245116D01*
X444298Y244192D01*
X444167Y243200D01*
X444298Y242208D01*
X444681Y241284D01*
X445290Y240490D01*
X446084Y239881D01*
X447008Y239498D01*
X448000Y239367D01*
X448992Y239498D01*
X449916Y239881D01*
X450710Y240490D01*
X451319Y241284D01*
X451702Y242208D01*
X451833Y243200D01*
X451702Y244192D01*
X451319Y245116D01*
X450710Y245910D01*
X449916Y246519D01*
X448992Y246902D01*
X448000Y247033D01*
D02*
G37*
G36*
X438000D02*
X437008Y246902D01*
X436084Y246519D01*
X435290Y245910D01*
X434681Y245116D01*
X434298Y244192D01*
X434167Y243200D01*
X434298Y242208D01*
X434681Y241284D01*
X435290Y240490D01*
X436084Y239881D01*
X437008Y239498D01*
X438000Y239367D01*
X438992Y239498D01*
X439916Y239881D01*
X440710Y240490D01*
X441319Y241284D01*
X441702Y242208D01*
X441833Y243200D01*
X441702Y244192D01*
X441319Y245116D01*
X440710Y245910D01*
X439916Y246519D01*
X438992Y246902D01*
X438000Y247033D01*
D02*
G37*
G36*
X428000D02*
X427008Y246902D01*
X426084Y246519D01*
X425290Y245910D01*
X424681Y245116D01*
X424298Y244192D01*
X424167Y243200D01*
X424298Y242208D01*
X424681Y241284D01*
X425290Y240490D01*
X426084Y239881D01*
X427008Y239498D01*
X428000Y239367D01*
X428992Y239498D01*
X429916Y239881D01*
X430710Y240490D01*
X431319Y241284D01*
X431702Y242208D01*
X431833Y243200D01*
X431702Y244192D01*
X431319Y245116D01*
X430710Y245910D01*
X429916Y246519D01*
X428992Y246902D01*
X428000Y247033D01*
D02*
G37*
G36*
X418000D02*
X417008Y246902D01*
X416084Y246519D01*
X415290Y245910D01*
X414681Y245116D01*
X414298Y244192D01*
X414167Y243200D01*
X414298Y242208D01*
X414681Y241284D01*
X415290Y240490D01*
X416084Y239881D01*
X417008Y239498D01*
X418000Y239367D01*
X418992Y239498D01*
X419916Y239881D01*
X420710Y240490D01*
X421319Y241284D01*
X421702Y242208D01*
X421833Y243200D01*
X421702Y244192D01*
X421319Y245116D01*
X420710Y245910D01*
X419916Y246519D01*
X418992Y246902D01*
X418000Y247033D01*
D02*
G37*
G36*
X408000D02*
X407008Y246902D01*
X406084Y246519D01*
X405290Y245910D01*
X404681Y245116D01*
X404298Y244192D01*
X404167Y243200D01*
X404298Y242208D01*
X404681Y241284D01*
X405290Y240490D01*
X406084Y239881D01*
X407008Y239498D01*
X408000Y239367D01*
X408992Y239498D01*
X409916Y239881D01*
X410710Y240490D01*
X411319Y241284D01*
X411702Y242208D01*
X411833Y243200D01*
X411702Y244192D01*
X411319Y245116D01*
X410710Y245910D01*
X409916Y246519D01*
X408992Y246902D01*
X408000Y247033D01*
D02*
G37*
G36*
X398000D02*
X397008Y246902D01*
X396084Y246519D01*
X395290Y245910D01*
X394681Y245116D01*
X394298Y244192D01*
X394167Y243200D01*
X394298Y242208D01*
X394681Y241284D01*
X395290Y240490D01*
X396084Y239881D01*
X397008Y239498D01*
X398000Y239367D01*
X398992Y239498D01*
X399916Y239881D01*
X400710Y240490D01*
X401319Y241284D01*
X401702Y242208D01*
X401833Y243200D01*
X401702Y244192D01*
X401319Y245116D01*
X400710Y245910D01*
X399916Y246519D01*
X398992Y246902D01*
X398000Y247033D01*
D02*
G37*
G36*
X388000D02*
X387008Y246902D01*
X386084Y246519D01*
X385290Y245910D01*
X384681Y245116D01*
X384298Y244192D01*
X384167Y243200D01*
X384298Y242208D01*
X384681Y241284D01*
X385290Y240490D01*
X386084Y239881D01*
X387008Y239498D01*
X388000Y239367D01*
X388992Y239498D01*
X389916Y239881D01*
X390710Y240490D01*
X391319Y241284D01*
X391702Y242208D01*
X391833Y243200D01*
X391702Y244192D01*
X391319Y245116D01*
X390710Y245910D01*
X389916Y246519D01*
X388992Y246902D01*
X388000Y247033D01*
D02*
G37*
G36*
X378000D02*
X377008Y246902D01*
X376084Y246519D01*
X375290Y245910D01*
X374681Y245116D01*
X374298Y244192D01*
X374167Y243200D01*
X374298Y242208D01*
X374681Y241284D01*
X375290Y240490D01*
X376084Y239881D01*
X377008Y239498D01*
X378000Y239367D01*
X378992Y239498D01*
X379916Y239881D01*
X380710Y240490D01*
X381319Y241284D01*
X381702Y242208D01*
X381833Y243200D01*
X381702Y244192D01*
X381319Y245116D01*
X380710Y245910D01*
X379916Y246519D01*
X378992Y246902D01*
X378000Y247033D01*
D02*
G37*
G36*
X368000D02*
X367008Y246902D01*
X366084Y246519D01*
X365290Y245910D01*
X364681Y245116D01*
X364298Y244192D01*
X364167Y243200D01*
X364298Y242208D01*
X364681Y241284D01*
X365290Y240490D01*
X366084Y239881D01*
X367008Y239498D01*
X368000Y239367D01*
X368992Y239498D01*
X369916Y239881D01*
X370710Y240490D01*
X371319Y241284D01*
X371702Y242208D01*
X371833Y243200D01*
X371702Y244192D01*
X371319Y245116D01*
X370710Y245910D01*
X369916Y246519D01*
X368992Y246902D01*
X368000Y247033D01*
D02*
G37*
G36*
X358000D02*
X357008Y246902D01*
X356084Y246519D01*
X355290Y245910D01*
X354681Y245116D01*
X354298Y244192D01*
X354167Y243200D01*
X354298Y242208D01*
X354681Y241284D01*
X355290Y240490D01*
X356084Y239881D01*
X357008Y239498D01*
X358000Y239367D01*
X358992Y239498D01*
X359916Y239881D01*
X360710Y240490D01*
X361319Y241284D01*
X361702Y242208D01*
X361833Y243200D01*
X361702Y244192D01*
X361319Y245116D01*
X360710Y245910D01*
X359916Y246519D01*
X358992Y246902D01*
X358000Y247033D01*
D02*
G37*
G36*
X348000D02*
X347008Y246902D01*
X346084Y246519D01*
X345290Y245910D01*
X344681Y245116D01*
X344298Y244192D01*
X344167Y243200D01*
X344298Y242208D01*
X344681Y241284D01*
X345290Y240490D01*
X346084Y239881D01*
X347008Y239498D01*
X348000Y239367D01*
X348992Y239498D01*
X349916Y239881D01*
X350710Y240490D01*
X351319Y241284D01*
X351702Y242208D01*
X351833Y243200D01*
X351702Y244192D01*
X351319Y245116D01*
X350710Y245910D01*
X349916Y246519D01*
X348992Y246902D01*
X348000Y247033D01*
D02*
G37*
G36*
X338000D02*
X337008Y246902D01*
X336084Y246519D01*
X335290Y245910D01*
X334681Y245116D01*
X334298Y244192D01*
X334167Y243200D01*
X334298Y242208D01*
X334681Y241284D01*
X335290Y240490D01*
X336084Y239881D01*
X337008Y239498D01*
X338000Y239367D01*
X338992Y239498D01*
X339916Y239881D01*
X340710Y240490D01*
X341319Y241284D01*
X341702Y242208D01*
X341833Y243200D01*
X341702Y244192D01*
X341319Y245116D01*
X340710Y245910D01*
X339916Y246519D01*
X338992Y246902D01*
X338000Y247033D01*
D02*
G37*
G36*
X328000D02*
X327008Y246902D01*
X326084Y246519D01*
X325290Y245910D01*
X324681Y245116D01*
X324298Y244192D01*
X324167Y243200D01*
X324298Y242208D01*
X324681Y241284D01*
X325290Y240490D01*
X326084Y239881D01*
X327008Y239498D01*
X328000Y239367D01*
X328992Y239498D01*
X329916Y239881D01*
X330710Y240490D01*
X331319Y241284D01*
X331702Y242208D01*
X331833Y243200D01*
X331702Y244192D01*
X331319Y245116D01*
X330710Y245910D01*
X329916Y246519D01*
X328992Y246902D01*
X328000Y247033D01*
D02*
G37*
G36*
X318000D02*
X317008Y246902D01*
X316084Y246519D01*
X315290Y245910D01*
X314681Y245116D01*
X314298Y244192D01*
X314167Y243200D01*
X314298Y242208D01*
X314681Y241284D01*
X315290Y240490D01*
X316084Y239881D01*
X317008Y239498D01*
X318000Y239367D01*
X318992Y239498D01*
X319916Y239881D01*
X320710Y240490D01*
X321319Y241284D01*
X321702Y242208D01*
X321833Y243200D01*
X321702Y244192D01*
X321319Y245116D01*
X320710Y245910D01*
X319916Y246519D01*
X318992Y246902D01*
X318000Y247033D01*
D02*
G37*
G36*
X308000D02*
X307008Y246902D01*
X306084Y246519D01*
X305290Y245910D01*
X304681Y245116D01*
X304298Y244192D01*
X304167Y243200D01*
X304298Y242208D01*
X304681Y241284D01*
X305290Y240490D01*
X306084Y239881D01*
X307008Y239498D01*
X308000Y239367D01*
X308992Y239498D01*
X309916Y239881D01*
X310710Y240490D01*
X311319Y241284D01*
X311702Y242208D01*
X311833Y243200D01*
X311702Y244192D01*
X311319Y245116D01*
X310710Y245910D01*
X309916Y246519D01*
X308992Y246902D01*
X308000Y247033D01*
D02*
G37*
G36*
X298000D02*
X297008Y246902D01*
X296084Y246519D01*
X295290Y245910D01*
X294681Y245116D01*
X294298Y244192D01*
X294167Y243200D01*
X294298Y242208D01*
X294681Y241284D01*
X295290Y240490D01*
X296084Y239881D01*
X297008Y239498D01*
X298000Y239367D01*
X298992Y239498D01*
X299916Y239881D01*
X300710Y240490D01*
X301319Y241284D01*
X301702Y242208D01*
X301833Y243200D01*
X301702Y244192D01*
X301319Y245116D01*
X300710Y245910D01*
X299916Y246519D01*
X298992Y246902D01*
X298000Y247033D01*
D02*
G37*
G36*
X552250Y243085D02*
X549750D01*
X548693Y242946D01*
X547708Y242538D01*
X546862Y241888D01*
X546212Y241042D01*
X545804Y240057D01*
X545665Y239000D01*
X545804Y237943D01*
X546212Y236958D01*
X546862Y236111D01*
X547708Y235462D01*
X548693Y235054D01*
X549750Y234915D01*
X552250D01*
X553307Y235054D01*
X554292Y235462D01*
X555138Y236111D01*
X555788Y236958D01*
X556196Y237943D01*
X556335Y239000D01*
X556196Y240057D01*
X555788Y241042D01*
X555138Y241888D01*
X554292Y242538D01*
X553307Y242946D01*
X552250Y243085D01*
D02*
G37*
G36*
X192500Y242085D02*
X191500D01*
X190443Y241946D01*
X189457Y241538D01*
X188611Y240889D01*
X187962Y240042D01*
X187554Y239057D01*
X187415Y238000D01*
X187554Y236943D01*
X187962Y235958D01*
X188611Y235111D01*
X189457Y234462D01*
X190443Y234054D01*
X191500Y233915D01*
X192500D01*
X193557Y234054D01*
X194543Y234462D01*
X195388Y235111D01*
X196038Y235958D01*
X196446Y236943D01*
X196585Y238000D01*
X196446Y239057D01*
X196038Y240042D01*
X195388Y240889D01*
X194543Y241538D01*
X193557Y241946D01*
X192500Y242085D01*
D02*
G37*
G36*
X458000Y247033D02*
X457008Y246902D01*
X456084Y246519D01*
X455290Y245910D01*
X454681Y245116D01*
X454298Y244192D01*
X454167Y243200D01*
X454298Y242208D01*
X454671Y241306D01*
Y235379D01*
X450821Y231528D01*
X194815D01*
X194543Y231738D01*
X193557Y232146D01*
X192500Y232285D01*
X191500D01*
X190443Y232146D01*
X189457Y231738D01*
X188611Y231088D01*
X187962Y230242D01*
X187554Y229257D01*
X187415Y228200D01*
X187554Y227143D01*
X187962Y226157D01*
X188611Y225311D01*
X189457Y224662D01*
X190443Y224254D01*
X191500Y224115D01*
X192500D01*
X193557Y224254D01*
X194543Y224662D01*
X194815Y224871D01*
X452200D01*
X453061Y224985D01*
X453532Y225180D01*
X453864Y225318D01*
X454554Y225846D01*
X460354Y231646D01*
X460883Y232336D01*
X461215Y233138D01*
X461329Y234000D01*
Y241306D01*
X461702Y242208D01*
X461833Y243200D01*
X461702Y244192D01*
X461319Y245116D01*
X460710Y245910D01*
X459916Y246519D01*
X458992Y246902D01*
X458000Y247033D01*
D02*
G37*
G36*
X552250Y233085D02*
X549750D01*
X548693Y232946D01*
X547708Y232538D01*
X546862Y231889D01*
X546212Y231043D01*
X545804Y230057D01*
X545665Y229000D01*
X545804Y227943D01*
X546212Y226958D01*
X546862Y226112D01*
X547708Y225462D01*
X548693Y225054D01*
X549750Y224915D01*
X552250D01*
X553307Y225054D01*
X554292Y225462D01*
X555138Y226112D01*
X555788Y226958D01*
X556196Y227943D01*
X556335Y229000D01*
X556196Y230057D01*
X555788Y231043D01*
X555138Y231889D01*
X554292Y232538D01*
X553307Y232946D01*
X552250Y233085D01*
D02*
G37*
G36*
X192500Y222185D02*
X191500D01*
X190443Y222046D01*
X189457Y221638D01*
X188611Y220988D01*
X187962Y220143D01*
X187554Y219157D01*
X187415Y218100D01*
X187554Y217043D01*
X187962Y216057D01*
X188611Y215212D01*
X189457Y214562D01*
X190443Y214154D01*
X191500Y214015D01*
X192500D01*
X193557Y214154D01*
X194543Y214562D01*
X195388Y215212D01*
X196038Y216057D01*
X196446Y217043D01*
X196585Y218100D01*
X196446Y219157D01*
X196038Y220143D01*
X195388Y220988D01*
X194543Y221638D01*
X193557Y222046D01*
X192500Y222185D01*
D02*
G37*
G36*
X372100Y217321D02*
X371250Y217152D01*
X370530Y216670D01*
X370048Y215950D01*
X369879Y215100D01*
X370048Y214250D01*
X370530Y213530D01*
X371250Y213048D01*
X372100Y212879D01*
X372950Y213048D01*
X373273Y213265D01*
X400677D01*
X401150Y212948D01*
X402000Y212779D01*
X402850Y212948D01*
X403570Y213430D01*
X404052Y214150D01*
X404221Y215000D01*
X404052Y215850D01*
X403570Y216570D01*
X402850Y217052D01*
X402000Y217221D01*
X401150Y217052D01*
X400976Y216935D01*
X373273D01*
X372950Y217152D01*
X372100Y217321D01*
D02*
G37*
G36*
X174500Y266407D02*
Y260500D01*
X173500D01*
D01*
X174500D01*
Y254593D01*
X174675Y254616D01*
X175769Y255069D01*
X176709Y255791D01*
X177431Y256731D01*
X177884Y257825D01*
X177929Y258165D01*
X179165D01*
Y205500D01*
X179304Y204798D01*
X179702Y204202D01*
X180702Y203202D01*
X181298Y202804D01*
X182000Y202665D01*
X207500D01*
X208202Y202804D01*
X208798Y203202D01*
X209196Y203798D01*
X209335Y204500D01*
X209196Y205202D01*
X208798Y205798D01*
X208202Y206196D01*
X207500Y206335D01*
X182835D01*
Y260000D01*
X182696Y260702D01*
X182298Y261298D01*
X181702Y261696D01*
X181000Y261835D01*
X178039D01*
Y262000D01*
X177884Y263175D01*
X177431Y264269D01*
X176709Y265209D01*
X175769Y265931D01*
X174675Y266384D01*
X174500Y266407D01*
D02*
G37*
G36*
X305000Y214335D02*
X218500D01*
X217798Y214196D01*
X217202Y213798D01*
X211702Y208298D01*
X211304Y207702D01*
X211165Y207000D01*
Y188674D01*
X210948Y188350D01*
X210779Y187500D01*
X210948Y186650D01*
X211430Y185930D01*
X212150Y185448D01*
X213000Y185279D01*
X213850Y185448D01*
X214570Y185930D01*
X215052Y186650D01*
X215221Y187500D01*
X215052Y188350D01*
X214835Y188674D01*
Y206240D01*
X219260Y210665D01*
X304240D01*
X305165Y209740D01*
Y205167D01*
X305304Y204465D01*
X305326Y204432D01*
X305448Y203817D01*
X305930Y203097D01*
X306650Y202615D01*
X307500Y202446D01*
X308350Y202615D01*
X309070Y203097D01*
X309552Y203817D01*
X309721Y204667D01*
X309552Y205517D01*
X309070Y206237D01*
X308835Y206394D01*
Y210500D01*
X308696Y211202D01*
X308298Y211798D01*
X306298Y213798D01*
X305702Y214196D01*
X305586Y214219D01*
X305000Y214335D01*
D02*
G37*
G36*
X283000Y190721D02*
X282344Y190590D01*
X262000D01*
X262000Y190590D01*
X261200Y190431D01*
X260522Y189978D01*
X260522Y189978D01*
X258522Y187978D01*
X258069Y187300D01*
X257910Y186500D01*
X257910Y186500D01*
Y165656D01*
X257779Y165000D01*
X257948Y164150D01*
X258430Y163430D01*
X259150Y162948D01*
X260000Y162779D01*
X260850Y162948D01*
X261570Y163430D01*
X262052Y164150D01*
X262221Y165000D01*
X262090Y165656D01*
Y185634D01*
X262866Y186410D01*
X282344D01*
X283000Y186279D01*
X283850Y186448D01*
X284570Y186930D01*
X285052Y187650D01*
X285221Y188500D01*
X285052Y189350D01*
X284570Y190070D01*
X283850Y190552D01*
X283000Y190721D01*
D02*
G37*
G36*
X290000Y205090D02*
X290000Y205090D01*
X234500D01*
X233700Y204931D01*
X233022Y204478D01*
X231522Y202978D01*
X231069Y202300D01*
X230910Y201500D01*
X230910Y201500D01*
Y196656D01*
X230779Y196000D01*
X230948Y195150D01*
X231430Y194430D01*
X232150Y193948D01*
X233000Y193779D01*
X233850Y193948D01*
X234570Y194430D01*
X235052Y195150D01*
X235221Y196000D01*
X235090Y196656D01*
Y200634D01*
X235366Y200910D01*
X289134D01*
X289910Y200134D01*
Y188656D01*
X289779Y188000D01*
X289948Y187150D01*
X290430Y186430D01*
X291150Y185948D01*
X292000Y185779D01*
X292850Y185948D01*
X293570Y186430D01*
X294052Y187150D01*
X294221Y188000D01*
X294090Y188656D01*
Y201000D01*
X294090Y201000D01*
X293931Y201800D01*
X293478Y202478D01*
X293478Y202478D01*
X291478Y204478D01*
X290800Y204931D01*
X290000Y205090D01*
D02*
G37*
G36*
X184000Y197721D02*
X183150Y197552D01*
X182430Y197070D01*
X181948Y196350D01*
X181779Y195500D01*
X181948Y194650D01*
X182165Y194326D01*
Y181500D01*
X182304Y180798D01*
X182702Y180202D01*
X183702Y179202D01*
X184298Y178804D01*
X185000Y178665D01*
X220000D01*
X220702Y178804D01*
X221298Y179202D01*
X223298Y181202D01*
X223696Y181798D01*
X223835Y182500D01*
Y185826D01*
X224052Y186150D01*
X224221Y187000D01*
X224052Y187850D01*
X223570Y188570D01*
X222850Y189052D01*
X222000Y189221D01*
X221150Y189052D01*
X220430Y188570D01*
X219948Y187850D01*
X219779Y187000D01*
X219948Y186150D01*
X220165Y185826D01*
Y183260D01*
X219240Y182335D01*
X185835D01*
Y194326D01*
X186052Y194650D01*
X186221Y195500D01*
X186052Y196350D01*
X185570Y197070D01*
X184850Y197552D01*
X184000Y197721D01*
D02*
G37*
G36*
X514550Y160300D02*
X506450D01*
Y149700D01*
X514550D01*
Y160300D01*
D02*
G37*
G36*
X424550D02*
X416450D01*
Y149700D01*
X424550D01*
Y160300D01*
D02*
G37*
G36*
X334550D02*
X326450D01*
Y149700D01*
X334550D01*
Y160300D01*
D02*
G37*
G36*
X244550D02*
X236450D01*
Y149700D01*
X244550D01*
Y160300D01*
D02*
G37*
G36*
X500500Y160335D02*
X499443Y160196D01*
X498457Y159788D01*
X497612Y159139D01*
X496962Y158292D01*
X496554Y157307D01*
X496415Y156250D01*
Y153750D01*
X496554Y152693D01*
X496962Y151707D01*
X497612Y150862D01*
X498457Y150212D01*
X499443Y149804D01*
X500500Y149665D01*
X501557Y149804D01*
X502542Y150212D01*
X503389Y150862D01*
X504038Y151707D01*
X504446Y152693D01*
X504585Y153750D01*
Y156250D01*
X504446Y157307D01*
X504038Y158292D01*
X503389Y159139D01*
X502542Y159788D01*
X501557Y160196D01*
X500500Y160335D01*
D02*
G37*
G36*
X490500D02*
X489443Y160196D01*
X488457Y159788D01*
X487611Y159139D01*
X486962Y158292D01*
X486554Y157307D01*
X486415Y156250D01*
Y153750D01*
X486554Y152693D01*
X486962Y151707D01*
X487611Y150862D01*
X488457Y150212D01*
X489443Y149804D01*
X490500Y149665D01*
X491557Y149804D01*
X492543Y150212D01*
X493389Y150862D01*
X494038Y151707D01*
X494446Y152693D01*
X494585Y153750D01*
Y156250D01*
X494446Y157307D01*
X494038Y158292D01*
X493389Y159139D01*
X492543Y159788D01*
X491557Y160196D01*
X490500Y160335D01*
D02*
G37*
G36*
X480500D02*
X479443Y160196D01*
X478457Y159788D01*
X477611Y159139D01*
X476962Y158292D01*
X476554Y157307D01*
X476415Y156250D01*
Y153750D01*
X476554Y152693D01*
X476962Y151707D01*
X477611Y150862D01*
X478457Y150212D01*
X479443Y149804D01*
X480500Y149665D01*
X481557Y149804D01*
X482543Y150212D01*
X483389Y150862D01*
X484038Y151707D01*
X484446Y152693D01*
X484585Y153750D01*
Y156250D01*
X484446Y157307D01*
X484038Y158292D01*
X483389Y159139D01*
X482543Y159788D01*
X481557Y160196D01*
X480500Y160335D01*
D02*
G37*
G36*
X470500D02*
X469443Y160196D01*
X468458Y159788D01*
X467612Y159139D01*
X466962Y158292D01*
X466554Y157307D01*
X466415Y156250D01*
Y153750D01*
X466554Y152693D01*
X466962Y151707D01*
X467612Y150862D01*
X468458Y150212D01*
X469443Y149804D01*
X470500Y149665D01*
X471557Y149804D01*
X472542Y150212D01*
X473388Y150862D01*
X474038Y151707D01*
X474446Y152693D01*
X474585Y153750D01*
Y156250D01*
X474446Y157307D01*
X474038Y158292D01*
X473388Y159139D01*
X472542Y159788D01*
X471557Y160196D01*
X470500Y160335D01*
D02*
G37*
G36*
X460500D02*
X459443Y160196D01*
X458458Y159788D01*
X457612Y159139D01*
X456962Y158292D01*
X456554Y157307D01*
X456415Y156250D01*
Y153750D01*
X456554Y152693D01*
X456962Y151707D01*
X457612Y150862D01*
X458458Y150212D01*
X459443Y149804D01*
X460500Y149665D01*
X461557Y149804D01*
X462542Y150212D01*
X463388Y150862D01*
X464038Y151707D01*
X464446Y152693D01*
X464585Y153750D01*
Y156250D01*
X464446Y157307D01*
X464038Y158292D01*
X463388Y159139D01*
X462542Y159788D01*
X461557Y160196D01*
X460500Y160335D01*
D02*
G37*
G36*
X450500D02*
X449443Y160196D01*
X448457Y159788D01*
X447612Y159139D01*
X446962Y158292D01*
X446554Y157307D01*
X446415Y156250D01*
Y153750D01*
X446554Y152693D01*
X446962Y151707D01*
X447612Y150862D01*
X448457Y150212D01*
X449443Y149804D01*
X450500Y149665D01*
X451557Y149804D01*
X452542Y150212D01*
X453389Y150862D01*
X454038Y151707D01*
X454446Y152693D01*
X454585Y153750D01*
Y156250D01*
X454446Y157307D01*
X454038Y158292D01*
X453389Y159139D01*
X452542Y159788D01*
X451557Y160196D01*
X450500Y160335D01*
D02*
G37*
G36*
X440500D02*
X439443Y160196D01*
X438457Y159788D01*
X437611Y159139D01*
X436962Y158292D01*
X436554Y157307D01*
X436415Y156250D01*
Y153750D01*
X436554Y152693D01*
X436962Y151707D01*
X437611Y150862D01*
X438457Y150212D01*
X439443Y149804D01*
X440500Y149665D01*
X441557Y149804D01*
X442543Y150212D01*
X443389Y150862D01*
X444038Y151707D01*
X444446Y152693D01*
X444585Y153750D01*
Y156250D01*
X444446Y157307D01*
X444038Y158292D01*
X443389Y159139D01*
X442543Y159788D01*
X441557Y160196D01*
X440500Y160335D01*
D02*
G37*
G36*
X410500D02*
X409443Y160196D01*
X408458Y159788D01*
X407612Y159139D01*
X406962Y158292D01*
X406554Y157307D01*
X406415Y156250D01*
Y153750D01*
X406554Y152693D01*
X406962Y151707D01*
X407612Y150862D01*
X408458Y150212D01*
X409443Y149804D01*
X410500Y149665D01*
X411557Y149804D01*
X412542Y150212D01*
X413388Y150862D01*
X414038Y151707D01*
X414446Y152693D01*
X414585Y153750D01*
Y156250D01*
X414446Y157307D01*
X414038Y158292D01*
X413388Y159139D01*
X412542Y159788D01*
X411557Y160196D01*
X410500Y160335D01*
D02*
G37*
G36*
X400500D02*
X399443Y160196D01*
X398458Y159788D01*
X397611Y159139D01*
X396962Y158292D01*
X396554Y157307D01*
X396415Y156250D01*
Y153750D01*
X396554Y152693D01*
X396962Y151707D01*
X397611Y150862D01*
X398458Y150212D01*
X399443Y149804D01*
X400500Y149665D01*
X401557Y149804D01*
X402542Y150212D01*
X403389Y150862D01*
X404038Y151707D01*
X404446Y152693D01*
X404585Y153750D01*
Y156250D01*
X404446Y157307D01*
X404038Y158292D01*
X403389Y159139D01*
X402542Y159788D01*
X401557Y160196D01*
X400500Y160335D01*
D02*
G37*
G36*
X390500D02*
X389443Y160196D01*
X388457Y159788D01*
X387612Y159139D01*
X386962Y158292D01*
X386554Y157307D01*
X386415Y156250D01*
Y153750D01*
X386554Y152693D01*
X386962Y151707D01*
X387612Y150862D01*
X388457Y150212D01*
X389443Y149804D01*
X390500Y149665D01*
X391557Y149804D01*
X392543Y150212D01*
X393389Y150862D01*
X394038Y151707D01*
X394446Y152693D01*
X394585Y153750D01*
Y156250D01*
X394446Y157307D01*
X394038Y158292D01*
X393389Y159139D01*
X392543Y159788D01*
X391557Y160196D01*
X390500Y160335D01*
D02*
G37*
G36*
X380500D02*
X379443Y160196D01*
X378457Y159788D01*
X377611Y159139D01*
X376962Y158292D01*
X376554Y157307D01*
X376415Y156250D01*
Y153750D01*
X376554Y152693D01*
X376962Y151707D01*
X377611Y150862D01*
X378457Y150212D01*
X379443Y149804D01*
X380500Y149665D01*
X381557Y149804D01*
X382542Y150212D01*
X383388Y150862D01*
X384038Y151707D01*
X384446Y152693D01*
X384585Y153750D01*
Y156250D01*
X384446Y157307D01*
X384038Y158292D01*
X383388Y159139D01*
X382542Y159788D01*
X381557Y160196D01*
X380500Y160335D01*
D02*
G37*
G36*
X370500D02*
X369443Y160196D01*
X368458Y159788D01*
X367612Y159139D01*
X366962Y158292D01*
X366554Y157307D01*
X366415Y156250D01*
Y153750D01*
X366554Y152693D01*
X366962Y151707D01*
X367612Y150862D01*
X368458Y150212D01*
X369443Y149804D01*
X370500Y149665D01*
X371557Y149804D01*
X372543Y150212D01*
X373389Y150862D01*
X374038Y151707D01*
X374446Y152693D01*
X374585Y153750D01*
Y156250D01*
X374446Y157307D01*
X374038Y158292D01*
X373389Y159139D01*
X372543Y159788D01*
X371557Y160196D01*
X370500Y160335D01*
D02*
G37*
G36*
X360500D02*
X359443Y160196D01*
X358457Y159788D01*
X357611Y159139D01*
X356962Y158292D01*
X356554Y157307D01*
X356415Y156250D01*
Y153750D01*
X356554Y152693D01*
X356962Y151707D01*
X357611Y150862D01*
X358457Y150212D01*
X359443Y149804D01*
X360500Y149665D01*
X361557Y149804D01*
X362543Y150212D01*
X363388Y150862D01*
X364038Y151707D01*
X364446Y152693D01*
X364585Y153750D01*
Y156250D01*
X364446Y157307D01*
X364038Y158292D01*
X363388Y159139D01*
X362543Y159788D01*
X361557Y160196D01*
X360500Y160335D01*
D02*
G37*
G36*
X350500D02*
X349443Y160196D01*
X348458Y159788D01*
X347611Y159139D01*
X346962Y158292D01*
X346554Y157307D01*
X346415Y156250D01*
Y153750D01*
X346554Y152693D01*
X346962Y151707D01*
X347611Y150862D01*
X348458Y150212D01*
X349443Y149804D01*
X350500Y149665D01*
X351557Y149804D01*
X352542Y150212D01*
X353389Y150862D01*
X354038Y151707D01*
X354446Y152693D01*
X354585Y153750D01*
Y156250D01*
X354446Y157307D01*
X354038Y158292D01*
X353389Y159139D01*
X352542Y159788D01*
X351557Y160196D01*
X350500Y160335D01*
D02*
G37*
G36*
X320500D02*
X319443Y160196D01*
X318458Y159788D01*
X317612Y159139D01*
X316962Y158292D01*
X316554Y157307D01*
X316415Y156250D01*
Y153750D01*
X316554Y152693D01*
X316962Y151707D01*
X317612Y150862D01*
X318458Y150212D01*
X319443Y149804D01*
X320500Y149665D01*
X321557Y149804D01*
X322543Y150212D01*
X323389Y150862D01*
X324038Y151707D01*
X324446Y152693D01*
X324585Y153750D01*
Y156250D01*
X324446Y157307D01*
X324038Y158292D01*
X323389Y159139D01*
X322543Y159788D01*
X321557Y160196D01*
X320500Y160335D01*
D02*
G37*
G36*
X310500D02*
X309443Y160196D01*
X308457Y159788D01*
X307611Y159139D01*
X306962Y158292D01*
X306554Y157307D01*
X306415Y156250D01*
Y153750D01*
X306554Y152693D01*
X306962Y151707D01*
X307611Y150862D01*
X308457Y150212D01*
X309443Y149804D01*
X310500Y149665D01*
X311557Y149804D01*
X312543Y150212D01*
X313388Y150862D01*
X314038Y151707D01*
X314446Y152693D01*
X314585Y153750D01*
Y156250D01*
X314446Y157307D01*
X314038Y158292D01*
X313388Y159139D01*
X312543Y159788D01*
X311557Y160196D01*
X310500Y160335D01*
D02*
G37*
G36*
X300500D02*
X299443Y160196D01*
X298458Y159788D01*
X297611Y159139D01*
X296962Y158292D01*
X296554Y157307D01*
X296415Y156250D01*
Y153750D01*
X296554Y152693D01*
X296962Y151707D01*
X297611Y150862D01*
X298458Y150212D01*
X299443Y149804D01*
X300500Y149665D01*
X301557Y149804D01*
X302542Y150212D01*
X303389Y150862D01*
X304038Y151707D01*
X304446Y152693D01*
X304585Y153750D01*
Y156250D01*
X304446Y157307D01*
X304038Y158292D01*
X303389Y159139D01*
X302542Y159788D01*
X301557Y160196D01*
X300500Y160335D01*
D02*
G37*
G36*
X290500D02*
X289443Y160196D01*
X288457Y159788D01*
X287612Y159139D01*
X286962Y158292D01*
X286554Y157307D01*
X286415Y156250D01*
Y153750D01*
X286554Y152693D01*
X286962Y151707D01*
X287612Y150862D01*
X288457Y150212D01*
X289443Y149804D01*
X290500Y149665D01*
X291557Y149804D01*
X292543Y150212D01*
X293389Y150862D01*
X294038Y151707D01*
X294446Y152693D01*
X294585Y153750D01*
Y156250D01*
X294446Y157307D01*
X294038Y158292D01*
X293389Y159139D01*
X292543Y159788D01*
X291557Y160196D01*
X290500Y160335D01*
D02*
G37*
G36*
X280500D02*
X279443Y160196D01*
X278457Y159788D01*
X277611Y159139D01*
X276962Y158292D01*
X276554Y157307D01*
X276415Y156250D01*
Y153750D01*
X276554Y152693D01*
X276962Y151707D01*
X277611Y150862D01*
X278457Y150212D01*
X279443Y149804D01*
X280500Y149665D01*
X281557Y149804D01*
X282542Y150212D01*
X283388Y150862D01*
X284038Y151707D01*
X284446Y152693D01*
X284585Y153750D01*
Y156250D01*
X284446Y157307D01*
X284038Y158292D01*
X283388Y159139D01*
X282542Y159788D01*
X281557Y160196D01*
X280500Y160335D01*
D02*
G37*
G36*
X270500D02*
X269443Y160196D01*
X268458Y159788D01*
X267612Y159139D01*
X266962Y158292D01*
X266554Y157307D01*
X266415Y156250D01*
Y153750D01*
X266554Y152693D01*
X266962Y151707D01*
X267612Y150862D01*
X268458Y150212D01*
X269443Y149804D01*
X270500Y149665D01*
X271557Y149804D01*
X272543Y150212D01*
X273389Y150862D01*
X274038Y151707D01*
X274446Y152693D01*
X274585Y153750D01*
Y156250D01*
X274446Y157307D01*
X274038Y158292D01*
X273389Y159139D01*
X272543Y159788D01*
X271557Y160196D01*
X270500Y160335D01*
D02*
G37*
G36*
X260500D02*
X259443Y160196D01*
X258457Y159788D01*
X257611Y159139D01*
X256962Y158292D01*
X256554Y157307D01*
X256415Y156250D01*
Y153750D01*
X256554Y152693D01*
X256962Y151707D01*
X257611Y150862D01*
X258457Y150212D01*
X259443Y149804D01*
X260500Y149665D01*
X261557Y149804D01*
X262543Y150212D01*
X263388Y150862D01*
X264038Y151707D01*
X264446Y152693D01*
X264585Y153750D01*
Y156250D01*
X264446Y157307D01*
X264038Y158292D01*
X263388Y159139D01*
X262543Y159788D01*
X261557Y160196D01*
X260500Y160335D01*
D02*
G37*
G36*
X230500D02*
X229443Y160196D01*
X228457Y159788D01*
X227611Y159139D01*
X226962Y158292D01*
X226554Y157307D01*
X226415Y156250D01*
Y153750D01*
X226554Y152693D01*
X226962Y151707D01*
X227611Y150862D01*
X228457Y150212D01*
X229443Y149804D01*
X230500Y149665D01*
X231557Y149804D01*
X232542Y150212D01*
X233388Y150862D01*
X234038Y151707D01*
X234446Y152693D01*
X234585Y153750D01*
Y156250D01*
X234446Y157307D01*
X234038Y158292D01*
X233388Y159139D01*
X232542Y159788D01*
X231557Y160196D01*
X230500Y160335D01*
D02*
G37*
G36*
X220500D02*
X219443Y160196D01*
X218458Y159788D01*
X217612Y159139D01*
X216962Y158292D01*
X216554Y157307D01*
X216415Y156250D01*
Y153750D01*
X216554Y152693D01*
X216962Y151707D01*
X217612Y150862D01*
X218458Y150212D01*
X219443Y149804D01*
X220500Y149665D01*
X221557Y149804D01*
X222543Y150212D01*
X223389Y150862D01*
X224038Y151707D01*
X224446Y152693D01*
X224585Y153750D01*
Y156250D01*
X224446Y157307D01*
X224038Y158292D01*
X223389Y159139D01*
X222543Y159788D01*
X221557Y160196D01*
X220500Y160335D01*
D02*
G37*
G36*
X210500D02*
X209443Y160196D01*
X208457Y159788D01*
X207611Y159139D01*
X206962Y158292D01*
X206554Y157307D01*
X206415Y156250D01*
Y153750D01*
X206554Y152693D01*
X206962Y151707D01*
X207611Y150862D01*
X208457Y150212D01*
X209443Y149804D01*
X210500Y149665D01*
X211557Y149804D01*
X212543Y150212D01*
X213388Y150862D01*
X214038Y151707D01*
X214446Y152693D01*
X214585Y153750D01*
Y156250D01*
X214446Y157307D01*
X214038Y158292D01*
X213388Y159139D01*
X212543Y159788D01*
X211557Y160196D01*
X210500Y160335D01*
D02*
G37*
G36*
X200500D02*
X199443Y160196D01*
X198458Y159788D01*
X197611Y159139D01*
X196962Y158292D01*
X196554Y157307D01*
X196415Y156250D01*
Y153750D01*
X196554Y152693D01*
X196962Y151707D01*
X197611Y150862D01*
X198458Y150212D01*
X199443Y149804D01*
X200500Y149665D01*
X201557Y149804D01*
X202542Y150212D01*
X203389Y150862D01*
X204038Y151707D01*
X204446Y152693D01*
X204585Y153750D01*
Y156250D01*
X204446Y157307D01*
X204038Y158292D01*
X203389Y159139D01*
X202542Y159788D01*
X201557Y160196D01*
X200500Y160335D01*
D02*
G37*
G36*
X190500D02*
X189443Y160196D01*
X188458Y159788D01*
X187611Y159139D01*
X186962Y158292D01*
X186554Y157307D01*
X186415Y156250D01*
Y153750D01*
X186554Y152693D01*
X186962Y151707D01*
X187611Y150862D01*
X188458Y150212D01*
X189443Y149804D01*
X190500Y149665D01*
X191557Y149804D01*
X192543Y150212D01*
X193388Y150862D01*
X194038Y151707D01*
X194446Y152693D01*
X194585Y153750D01*
Y156250D01*
X194446Y157307D01*
X194038Y158292D01*
X193388Y159139D01*
X192543Y159788D01*
X191557Y160196D01*
X190500Y160335D01*
D02*
G37*
G36*
X180500D02*
X179443Y160196D01*
X178457Y159788D01*
X177611Y159139D01*
X176962Y158292D01*
X176554Y157307D01*
X176415Y156250D01*
Y153750D01*
X176554Y152693D01*
X176962Y151707D01*
X177611Y150862D01*
X178457Y150212D01*
X179443Y149804D01*
X180500Y149665D01*
X181557Y149804D01*
X182543Y150212D01*
X183388Y150862D01*
X184038Y151707D01*
X184446Y152693D01*
X184585Y153750D01*
Y156250D01*
X184446Y157307D01*
X184038Y158292D01*
X183388Y159139D01*
X182543Y159788D01*
X181557Y160196D01*
X180500Y160335D01*
D02*
G37*
G36*
X170500D02*
X169443Y160196D01*
X168457Y159788D01*
X167612Y159139D01*
X166962Y158292D01*
X166554Y157307D01*
X166415Y156250D01*
Y153750D01*
X166554Y152693D01*
X166962Y151707D01*
X167612Y150862D01*
X168457Y150212D01*
X169443Y149804D01*
X170500Y149665D01*
X171557Y149804D01*
X172543Y150212D01*
X173389Y150862D01*
X174038Y151707D01*
X174446Y152693D01*
X174585Y153750D01*
Y156250D01*
X174446Y157307D01*
X174038Y158292D01*
X173389Y159139D01*
X172543Y159788D01*
X171557Y160196D01*
X170500Y160335D01*
D02*
G37*
%LPD*%
G36*
X276915Y349750D02*
X277054Y349048D01*
X277452Y348452D01*
X282502Y343402D01*
X283098Y343004D01*
X283695Y342886D01*
X284050Y342648D01*
X284900Y342479D01*
X285750Y342648D01*
X286073Y342865D01*
X289670D01*
X289719Y342365D01*
X289150Y342252D01*
X288527Y341835D01*
X276580D01*
X276429Y342335D01*
X276570Y342430D01*
X277052Y343150D01*
X277221Y344000D01*
X277052Y344850D01*
X276570Y345570D01*
X275850Y346052D01*
X275468Y346128D01*
X267558Y354038D01*
X266962Y354436D01*
X266260Y354575D01*
X229744D01*
X229421Y354792D01*
X228571Y354961D01*
X227721Y354792D01*
X227001Y354310D01*
X226519Y353590D01*
X226350Y352740D01*
X226519Y351890D01*
X227001Y351170D01*
X227721Y350689D01*
X228571Y350519D01*
X229421Y350689D01*
X229744Y350905D01*
X265500D01*
X272872Y343532D01*
X272948Y343150D01*
X273430Y342430D01*
X273571Y342335D01*
X273420Y341835D01*
X205260D01*
X202835Y344260D01*
Y344827D01*
X203052Y345150D01*
X203221Y346000D01*
X203052Y346850D01*
X202570Y347570D01*
X201850Y348052D01*
X201000Y348221D01*
X200150Y348052D01*
X199430Y347570D01*
X199335Y347429D01*
X198835Y347580D01*
Y357240D01*
X199760Y358165D01*
X209826D01*
X210150Y357948D01*
X211000Y357779D01*
X211850Y357948D01*
X212570Y358430D01*
X213052Y359150D01*
X213221Y360000D01*
X213052Y360850D01*
X212570Y361570D01*
X211850Y362052D01*
X211000Y362221D01*
X210150Y362052D01*
X209826Y361835D01*
X199000D01*
X198582Y361752D01*
X198152Y362154D01*
X198221Y362500D01*
X198088Y363165D01*
X198397Y363665D01*
X276915D01*
Y349750D01*
D02*
G37*
G36*
X288165Y319400D02*
X288304Y318698D01*
X288702Y318102D01*
X290202Y316602D01*
X290602Y316335D01*
X290450Y315835D01*
X223835D01*
Y318300D01*
X223696Y319002D01*
X223298Y319598D01*
X205193Y337703D01*
X205384Y338165D01*
X288165D01*
Y319400D01*
D02*
G37*
G36*
X482595Y187810D02*
X482582Y187721D01*
X482050Y187545D01*
X479120Y190476D01*
X478524Y190874D01*
X477822Y191013D01*
X461178D01*
X460476Y190874D01*
X460140Y190649D01*
X459650Y190552D01*
X458930Y190070D01*
X458448Y189350D01*
X458279Y188500D01*
X458448Y187650D01*
X458930Y186930D01*
X459650Y186448D01*
X460500Y186279D01*
X461350Y186448D01*
X462070Y186930D01*
X462346Y187343D01*
X473747D01*
X473983Y186902D01*
X473948Y186850D01*
X473779Y186000D01*
X473927Y185258D01*
X473677Y184932D01*
X473558Y184835D01*
X399330D01*
X399281Y185335D01*
X399850Y185448D01*
X400174Y185665D01*
X449500D01*
X450202Y185804D01*
X450798Y186202D01*
X452298Y187702D01*
X452696Y188298D01*
X452835Y189000D01*
Y192240D01*
X453260Y192665D01*
X477740D01*
X482595Y187810D01*
D02*
G37*
D20*
X536000Y351000D02*
D03*
X545000D02*
D03*
D43*
X390000Y357500D02*
Y359600D01*
X293500Y323700D02*
Y342800D01*
X291600Y344700D02*
X293500Y342800D01*
X284900Y344700D02*
X291600D01*
X278750Y349750D02*
X283800Y344700D01*
X284900D01*
X545000Y362900D02*
Y366600D01*
Y351000D02*
Y362900D01*
X545200Y362700D01*
X550200D01*
X320400Y331300D02*
Y345600D01*
X294900Y322300D02*
X373700D01*
X293500Y323700D02*
X294900Y322300D01*
X375000Y323600D02*
Y344000D01*
X373700Y322300D02*
X375000Y323600D01*
X204500Y340000D02*
X290000D01*
X291500Y317900D02*
X379000D01*
X290000Y319400D02*
X291500Y317900D01*
X290000Y319400D02*
Y340000D01*
X380000Y318900D02*
Y339000D01*
X379000Y317900D02*
X380000Y318900D01*
X222000Y314000D02*
X368000D01*
X222000D02*
Y318300D01*
X197000Y343300D02*
X222000Y318300D01*
X197000Y343300D02*
Y358000D01*
X401900Y215100D02*
X402000Y215000D01*
X372100Y215100D02*
X401900D01*
X473000Y213870D02*
Y247000D01*
X470630Y211500D02*
X473000Y213870D01*
X459678Y211500D02*
X470630D01*
X456178Y208000D02*
X459678Y211500D01*
X392000Y208000D02*
X456178D01*
X463178Y207500D02*
X489500D01*
X458678Y203000D02*
X463178Y207500D01*
X382000Y203000D02*
X458678D01*
X489500Y207500D02*
X490500Y206500D01*
X344000Y377500D02*
X413500D01*
X342500Y376000D02*
X344000Y377500D01*
X342500Y360000D02*
Y376000D01*
X318000Y360000D02*
X342500D01*
X290000Y340000D02*
Y340200D01*
X388000Y355500D02*
X390000Y357500D01*
X220000Y180500D02*
X222000Y182500D01*
X185000Y180500D02*
X220000D01*
X222000Y182500D02*
Y187000D01*
X278000Y365500D02*
X278750Y364750D01*
Y349750D02*
Y364750D01*
X266260Y352740D02*
X275000Y344000D01*
X228571Y352740D02*
X266260D01*
X201000Y343500D02*
X204500Y340000D01*
X413500Y373000D02*
Y377500D01*
X451000Y343000D02*
X455500D01*
X449500Y344500D02*
X451000Y343000D01*
X449500Y344500D02*
Y350000D01*
X447500Y352000D02*
X449500Y350000D01*
X407500Y352000D02*
X447500D01*
X513370Y212870D02*
Y219000D01*
X512000Y211500D02*
X513370Y212870D01*
X485500Y211500D02*
X512000D01*
X485500Y283500D02*
X486000Y284000D01*
X485500Y267000D02*
Y283500D01*
X438000Y287500D02*
X499500D01*
X501500Y285500D01*
X451000Y189000D02*
Y193000D01*
X452500Y194500D01*
X478500D01*
X485000Y188000D01*
X529200Y185000D02*
X534000Y189800D01*
X488000Y185000D02*
X529200D01*
X485000Y188000D02*
X488000Y185000D01*
X173500Y260500D02*
X174000Y260000D01*
X181000D01*
X201000Y343500D02*
Y346000D01*
X197000Y358000D02*
X199000Y360000D01*
X211000D01*
X196000Y362500D02*
Y364500D01*
X197000Y365500D01*
X458000Y338500D02*
X463500Y344000D01*
X397500Y338500D02*
X458000D01*
X501500Y264000D02*
Y285500D01*
X455500Y360000D02*
X506500D01*
X455000Y359500D02*
X455500Y360000D01*
X506500Y245500D02*
Y306000D01*
X486500Y198500D02*
X506000D01*
X388000Y334000D02*
Y343500D01*
Y303500D02*
Y334000D01*
X386700Y344800D02*
X388000Y343500D01*
X375800Y344800D02*
X386700D01*
X542600Y369000D02*
X545000Y366600D01*
X523000Y369000D02*
X542600D01*
X521500Y367500D02*
X523000Y369000D01*
X521500Y346000D02*
Y367500D01*
X519500Y344000D02*
X521500Y346000D01*
X475500Y344000D02*
X519500D01*
X463500D02*
X470000D01*
X433000Y256000D02*
Y325000D01*
X430500Y327500D02*
X433000Y325000D01*
X397500Y327500D02*
X430500D01*
X469000Y251000D02*
X473000Y247000D01*
X438000Y251000D02*
X469000D01*
X433000Y256000D02*
X438000Y251000D01*
X477822Y189178D02*
X486000Y181000D01*
X474500Y183000D02*
X476000Y184500D01*
X461178Y189178D02*
X477822D01*
X460500Y188500D02*
X461178Y189178D01*
X476000Y184500D02*
Y186000D01*
X486000Y181000D02*
X495500D01*
X478000Y237500D02*
Y243500D01*
Y237500D02*
X480500Y235000D01*
X516000D01*
X516500Y235500D01*
X438000Y303500D02*
Y326000D01*
X440000Y328000D01*
X531000D01*
X213000Y207000D02*
X218500Y212500D01*
X213000Y187500D02*
Y207000D01*
X182000Y204500D02*
X207500D01*
X186000Y361000D02*
Y368000D01*
X307000Y205167D02*
Y210500D01*
Y205167D02*
X307500Y204667D01*
X393000Y183000D02*
X474500D01*
X391000Y185000D02*
X393000Y183000D01*
X391000Y185000D02*
Y187500D01*
X302000D02*
X391000D01*
X399000D02*
X449500D01*
X184000Y181500D02*
Y195500D01*
Y181500D02*
X185000Y180500D01*
X481000Y204000D02*
X486500Y198500D01*
X465500Y204000D02*
X481000D01*
X490500Y203500D02*
Y206500D01*
X480000Y364000D02*
Y366500D01*
X478900Y367600D02*
X480000Y366500D01*
X368600Y367600D02*
X478900D01*
X518500Y319000D02*
X531000D01*
X516500Y317000D02*
X518500Y319000D01*
X516500Y235500D02*
Y317000D01*
X534000Y189800D02*
Y277500D01*
X521000Y279000D02*
X521500Y279500D01*
X532000D01*
X534000Y277500D01*
X460000Y334000D02*
X465000Y339000D01*
X388000Y334000D02*
X460000Y334000D01*
X305000Y212500D02*
X307000Y210500D01*
X218500Y212500D02*
X305000D01*
X465000Y339000D02*
X521000D01*
X544250Y350250D02*
X545000Y351000D01*
X544250Y329500D02*
Y350250D01*
X449500Y187500D02*
X451000Y189000D01*
X497500Y165500D02*
Y179000D01*
X495500Y181000D02*
X497500Y179000D01*
X496000Y164000D02*
X497500Y165500D01*
X440000Y164000D02*
X496000D01*
X181000Y205500D02*
Y260000D01*
Y205500D02*
X182000Y204500D01*
X284000Y356062D02*
X284562Y355500D01*
X284000Y356062D02*
Y360500D01*
X284562Y355500D02*
X388000D01*
X365000Y364000D02*
X368600Y367600D01*
X375000Y344000D02*
X375800Y344800D01*
X365000Y360500D02*
Y364000D01*
X299000Y369000D02*
X300000Y368000D01*
X187000Y369000D02*
X299000D01*
X186000Y368000D02*
X187000Y369000D01*
X300000Y360500D02*
Y368000D01*
X197000Y365500D02*
X278000D01*
X530700Y328300D02*
X531000Y328000D01*
X530700Y328300D02*
Y338200D01*
X536000Y343500D01*
Y351000D01*
X171000Y391500D02*
Y394000D01*
D44*
X188500Y260500D02*
X189000Y260000D01*
X212000D01*
X452200Y228200D02*
X458000Y234000D01*
X192000Y228200D02*
X452200D01*
X458000Y234000D02*
Y243500D01*
X215500Y273500D02*
Y298500D01*
Y263500D02*
Y273500D01*
X212000Y260000D02*
X215500Y263500D01*
X208000Y306000D02*
X215500Y298500D01*
D45*
X262000Y188500D02*
X283000D01*
X292000Y188000D02*
Y201000D01*
X290000Y203000D02*
X292000Y201000D01*
X260000Y186500D02*
X262000Y188500D01*
X260000Y165000D02*
Y186500D01*
X233000Y196000D02*
Y201500D01*
X234500Y203000D01*
X290000D01*
D46*
X288000Y243200D02*
D03*
D47*
X298000D02*
D03*
X308000D02*
D03*
X318000D02*
D03*
X328000D02*
D03*
X338000D02*
D03*
X348000D02*
D03*
X358000D02*
D03*
X368000D02*
D03*
X378000D02*
D03*
X388000D02*
D03*
X398000D02*
D03*
X408000D02*
D03*
X418000D02*
D03*
X428000D02*
D03*
X438000D02*
D03*
X448000D02*
D03*
X458000D02*
D03*
X468000D02*
D03*
X478000D02*
D03*
Y303200D02*
D03*
X468000D02*
D03*
X458000D02*
D03*
X448000D02*
D03*
X438000D02*
D03*
X428000D02*
D03*
X418000D02*
D03*
X408000D02*
D03*
X398000D02*
D03*
X388000D02*
D03*
X378000D02*
D03*
X368000D02*
D03*
X358000D02*
D03*
X348000D02*
D03*
X338000D02*
D03*
X328000D02*
D03*
X318000D02*
D03*
X308000D02*
D03*
X298000D02*
D03*
X288000D02*
D03*
D48*
X501000Y394000D02*
D03*
X481000D02*
D03*
X451000D02*
D03*
X461000D02*
D03*
X471000D02*
D03*
X491000D02*
D03*
X511000D02*
D03*
X411000D02*
D03*
X391000D02*
D03*
X361000D02*
D03*
X371000D02*
D03*
X381000D02*
D03*
X401000D02*
D03*
X421000D02*
D03*
X321000D02*
D03*
X301000D02*
D03*
X271000D02*
D03*
X281000D02*
D03*
X291000D02*
D03*
X311000D02*
D03*
X331000D02*
D03*
X231000D02*
D03*
X211000D02*
D03*
X181000D02*
D03*
X191000D02*
D03*
X201000D02*
D03*
X221000D02*
D03*
X241000D02*
D03*
X170500Y155000D02*
D03*
X190500D02*
D03*
X210500D02*
D03*
X220500D02*
D03*
X230500D02*
D03*
X200500D02*
D03*
X180500D02*
D03*
X260500D02*
D03*
X280500D02*
D03*
X300500D02*
D03*
X310500D02*
D03*
X320500D02*
D03*
X290500D02*
D03*
X270500D02*
D03*
X350500D02*
D03*
X370500D02*
D03*
X390500D02*
D03*
X400500D02*
D03*
X410500D02*
D03*
X380500D02*
D03*
X360500D02*
D03*
X440500D02*
D03*
X460500D02*
D03*
X480500D02*
D03*
X490500D02*
D03*
X500500D02*
D03*
X470500D02*
D03*
X450500D02*
D03*
D49*
X441000Y394000D02*
D03*
X351000D02*
D03*
X261000D02*
D03*
X171000D02*
D03*
X240500Y155000D02*
D03*
X330500D02*
D03*
X420500D02*
D03*
X510500D02*
D03*
D50*
X188500Y260500D02*
D03*
D51*
X173500D02*
D03*
D52*
X192000Y218100D02*
D03*
Y228200D02*
D03*
Y238000D02*
D03*
D53*
X551000Y229000D02*
D03*
Y249000D02*
D03*
Y269000D02*
D03*
Y279000D02*
D03*
Y289000D02*
D03*
Y259000D02*
D03*
Y239000D02*
D03*
D54*
Y299000D02*
D03*
D55*
X530700Y338200D02*
D03*
X550200Y362700D02*
D03*
X531000Y363000D02*
D03*
X549800Y337600D02*
D03*
D56*
X198000Y286000D02*
D03*
D57*
X183000Y306000D02*
D03*
X208000D02*
D03*
D58*
X390000Y359600D02*
D03*
X284900Y344700D02*
D03*
X320400Y331300D02*
D03*
Y345600D02*
D03*
X372100Y215100D02*
D03*
X402000Y215000D02*
D03*
X392000Y208000D02*
D03*
X382000Y203000D02*
D03*
X342500Y360000D02*
D03*
X290000Y340200D02*
D03*
X222000Y187000D02*
D03*
X275000Y344000D02*
D03*
X228571Y352740D02*
D03*
X413500Y373000D02*
D03*
X318000Y360000D02*
D03*
X407500Y352000D02*
D03*
X455500Y343000D02*
D03*
X485500Y211500D02*
D03*
X486000Y284000D02*
D03*
X485500Y267000D02*
D03*
X513370Y219000D02*
D03*
X201000Y346000D02*
D03*
X211000Y360000D02*
D03*
X196000Y362500D02*
D03*
X368000Y314000D02*
D03*
X397500Y338500D02*
D03*
X438000Y287500D02*
D03*
X506500Y360000D02*
D03*
Y306000D02*
D03*
X506000Y198500D02*
D03*
X506500Y244500D02*
D03*
X501500Y264000D02*
D03*
X470000Y344000D02*
D03*
X475500D02*
D03*
X397500Y327500D02*
D03*
X476000Y186000D02*
D03*
X207500Y204500D02*
D03*
X215500Y273500D02*
D03*
X213000Y187500D02*
D03*
X186000Y361000D02*
D03*
X283000Y188500D02*
D03*
X292000Y188000D02*
D03*
X307500Y204667D02*
D03*
X391000Y187500D02*
D03*
X399000D02*
D03*
X184000Y195500D02*
D03*
X465500Y204000D02*
D03*
X455000Y359500D02*
D03*
X480000Y364000D02*
D03*
X521000Y339000D02*
D03*
X544250Y329500D02*
D03*
X521000Y279000D02*
D03*
X485000Y188000D02*
D03*
X490500Y203500D02*
D03*
X460500Y188500D02*
D03*
X440000Y164000D02*
D03*
X302000Y187500D02*
D03*
X260000Y165000D02*
D03*
X233000Y196000D02*
D03*
X465000Y339000D02*
D03*
X365000Y360500D02*
D03*
X380000Y339000D02*
D03*
X375000Y344000D02*
D03*
X284000Y360500D02*
D03*
X300000D02*
D03*
D59*
X531000Y319000D02*
D03*
Y328000D02*
D03*
M02*
