G04*
G04 #@! TF.GenerationSoftware,Altium Limited,Altium Designer,18.1.6 (161)*
G04*
G04 Layer_Color=65535*
%FSLAX25Y25*%
%MOIN*%
G70*
G01*
G75*
%ADD10C,0.02362*%
%ADD11C,0.00984*%
%ADD12C,0.01000*%
%ADD13C,0.00700*%
%ADD14C,0.00600*%
%ADD15C,0.00787*%
%ADD16C,0.00400*%
%ADD17C,0.00500*%
G36*
X240500Y162500D02*
X243000Y165000D01*
X238000D01*
X240500Y162500D01*
D02*
G37*
G36*
X197600Y218100D02*
X200100Y215600D01*
Y220600D01*
X197600Y218100D01*
D02*
G37*
G36*
X178500Y258000D02*
X175000Y254500D01*
X172207D01*
X172040Y254508D01*
X171712Y254573D01*
X171402Y254702D01*
X171124Y254888D01*
X171000Y255000D01*
D01*
X170353Y255646D01*
X170274Y255734D01*
X170142Y255931D01*
X170052Y256150D01*
X170006Y256382D01*
X170000Y256500D01*
D01*
X169500Y257000D01*
X169387Y257124D01*
X169202Y257402D01*
X169073Y257712D01*
X169008Y258040D01*
X169000Y258207D01*
D01*
Y263293D01*
X169008Y263460D01*
X169073Y263788D01*
X169202Y264098D01*
X169387Y264376D01*
X169500Y264500D01*
Y264500D01*
X170646Y265646D01*
X170734Y265726D01*
X170931Y265858D01*
X171150Y265948D01*
X171382Y265994D01*
X171500Y266000D01*
X171624Y266112D01*
X171902Y266298D01*
X172212Y266426D01*
X172540Y266492D01*
X172707Y266500D01*
D01*
X174086D01*
X174420Y266484D01*
X175077Y266353D01*
X175695Y266097D01*
X176252Y265725D01*
X176500Y265500D01*
D01*
X177646Y264353D01*
X177726Y264266D01*
X177857Y264069D01*
X177948Y263850D01*
X177994Y263618D01*
X178000Y263500D01*
D01*
X178500D01*
Y277500D01*
X173000Y275500D01*
X169000Y272500D01*
X166000Y268500D01*
X164000Y262500D01*
Y258500D01*
X165500Y253500D01*
X168500Y249000D01*
X172000Y246000D01*
X176500Y244000D01*
X178500Y243500D01*
Y258000D01*
D02*
G37*
G36*
X171000Y386500D02*
X168500Y384000D01*
X173500D01*
X171000Y386500D01*
D02*
G37*
G36*
X261000D02*
X258500Y384000D01*
X263500D01*
X261000Y386500D01*
D02*
G37*
G36*
X330500Y162500D02*
X333000Y165000D01*
X328000D01*
X330500Y162500D01*
D02*
G37*
G36*
X420500D02*
X423000Y165000D01*
X418000D01*
X420500Y162500D01*
D02*
G37*
G36*
X510500D02*
X513000Y165000D01*
X508000D01*
X510500Y162500D01*
D02*
G37*
G36*
X351000Y386500D02*
X348500Y384000D01*
X353500D01*
X351000Y386500D01*
D02*
G37*
G36*
X441000D02*
X438500Y384000D01*
X443500D01*
X441000Y386500D01*
D02*
G37*
G36*
X543500Y299000D02*
X541000Y301500D01*
Y296500D01*
X543500Y299000D01*
D02*
G37*
G36*
X345870Y221780D02*
X344640D01*
Y222912D01*
X345870D01*
Y221780D01*
D02*
G37*
G36*
X309817Y223010D02*
X309914Y223000D01*
X310031Y222981D01*
X310158Y222961D01*
X310295Y222932D01*
X310451Y222893D01*
X310597Y222844D01*
X310763Y222795D01*
X310919Y222727D01*
X311076Y222639D01*
X311232Y222551D01*
X311378Y222444D01*
X311525Y222317D01*
X311534D01*
X311544Y222297D01*
X311593Y222239D01*
X311671Y222151D01*
X311769Y222014D01*
X311876Y221849D01*
X311993Y221653D01*
X312101Y221419D01*
X312188Y221146D01*
X310910Y220843D01*
Y220853D01*
X310900Y220863D01*
X310890Y220921D01*
X310851Y221009D01*
X310802Y221126D01*
X310744Y221253D01*
X310656Y221380D01*
X310558Y221507D01*
X310432Y221624D01*
X310412Y221634D01*
X310363Y221673D01*
X310295Y221722D01*
X310188Y221770D01*
X310061Y221829D01*
X309905Y221868D01*
X309739Y221907D01*
X309553Y221917D01*
X309485D01*
X309436Y221907D01*
X309377Y221897D01*
X309309Y221887D01*
X309143Y221849D01*
X308958Y221790D01*
X308763Y221702D01*
X308675Y221643D01*
X308577Y221575D01*
X308489Y221487D01*
X308401Y221399D01*
Y221390D01*
X308382Y221380D01*
X308362Y221341D01*
X308333Y221302D01*
X308304Y221243D01*
X308265Y221175D01*
X308226Y221097D01*
X308187Y220999D01*
X308138Y220892D01*
X308099Y220775D01*
X308060Y220638D01*
X308031Y220482D01*
X308001Y220326D01*
X307982Y220141D01*
X307972Y219945D01*
X307962Y219740D01*
Y219731D01*
Y219691D01*
Y219623D01*
X307972Y219545D01*
Y219438D01*
X307982Y219330D01*
X308001Y219203D01*
X308021Y219067D01*
X308070Y218784D01*
X308148Y218491D01*
X308196Y218354D01*
X308255Y218228D01*
X308314Y218110D01*
X308392Y218003D01*
X308401Y217993D01*
X308411Y217984D01*
X308470Y217925D01*
X308567Y217847D01*
X308694Y217749D01*
X308860Y217652D01*
X309055Y217574D01*
X309280Y217515D01*
X309397Y217505D01*
X309524Y217495D01*
X309573D01*
X309612Y217505D01*
X309709Y217515D01*
X309826Y217535D01*
X309973Y217574D01*
X310119Y217632D01*
X310266Y217710D01*
X310412Y217818D01*
X310432Y217837D01*
X310471Y217876D01*
X310539Y217964D01*
X310617Y218071D01*
X310705Y218218D01*
X310793Y218403D01*
X310880Y218608D01*
X310949Y218862D01*
X312208Y218472D01*
Y218462D01*
X312198Y218423D01*
X312179Y218374D01*
X312149Y218296D01*
X312120Y218208D01*
X312081Y218110D01*
X312032Y217993D01*
X311974Y217876D01*
X311847Y217622D01*
X311681Y217359D01*
X311476Y217115D01*
X311368Y216998D01*
X311242Y216900D01*
X311232Y216890D01*
X311212Y216881D01*
X311173Y216851D01*
X311124Y216822D01*
X311056Y216783D01*
X310978Y216744D01*
X310880Y216695D01*
X310773Y216646D01*
X310656Y216598D01*
X310529Y216549D01*
X310392Y216510D01*
X310246Y216471D01*
X310080Y216441D01*
X309914Y216412D01*
X309729Y216402D01*
X309543Y216393D01*
X309485D01*
X309417Y216402D01*
X309329D01*
X309221Y216422D01*
X309094Y216441D01*
X308958Y216461D01*
X308802Y216500D01*
X308636Y216549D01*
X308470Y216607D01*
X308294Y216676D01*
X308118Y216763D01*
X307943Y216861D01*
X307767Y216978D01*
X307601Y217105D01*
X307445Y217261D01*
X307435Y217271D01*
X307406Y217300D01*
X307367Y217349D01*
X307318Y217417D01*
X307259Y217505D01*
X307181Y217613D01*
X307113Y217740D01*
X307035Y217886D01*
X306957Y218042D01*
X306889Y218228D01*
X306820Y218423D01*
X306752Y218637D01*
X306703Y218862D01*
X306664Y219106D01*
X306635Y219369D01*
X306625Y219643D01*
Y219662D01*
Y219711D01*
X306635Y219799D01*
Y219906D01*
X306654Y220043D01*
X306664Y220199D01*
X306693Y220365D01*
X306733Y220550D01*
X306771Y220755D01*
X306830Y220951D01*
X306889Y221165D01*
X306967Y221370D01*
X307064Y221575D01*
X307172Y221770D01*
X307299Y221956D01*
X307445Y222131D01*
X307455Y222141D01*
X307484Y222171D01*
X307533Y222210D01*
X307591Y222268D01*
X307679Y222337D01*
X307777Y222415D01*
X307894Y222493D01*
X308031Y222581D01*
X308177Y222659D01*
X308343Y222737D01*
X308519Y222815D01*
X308714Y222883D01*
X308919Y222942D01*
X309143Y222981D01*
X309377Y223010D01*
X309621Y223020D01*
X309739D01*
X309817Y223010D01*
D02*
G37*
G36*
X359378Y221234D02*
X359485Y221214D01*
X359602Y221185D01*
X359749Y221146D01*
X359895Y221087D01*
X360042Y221009D01*
X359661Y219935D01*
X359651Y219945D01*
X359612Y219965D01*
X359544Y220004D01*
X359475Y220043D01*
X359378Y220072D01*
X359280Y220111D01*
X359183Y220131D01*
X359075Y220141D01*
X359036D01*
X358987Y220131D01*
X358929Y220121D01*
X358861Y220101D01*
X358783Y220082D01*
X358704Y220043D01*
X358636Y219994D01*
X358626Y219984D01*
X358607Y219965D01*
X358578Y219926D01*
X358539Y219877D01*
X358490Y219809D01*
X358441Y219711D01*
X358392Y219604D01*
X358353Y219477D01*
Y219457D01*
X358343Y219438D01*
X358334Y219399D01*
Y219360D01*
X358324Y219301D01*
X358314Y219223D01*
X358304Y219145D01*
X358295Y219047D01*
X358285Y218940D01*
X358275Y218813D01*
Y218667D01*
X358265Y218511D01*
X358256Y218335D01*
Y218140D01*
Y217925D01*
Y216500D01*
X357026D01*
Y221146D01*
X358168D01*
Y220492D01*
X358177Y220502D01*
X358217Y220560D01*
X358275Y220638D01*
X358343Y220736D01*
X358421Y220843D01*
X358509Y220941D01*
X358607Y221029D01*
X358695Y221097D01*
X358704Y221107D01*
X358734Y221116D01*
X358783Y221146D01*
X358851Y221175D01*
X358929Y221195D01*
X359017Y221224D01*
X359114Y221234D01*
X359222Y221243D01*
X359290D01*
X359378Y221234D01*
D02*
G37*
G36*
X343450D02*
X343557Y221214D01*
X343674Y221185D01*
X343821Y221146D01*
X343967Y221087D01*
X344113Y221009D01*
X343733Y219935D01*
X343723Y219945D01*
X343684Y219965D01*
X343616Y220004D01*
X343547Y220043D01*
X343450Y220072D01*
X343352Y220111D01*
X343254Y220131D01*
X343147Y220141D01*
X343108D01*
X343059Y220131D01*
X343001Y220121D01*
X342932Y220101D01*
X342854Y220082D01*
X342776Y220043D01*
X342708Y219994D01*
X342698Y219984D01*
X342679Y219965D01*
X342649Y219926D01*
X342610Y219877D01*
X342561Y219809D01*
X342513Y219711D01*
X342464Y219604D01*
X342425Y219477D01*
Y219457D01*
X342415Y219438D01*
X342405Y219399D01*
Y219360D01*
X342395Y219301D01*
X342386Y219223D01*
X342376Y219145D01*
X342366Y219047D01*
X342356Y218940D01*
X342347Y218813D01*
Y218667D01*
X342337Y218511D01*
X342327Y218335D01*
Y218140D01*
Y217925D01*
Y216500D01*
X341097D01*
Y221146D01*
X342239D01*
Y220492D01*
X342249Y220502D01*
X342288Y220560D01*
X342347Y220638D01*
X342415Y220736D01*
X342493Y220843D01*
X342581Y220941D01*
X342679Y221029D01*
X342766Y221097D01*
X342776Y221107D01*
X342805Y221116D01*
X342854Y221146D01*
X342923Y221175D01*
X343001Y221195D01*
X343089Y221224D01*
X343186Y221234D01*
X343293Y221243D01*
X343362D01*
X343450Y221234D01*
D02*
G37*
G36*
X380518Y218940D02*
X382236Y216500D01*
X380733D01*
X379786Y217935D01*
X378830Y216500D01*
X377395D01*
X379064Y218891D01*
X377463Y221146D01*
X378966D01*
X379786Y219867D01*
X380655Y221146D01*
X382089D01*
X380518Y218940D01*
D02*
G37*
G36*
X370563D02*
X372281Y216500D01*
X370778D01*
X369831Y217935D01*
X368874Y216500D01*
X367440D01*
X369109Y218891D01*
X367508Y221146D01*
X369011D01*
X369831Y219867D01*
X370700Y221146D01*
X372134D01*
X370563Y218940D01*
D02*
G37*
G36*
X349511Y216500D02*
X348408D01*
X346534Y221146D01*
X347822D01*
X348700Y218774D01*
X348954Y217974D01*
Y217984D01*
X348974Y218023D01*
X348984Y218071D01*
X349003Y218140D01*
X349052Y218267D01*
X349071Y218325D01*
X349081Y218374D01*
Y218384D01*
X349091Y218403D01*
X349101Y218442D01*
X349120Y218501D01*
X349159Y218628D01*
X349208Y218774D01*
X350096Y221146D01*
X351355D01*
X349511Y216500D01*
D02*
G37*
G36*
X318415Y219535D02*
Y219526D01*
Y219487D01*
Y219428D01*
Y219350D01*
Y219252D01*
X318405Y219145D01*
Y219028D01*
Y218901D01*
X318386Y218628D01*
X318366Y218364D01*
X318357Y218237D01*
X318347Y218110D01*
X318327Y218003D01*
X318308Y217905D01*
Y217896D01*
Y217886D01*
X318288Y217827D01*
X318259Y217740D01*
X318220Y217622D01*
X318161Y217495D01*
X318103Y217359D01*
X318015Y217222D01*
X317917Y217095D01*
X317908Y217086D01*
X317869Y217037D01*
X317800Y216978D01*
X317722Y216910D01*
X317605Y216822D01*
X317478Y216734D01*
X317332Y216646D01*
X317166Y216568D01*
X317156D01*
X317146Y216559D01*
X317117Y216549D01*
X317078Y216539D01*
X317039Y216529D01*
X316981Y216510D01*
X316834Y216480D01*
X316658Y216441D01*
X316453Y216412D01*
X316209Y216393D01*
X315936Y216383D01*
X315790D01*
X315712Y216393D01*
X315624D01*
X315419Y216412D01*
X315194Y216432D01*
X314970Y216471D01*
X314745Y216519D01*
X314648Y216549D01*
X314550Y216588D01*
X314541D01*
X314531Y216598D01*
X314472Y216627D01*
X314384Y216676D01*
X314277Y216734D01*
X314160Y216822D01*
X314033Y216910D01*
X313916Y217027D01*
X313799Y217144D01*
X313789Y217164D01*
X313760Y217203D01*
X313711Y217271D01*
X313652Y217359D01*
X313594Y217466D01*
X313535Y217593D01*
X313477Y217720D01*
X313438Y217857D01*
Y217866D01*
Y217886D01*
X313428Y217915D01*
X313418Y217964D01*
X313408Y218013D01*
X313399Y218091D01*
X313389Y218169D01*
X313379Y218267D01*
X313369Y218374D01*
X313359Y218491D01*
X313350Y218628D01*
X313340Y218774D01*
X313330Y218930D01*
Y219106D01*
X313320Y219291D01*
Y219487D01*
Y222912D01*
X314619D01*
Y219428D01*
Y219418D01*
Y219389D01*
Y219350D01*
Y219291D01*
Y219233D01*
Y219155D01*
X314628Y218979D01*
Y218803D01*
X314638Y218628D01*
X314648Y218472D01*
Y218403D01*
X314658Y218354D01*
Y218335D01*
X314677Y218286D01*
X314706Y218218D01*
X314736Y218130D01*
X314794Y218023D01*
X314863Y217915D01*
X314941Y217818D01*
X315048Y217720D01*
X315068Y217710D01*
X315107Y217681D01*
X315175Y217642D01*
X315272Y217603D01*
X315390Y217564D01*
X315536Y217525D01*
X315712Y217495D01*
X315897Y217486D01*
X315985D01*
X316083Y217495D01*
X316209Y217515D01*
X316336Y217544D01*
X316473Y217583D01*
X316600Y217632D01*
X316717Y217710D01*
X316727Y217720D01*
X316766Y217749D01*
X316815Y217798D01*
X316863Y217866D01*
X316922Y217945D01*
X316981Y218032D01*
X317029Y218140D01*
X317059Y218257D01*
Y218276D01*
X317068Y218325D01*
X317078Y218403D01*
X317088Y218520D01*
X317098Y218667D01*
X317107Y218862D01*
Y218969D01*
X317117Y219086D01*
Y219213D01*
Y219350D01*
Y222912D01*
X318415D01*
Y219535D01*
D02*
G37*
G36*
X345870Y216500D02*
X344640D01*
Y221146D01*
X345870D01*
Y216500D01*
D02*
G37*
G36*
X337330Y222903D02*
X337506Y222893D01*
X337711Y222883D01*
X337906Y222864D01*
X338101Y222825D01*
X338277Y222785D01*
X338287D01*
X338306Y222776D01*
X338335Y222766D01*
X338374Y222756D01*
X338472Y222707D01*
X338609Y222649D01*
X338755Y222571D01*
X338911Y222463D01*
X339077Y222337D01*
X339233Y222190D01*
X339243D01*
X339253Y222171D01*
X339302Y222112D01*
X339370Y222024D01*
X339468Y221907D01*
X339565Y221751D01*
X339663Y221575D01*
X339760Y221380D01*
X339848Y221156D01*
Y221146D01*
X339858Y221126D01*
X339868Y221097D01*
X339877Y221048D01*
X339897Y220990D01*
X339916Y220912D01*
X339936Y220833D01*
X339955Y220736D01*
X339975Y220628D01*
X339995Y220521D01*
X340034Y220258D01*
X340053Y219965D01*
X340063Y219643D01*
Y219633D01*
Y219604D01*
Y219565D01*
Y219506D01*
X340053Y219438D01*
Y219360D01*
X340034Y219174D01*
X340014Y218959D01*
X339975Y218735D01*
X339926Y218501D01*
X339858Y218276D01*
Y218267D01*
X339848Y218247D01*
X339838Y218208D01*
X339819Y218159D01*
X339790Y218101D01*
X339760Y218032D01*
X339682Y217876D01*
X339585Y217691D01*
X339468Y217505D01*
X339331Y217320D01*
X339175Y217144D01*
X339155Y217134D01*
X339116Y217086D01*
X339038Y217027D01*
X338941Y216959D01*
X338804Y216871D01*
X338648Y216783D01*
X338472Y216705D01*
X338267Y216627D01*
X338247Y216617D01*
X338189Y216607D01*
X338101Y216588D01*
X337965Y216568D01*
X337808Y216539D01*
X337613Y216519D01*
X337379Y216510D01*
X337125Y216500D01*
X334705D01*
Y222912D01*
X337252D01*
X337330Y222903D01*
D02*
G37*
G36*
X330986Y221829D02*
X327541D01*
Y220404D01*
X330742D01*
Y219321D01*
X327541D01*
Y217583D01*
X331113D01*
Y216500D01*
X326243D01*
Y222912D01*
X330986D01*
Y221829D01*
D02*
G37*
G36*
X322768Y222903D02*
X322954Y222893D01*
X323139Y222883D01*
X323315Y222864D01*
X323471Y222844D01*
X323490D01*
X323539Y222834D01*
X323607Y222815D01*
X323695Y222785D01*
X323803Y222756D01*
X323920Y222707D01*
X324027Y222649D01*
X324144Y222581D01*
X324154Y222571D01*
X324193Y222541D01*
X324252Y222502D01*
X324320Y222434D01*
X324388Y222356D01*
X324476Y222268D01*
X324554Y222161D01*
X324632Y222044D01*
X324642Y222024D01*
X324662Y221985D01*
X324701Y221917D01*
X324740Y221829D01*
X324769Y221712D01*
X324808Y221585D01*
X324828Y221448D01*
X324837Y221292D01*
Y221273D01*
Y221214D01*
X324828Y221126D01*
X324808Y221019D01*
X324779Y220892D01*
X324730Y220755D01*
X324671Y220609D01*
X324593Y220463D01*
X324584Y220443D01*
X324545Y220404D01*
X324496Y220336D01*
X324418Y220258D01*
X324320Y220160D01*
X324213Y220072D01*
X324076Y219984D01*
X323930Y219906D01*
X323939D01*
X323959Y219897D01*
X323988Y219887D01*
X324027Y219877D01*
X324135Y219828D01*
X324261Y219770D01*
X324408Y219691D01*
X324554Y219594D01*
X324701Y219467D01*
X324828Y219321D01*
X324837Y219301D01*
X324876Y219252D01*
X324925Y219164D01*
X324993Y219047D01*
X325052Y218901D01*
X325101Y218745D01*
X325140Y218559D01*
X325150Y218354D01*
Y218335D01*
Y218276D01*
X325140Y218198D01*
X325120Y218081D01*
X325101Y217954D01*
X325062Y217808D01*
X325013Y217661D01*
X324945Y217505D01*
X324935Y217486D01*
X324906Y217437D01*
X324857Y217359D01*
X324798Y217271D01*
X324720Y217164D01*
X324623Y217056D01*
X324515Y216939D01*
X324388Y216842D01*
X324369Y216832D01*
X324330Y216803D01*
X324252Y216763D01*
X324144Y216715D01*
X324017Y216656D01*
X323871Y216607D01*
X323705Y216568D01*
X323520Y216539D01*
X323481D01*
X323451Y216529D01*
X323354D01*
X323285Y216519D01*
X323110D01*
X322993Y216510D01*
X322729D01*
X322563Y216500D01*
X319782D01*
Y222912D01*
X322602D01*
X322768Y222903D01*
D02*
G37*
G36*
X300535D02*
X300711Y222893D01*
X300916Y222883D01*
X301111Y222864D01*
X301306Y222825D01*
X301482Y222785D01*
X301491D01*
X301511Y222776D01*
X301540Y222766D01*
X301579Y222756D01*
X301677Y222707D01*
X301813Y222649D01*
X301960Y222571D01*
X302116Y222463D01*
X302282Y222337D01*
X302438Y222190D01*
X302448D01*
X302458Y222171D01*
X302506Y222112D01*
X302575Y222024D01*
X302672Y221907D01*
X302770Y221751D01*
X302868Y221575D01*
X302965Y221380D01*
X303053Y221156D01*
Y221146D01*
X303063Y221126D01*
X303073Y221097D01*
X303082Y221048D01*
X303102Y220990D01*
X303121Y220912D01*
X303141Y220833D01*
X303160Y220736D01*
X303180Y220628D01*
X303199Y220521D01*
X303238Y220258D01*
X303258Y219965D01*
X303268Y219643D01*
Y219633D01*
Y219604D01*
Y219565D01*
Y219506D01*
X303258Y219438D01*
Y219360D01*
X303238Y219174D01*
X303219Y218959D01*
X303180Y218735D01*
X303131Y218501D01*
X303063Y218276D01*
Y218267D01*
X303053Y218247D01*
X303043Y218208D01*
X303024Y218159D01*
X302994Y218101D01*
X302965Y218032D01*
X302887Y217876D01*
X302789Y217691D01*
X302672Y217505D01*
X302536Y217320D01*
X302379Y217144D01*
X302360Y217134D01*
X302321Y217086D01*
X302243Y217027D01*
X302145Y216959D01*
X302009Y216871D01*
X301852Y216783D01*
X301677Y216705D01*
X301472Y216627D01*
X301452Y216617D01*
X301394Y216607D01*
X301306Y216588D01*
X301169Y216568D01*
X301013Y216539D01*
X300818Y216519D01*
X300584Y216510D01*
X300330Y216500D01*
X297909D01*
Y222912D01*
X300457D01*
X300535Y222903D01*
D02*
G37*
G36*
X296680Y221829D02*
X293234D01*
Y220404D01*
X296436D01*
Y219321D01*
X293234D01*
Y217583D01*
X296807D01*
Y216500D01*
X291936D01*
Y222912D01*
X296680D01*
Y221829D01*
D02*
G37*
G36*
X287798Y217583D02*
X291009D01*
Y216500D01*
X286500D01*
Y222854D01*
X287798D01*
Y217583D01*
D02*
G37*
G36*
X384920Y222922D02*
X384998D01*
X385086Y222912D01*
X385183Y222893D01*
X385291Y222873D01*
X385515Y222815D01*
X385749Y222737D01*
X385984Y222620D01*
X386091Y222541D01*
X386189Y222463D01*
X386198Y222454D01*
X386208Y222444D01*
X386237Y222415D01*
X386267Y222375D01*
X386345Y222278D01*
X386442Y222141D01*
X386540Y221966D01*
X386618Y221761D01*
X386677Y221536D01*
X386686Y221409D01*
X386696Y221273D01*
Y221253D01*
Y221195D01*
X386686Y221116D01*
X386667Y221009D01*
X386638Y220882D01*
X386599Y220755D01*
X386540Y220619D01*
X386462Y220482D01*
X386452Y220463D01*
X386423Y220424D01*
X386364Y220365D01*
X386296Y220287D01*
X386198Y220199D01*
X386091Y220111D01*
X385954Y220033D01*
X385808Y219955D01*
X385818D01*
X385827Y219945D01*
X385857Y219935D01*
X385896Y219916D01*
X385993Y219867D01*
X386111Y219799D01*
X386237Y219711D01*
X386374Y219604D01*
X386501Y219477D01*
X386618Y219330D01*
X386628Y219311D01*
X386667Y219262D01*
X386706Y219174D01*
X386765Y219057D01*
X386813Y218920D01*
X386862Y218755D01*
X386891Y218569D01*
X386901Y218374D01*
Y218364D01*
Y218335D01*
Y218286D01*
X386891Y218228D01*
X386882Y218149D01*
X386872Y218062D01*
X386852Y217964D01*
X386833Y217857D01*
X386765Y217632D01*
X386716Y217515D01*
X386657Y217388D01*
X386589Y217271D01*
X386521Y217154D01*
X386423Y217037D01*
X386325Y216929D01*
X386315Y216920D01*
X386296Y216910D01*
X386267Y216881D01*
X386218Y216842D01*
X386169Y216803D01*
X386101Y216754D01*
X386013Y216705D01*
X385925Y216656D01*
X385827Y216607D01*
X385710Y216559D01*
X385583Y216510D01*
X385457Y216471D01*
X385310Y216432D01*
X385154Y216402D01*
X384998Y216393D01*
X384822Y216383D01*
X384734D01*
X384676Y216393D01*
X384598D01*
X384510Y216412D01*
X384412Y216422D01*
X384315Y216441D01*
X384081Y216500D01*
X383837Y216578D01*
X383593Y216695D01*
X383475Y216763D01*
X383368Y216842D01*
X383358Y216851D01*
X383339Y216871D01*
X383309Y216900D01*
X383261Y216939D01*
X383212Y216998D01*
X383153Y217066D01*
X383095Y217144D01*
X383026Y217232D01*
X382968Y217330D01*
X382899Y217437D01*
X382841Y217564D01*
X382792Y217691D01*
X382743Y217837D01*
X382714Y217993D01*
X382695Y218149D01*
X382685Y218325D01*
Y218335D01*
Y218345D01*
Y218374D01*
Y218413D01*
X382695Y218511D01*
X382714Y218637D01*
X382743Y218784D01*
X382792Y218950D01*
X382851Y219116D01*
X382939Y219282D01*
Y219291D01*
X382948Y219301D01*
X382987Y219350D01*
X383046Y219438D01*
X383134Y219535D01*
X383251Y219643D01*
X383387Y219750D01*
X383553Y219857D01*
X383749Y219955D01*
X383739D01*
X383729Y219965D01*
X383671Y219994D01*
X383593Y220033D01*
X383485Y220101D01*
X383378Y220170D01*
X383261Y220267D01*
X383153Y220375D01*
X383065Y220502D01*
X383056Y220521D01*
X383036Y220560D01*
X382997Y220638D01*
X382958Y220726D01*
X382919Y220843D01*
X382880Y220980D01*
X382860Y221116D01*
X382851Y221273D01*
Y221282D01*
Y221302D01*
Y221341D01*
X382860Y221390D01*
X382870Y221458D01*
X382880Y221526D01*
X382909Y221692D01*
X382968Y221878D01*
X383065Y222083D01*
X383114Y222180D01*
X383183Y222278D01*
X383261Y222375D01*
X383348Y222463D01*
X383358Y222473D01*
X383368Y222483D01*
X383397Y222502D01*
X383436Y222541D01*
X383495Y222571D01*
X383553Y222610D01*
X383631Y222659D01*
X383710Y222698D01*
X383807Y222746D01*
X383915Y222785D01*
X384032Y222825D01*
X384159Y222864D01*
X384295Y222893D01*
X384442Y222912D01*
X384608Y222922D01*
X384773Y222932D01*
X384861D01*
X384920Y222922D01*
D02*
G37*
G36*
X374965D02*
X375043D01*
X375131Y222912D01*
X375228Y222893D01*
X375336Y222873D01*
X375560Y222815D01*
X375794Y222737D01*
X376028Y222620D01*
X376136Y222541D01*
X376233Y222463D01*
X376243Y222454D01*
X376253Y222444D01*
X376282Y222415D01*
X376311Y222375D01*
X376390Y222278D01*
X376487Y222141D01*
X376585Y221966D01*
X376663Y221761D01*
X376721Y221536D01*
X376731Y221409D01*
X376741Y221273D01*
Y221253D01*
Y221195D01*
X376731Y221116D01*
X376712Y221009D01*
X376682Y220882D01*
X376643Y220755D01*
X376585Y220619D01*
X376507Y220482D01*
X376497Y220463D01*
X376468Y220424D01*
X376409Y220365D01*
X376341Y220287D01*
X376243Y220199D01*
X376136Y220111D01*
X375999Y220033D01*
X375853Y219955D01*
X375863D01*
X375872Y219945D01*
X375902Y219935D01*
X375941Y219916D01*
X376038Y219867D01*
X376155Y219799D01*
X376282Y219711D01*
X376419Y219604D01*
X376546Y219477D01*
X376663Y219330D01*
X376673Y219311D01*
X376712Y219262D01*
X376751Y219174D01*
X376809Y219057D01*
X376858Y218920D01*
X376907Y218755D01*
X376936Y218569D01*
X376946Y218374D01*
Y218364D01*
Y218335D01*
Y218286D01*
X376936Y218228D01*
X376926Y218149D01*
X376917Y218062D01*
X376897Y217964D01*
X376878Y217857D01*
X376809Y217632D01*
X376761Y217515D01*
X376702Y217388D01*
X376634Y217271D01*
X376565Y217154D01*
X376468Y217037D01*
X376370Y216929D01*
X376360Y216920D01*
X376341Y216910D01*
X376311Y216881D01*
X376263Y216842D01*
X376214Y216803D01*
X376146Y216754D01*
X376058Y216705D01*
X375970Y216656D01*
X375872Y216607D01*
X375755Y216559D01*
X375628Y216510D01*
X375501Y216471D01*
X375355Y216432D01*
X375199Y216402D01*
X375043Y216393D01*
X374867Y216383D01*
X374779D01*
X374721Y216393D01*
X374643D01*
X374555Y216412D01*
X374457Y216422D01*
X374359Y216441D01*
X374125Y216500D01*
X373881Y216578D01*
X373637Y216695D01*
X373520Y216763D01*
X373413Y216842D01*
X373403Y216851D01*
X373383Y216871D01*
X373354Y216900D01*
X373305Y216939D01*
X373257Y216998D01*
X373198Y217066D01*
X373140Y217144D01*
X373071Y217232D01*
X373013Y217330D01*
X372944Y217437D01*
X372886Y217564D01*
X372837Y217691D01*
X372788Y217837D01*
X372759Y217993D01*
X372739Y218149D01*
X372730Y218325D01*
Y218335D01*
Y218345D01*
Y218374D01*
Y218413D01*
X372739Y218511D01*
X372759Y218637D01*
X372788Y218784D01*
X372837Y218950D01*
X372896Y219116D01*
X372983Y219282D01*
Y219291D01*
X372993Y219301D01*
X373032Y219350D01*
X373091Y219438D01*
X373179Y219535D01*
X373296Y219643D01*
X373432Y219750D01*
X373598Y219857D01*
X373793Y219955D01*
X373784D01*
X373774Y219965D01*
X373715Y219994D01*
X373637Y220033D01*
X373530Y220101D01*
X373423Y220170D01*
X373305Y220267D01*
X373198Y220375D01*
X373110Y220502D01*
X373100Y220521D01*
X373081Y220560D01*
X373042Y220638D01*
X373003Y220726D01*
X372964Y220843D01*
X372925Y220980D01*
X372905Y221116D01*
X372896Y221273D01*
Y221282D01*
Y221302D01*
Y221341D01*
X372905Y221390D01*
X372915Y221458D01*
X372925Y221526D01*
X372954Y221692D01*
X373013Y221878D01*
X373110Y222083D01*
X373159Y222180D01*
X373227Y222278D01*
X373305Y222375D01*
X373393Y222463D01*
X373403Y222473D01*
X373413Y222483D01*
X373442Y222502D01*
X373481Y222541D01*
X373540Y222571D01*
X373598Y222610D01*
X373676Y222659D01*
X373754Y222698D01*
X373852Y222746D01*
X373959Y222785D01*
X374077Y222825D01*
X374203Y222864D01*
X374340Y222893D01*
X374486Y222912D01*
X374652Y222922D01*
X374818Y222932D01*
X374906D01*
X374965Y222922D01*
D02*
G37*
G36*
X365009D02*
X365088D01*
X365175Y222912D01*
X365273Y222893D01*
X365380Y222873D01*
X365605Y222815D01*
X365839Y222737D01*
X366073Y222620D01*
X366181Y222541D01*
X366278Y222463D01*
X366288Y222454D01*
X366298Y222444D01*
X366327Y222415D01*
X366356Y222375D01*
X366434Y222278D01*
X366532Y222141D01*
X366630Y221966D01*
X366708Y221761D01*
X366766Y221536D01*
X366776Y221409D01*
X366786Y221273D01*
Y221253D01*
Y221195D01*
X366776Y221116D01*
X366757Y221009D01*
X366727Y220882D01*
X366688Y220755D01*
X366630Y220619D01*
X366551Y220482D01*
X366542Y220463D01*
X366512Y220424D01*
X366454Y220365D01*
X366386Y220287D01*
X366288Y220199D01*
X366181Y220111D01*
X366044Y220033D01*
X365898Y219955D01*
X365907D01*
X365917Y219945D01*
X365946Y219935D01*
X365985Y219916D01*
X366083Y219867D01*
X366200Y219799D01*
X366327Y219711D01*
X366464Y219604D01*
X366591Y219477D01*
X366708Y219330D01*
X366717Y219311D01*
X366757Y219262D01*
X366795Y219174D01*
X366854Y219057D01*
X366903Y218920D01*
X366952Y218755D01*
X366981Y218569D01*
X366991Y218374D01*
Y218364D01*
Y218335D01*
Y218286D01*
X366981Y218228D01*
X366971Y218149D01*
X366961Y218062D01*
X366942Y217964D01*
X366922Y217857D01*
X366854Y217632D01*
X366805Y217515D01*
X366747Y217388D01*
X366678Y217271D01*
X366610Y217154D01*
X366512Y217037D01*
X366415Y216929D01*
X366405Y216920D01*
X366386Y216910D01*
X366356Y216881D01*
X366307Y216842D01*
X366259Y216803D01*
X366190Y216754D01*
X366103Y216705D01*
X366015Y216656D01*
X365917Y216607D01*
X365800Y216559D01*
X365673Y216510D01*
X365546Y216471D01*
X365400Y216432D01*
X365244Y216402D01*
X365088Y216393D01*
X364912Y216383D01*
X364824D01*
X364765Y216393D01*
X364687D01*
X364599Y216412D01*
X364502Y216422D01*
X364404Y216441D01*
X364170Y216500D01*
X363926Y216578D01*
X363682Y216695D01*
X363565Y216763D01*
X363458Y216842D01*
X363448Y216851D01*
X363428Y216871D01*
X363399Y216900D01*
X363350Y216939D01*
X363301Y216998D01*
X363243Y217066D01*
X363184Y217144D01*
X363116Y217232D01*
X363057Y217330D01*
X362989Y217437D01*
X362931Y217564D01*
X362882Y217691D01*
X362833Y217837D01*
X362804Y217993D01*
X362784Y218149D01*
X362774Y218325D01*
Y218335D01*
Y218345D01*
Y218374D01*
Y218413D01*
X362784Y218511D01*
X362804Y218637D01*
X362833Y218784D01*
X362882Y218950D01*
X362940Y219116D01*
X363028Y219282D01*
Y219291D01*
X363038Y219301D01*
X363077Y219350D01*
X363136Y219438D01*
X363223Y219535D01*
X363340Y219643D01*
X363477Y219750D01*
X363643Y219857D01*
X363838Y219955D01*
X363828D01*
X363819Y219965D01*
X363760Y219994D01*
X363682Y220033D01*
X363575Y220101D01*
X363467Y220170D01*
X363350Y220267D01*
X363243Y220375D01*
X363155Y220502D01*
X363145Y220521D01*
X363126Y220560D01*
X363087Y220638D01*
X363048Y220726D01*
X363009Y220843D01*
X362970Y220980D01*
X362950Y221116D01*
X362940Y221273D01*
Y221282D01*
Y221302D01*
Y221341D01*
X362950Y221390D01*
X362960Y221458D01*
X362970Y221526D01*
X362999Y221692D01*
X363057Y221878D01*
X363155Y222083D01*
X363204Y222180D01*
X363272Y222278D01*
X363350Y222375D01*
X363438Y222463D01*
X363448Y222473D01*
X363458Y222483D01*
X363487Y222502D01*
X363526Y222541D01*
X363584Y222571D01*
X363643Y222610D01*
X363721Y222659D01*
X363799Y222698D01*
X363897Y222746D01*
X364004Y222785D01*
X364121Y222825D01*
X364248Y222864D01*
X364385Y222893D01*
X364531Y222912D01*
X364697Y222922D01*
X364863Y222932D01*
X364951D01*
X365009Y222922D01*
D02*
G37*
G36*
X354039Y221234D02*
X354127Y221224D01*
X354225Y221204D01*
X354342Y221185D01*
X354459Y221156D01*
X354586Y221116D01*
X354722Y221077D01*
X354859Y221019D01*
X354996Y220951D01*
X355132Y220872D01*
X355259Y220775D01*
X355386Y220677D01*
X355503Y220550D01*
X355513Y220541D01*
X355533Y220521D01*
X355562Y220482D01*
X355601Y220424D01*
X355640Y220345D01*
X355689Y220258D01*
X355747Y220160D01*
X355796Y220033D01*
X355855Y219897D01*
X355903Y219740D01*
X355952Y219565D01*
X356001Y219379D01*
X356030Y219174D01*
X356060Y218959D01*
X356079Y218716D01*
Y218462D01*
X353005D01*
Y218452D01*
Y218442D01*
Y218413D01*
X353014Y218374D01*
X353024Y218267D01*
X353044Y218149D01*
X353083Y218003D01*
X353132Y217866D01*
X353200Y217730D01*
X353297Y217603D01*
X353307Y217593D01*
X353346Y217554D01*
X353405Y217505D01*
X353493Y217457D01*
X353590Y217398D01*
X353717Y217349D01*
X353854Y217310D01*
X354000Y217300D01*
X354049D01*
X354107Y217310D01*
X354176Y217320D01*
X354244Y217339D01*
X354332Y217369D01*
X354410Y217408D01*
X354488Y217457D01*
X354498Y217466D01*
X354517Y217486D01*
X354556Y217525D01*
X354595Y217583D01*
X354644Y217652D01*
X354703Y217740D01*
X354752Y217837D01*
X354791Y217964D01*
X356011Y217759D01*
Y217749D01*
X356001Y217730D01*
X355981Y217691D01*
X355962Y217652D01*
X355942Y217593D01*
X355903Y217525D01*
X355825Y217378D01*
X355718Y217213D01*
X355591Y217047D01*
X355435Y216881D01*
X355259Y216734D01*
X355249D01*
X355240Y216715D01*
X355210Y216705D01*
X355171Y216676D01*
X355123Y216656D01*
X355054Y216627D01*
X354908Y216559D01*
X354722Y216490D01*
X354508Y216441D01*
X354264Y216402D01*
X353990Y216383D01*
X353942D01*
X353873Y216393D01*
X353795D01*
X353688Y216412D01*
X353580Y216422D01*
X353454Y216451D01*
X353317Y216480D01*
X353171Y216519D01*
X353024Y216578D01*
X352868Y216637D01*
X352722Y216715D01*
X352575Y216803D01*
X352439Y216910D01*
X352312Y217037D01*
X352195Y217173D01*
Y217183D01*
X352175Y217203D01*
X352155Y217242D01*
X352126Y217291D01*
X352087Y217349D01*
X352048Y217427D01*
X352009Y217515D01*
X351970Y217613D01*
X351931Y217720D01*
X351892Y217847D01*
X351853Y217974D01*
X351814Y218120D01*
X351765Y218432D01*
X351755Y218598D01*
X351746Y218774D01*
Y218784D01*
Y218823D01*
Y218881D01*
X351755Y218969D01*
X351765Y219057D01*
X351775Y219174D01*
X351794Y219301D01*
X351824Y219428D01*
X351892Y219721D01*
X351941Y219867D01*
X351999Y220023D01*
X352068Y220170D01*
X352146Y220316D01*
X352234Y220453D01*
X352341Y220580D01*
X352351Y220589D01*
X352370Y220609D01*
X352399Y220638D01*
X352448Y220687D01*
X352507Y220736D01*
X352585Y220794D01*
X352663Y220853D01*
X352761Y220912D01*
X352868Y220970D01*
X352975Y221038D01*
X353102Y221087D01*
X353239Y221136D01*
X353385Y221185D01*
X353532Y221214D01*
X353698Y221234D01*
X353864Y221243D01*
X353961D01*
X354039Y221234D01*
D02*
G37*
%LPC*%
G36*
X336852Y221829D02*
X336003D01*
Y217583D01*
X337145D01*
X337262Y217593D01*
X337379D01*
X337515Y217613D01*
X337633Y217622D01*
X337730Y217642D01*
X337740D01*
X337789Y217661D01*
X337847Y217681D01*
X337916Y217701D01*
X338091Y217788D01*
X338179Y217837D01*
X338257Y217905D01*
X338267Y217915D01*
X338296Y217945D01*
X338326Y217984D01*
X338374Y218052D01*
X338433Y218140D01*
X338482Y218247D01*
X338540Y218374D01*
X338589Y218520D01*
Y218530D01*
X338599Y218540D01*
Y218569D01*
X338609Y218598D01*
X338628Y218696D01*
X338657Y218833D01*
X338687Y218999D01*
X338706Y219203D01*
X338716Y219438D01*
X338726Y219701D01*
Y219711D01*
Y219731D01*
Y219770D01*
Y219828D01*
Y219887D01*
X338716Y219955D01*
X338706Y220121D01*
X338697Y220306D01*
X338667Y220492D01*
X338638Y220677D01*
X338589Y220833D01*
X338579Y220853D01*
X338570Y220902D01*
X338540Y220970D01*
X338501Y221058D01*
X338443Y221165D01*
X338384Y221263D01*
X338316Y221370D01*
X338228Y221458D01*
X338218Y221468D01*
X338189Y221497D01*
X338130Y221536D01*
X338062Y221585D01*
X337984Y221634D01*
X337877Y221683D01*
X337759Y221722D01*
X337633Y221761D01*
X337623D01*
X337574Y221770D01*
X337506Y221780D01*
X337398Y221800D01*
X337330D01*
X337252Y221809D01*
X337174D01*
X337076Y221819D01*
X336969D01*
X336852Y221829D01*
D02*
G37*
G36*
X322378Y221849D02*
X321080D01*
Y220365D01*
X322319D01*
X322485Y220375D01*
X322768D01*
X322827Y220385D01*
X322885D01*
X322924Y220394D01*
X322983Y220404D01*
X323051Y220424D01*
X323139Y220453D01*
X323227Y220492D01*
X323305Y220550D01*
X323383Y220609D01*
X323393Y220619D01*
X323412Y220648D01*
X323442Y220687D01*
X323481Y220746D01*
X323520Y220824D01*
X323549Y220902D01*
X323569Y221009D01*
X323578Y221116D01*
Y221126D01*
Y221165D01*
X323569Y221224D01*
X323559Y221282D01*
X323539Y221360D01*
X323510Y221439D01*
X323471Y221517D01*
X323412Y221595D01*
X323403Y221604D01*
X323383Y221624D01*
X323344Y221653D01*
X323285Y221692D01*
X323217Y221731D01*
X323139Y221770D01*
X323041Y221800D01*
X322924Y221819D01*
X322915D01*
X322875Y221829D01*
X322768D01*
X322710Y221839D01*
X322475D01*
X322378Y221849D01*
D02*
G37*
G36*
X322417Y219301D02*
X321080D01*
Y217583D01*
X322505D01*
X322641Y217593D01*
X322797D01*
X322944Y217603D01*
X323071Y217613D01*
X323119D01*
X323159Y217622D01*
X323168D01*
X323207Y217632D01*
X323256Y217652D01*
X323324Y217671D01*
X323393Y217710D01*
X323481Y217749D01*
X323559Y217808D01*
X323627Y217876D01*
X323637Y217886D01*
X323656Y217915D01*
X323686Y217964D01*
X323725Y218023D01*
X323754Y218101D01*
X323783Y218198D01*
X323803Y218306D01*
X323813Y218423D01*
Y218432D01*
Y218472D01*
X323803Y218520D01*
X323793Y218589D01*
X323773Y218667D01*
X323754Y218745D01*
X323715Y218833D01*
X323666Y218911D01*
X323656Y218920D01*
X323637Y218940D01*
X323607Y218979D01*
X323569Y219028D01*
X323510Y219077D01*
X323442Y219125D01*
X323363Y219164D01*
X323266Y219203D01*
X323256D01*
X323207Y219223D01*
X323139Y219233D01*
X323080Y219243D01*
X323022Y219252D01*
X322954Y219262D01*
X322866Y219272D01*
X322778Y219282D01*
X322671D01*
X322553Y219291D01*
X322417Y219301D01*
D02*
G37*
G36*
X300057Y221829D02*
X299207D01*
Y217583D01*
X300349D01*
X300467Y217593D01*
X300584D01*
X300720Y217613D01*
X300837Y217622D01*
X300935Y217642D01*
X300945D01*
X300994Y217661D01*
X301052Y217681D01*
X301120Y217701D01*
X301296Y217788D01*
X301384Y217837D01*
X301462Y217905D01*
X301472Y217915D01*
X301501Y217945D01*
X301530Y217984D01*
X301579Y218052D01*
X301638Y218140D01*
X301687Y218247D01*
X301745Y218374D01*
X301794Y218520D01*
Y218530D01*
X301804Y218540D01*
Y218569D01*
X301813Y218598D01*
X301833Y218696D01*
X301862Y218833D01*
X301891Y218999D01*
X301911Y219203D01*
X301921Y219438D01*
X301931Y219701D01*
Y219711D01*
Y219731D01*
Y219770D01*
Y219828D01*
Y219887D01*
X301921Y219955D01*
X301911Y220121D01*
X301901Y220306D01*
X301872Y220492D01*
X301843Y220677D01*
X301794Y220833D01*
X301784Y220853D01*
X301774Y220902D01*
X301745Y220970D01*
X301706Y221058D01*
X301647Y221165D01*
X301589Y221263D01*
X301521Y221370D01*
X301433Y221458D01*
X301423Y221468D01*
X301394Y221497D01*
X301335Y221536D01*
X301267Y221585D01*
X301189Y221634D01*
X301081Y221683D01*
X300964Y221722D01*
X300837Y221761D01*
X300828D01*
X300779Y221770D01*
X300711Y221780D01*
X300603Y221800D01*
X300535D01*
X300457Y221809D01*
X300379D01*
X300281Y221819D01*
X300174D01*
X300057Y221829D01*
D02*
G37*
G36*
X384783Y221956D02*
X384725D01*
X384656Y221946D01*
X384578Y221927D01*
X384490Y221907D01*
X384393Y221868D01*
X384305Y221809D01*
X384217Y221741D01*
X384207Y221731D01*
X384188Y221702D01*
X384149Y221653D01*
X384120Y221595D01*
X384081Y221517D01*
X384041Y221419D01*
X384022Y221312D01*
X384012Y221185D01*
Y221165D01*
Y221126D01*
X384022Y221058D01*
X384041Y220980D01*
X384061Y220892D01*
X384100Y220794D01*
X384149Y220707D01*
X384217Y220619D01*
X384227Y220609D01*
X384256Y220589D01*
X384305Y220550D01*
X384364Y220521D01*
X384442Y220482D01*
X384539Y220443D01*
X384647Y220424D01*
X384773Y220414D01*
X384832D01*
X384891Y220424D01*
X384969Y220443D01*
X385056Y220463D01*
X385154Y220502D01*
X385242Y220550D01*
X385330Y220619D01*
X385339Y220628D01*
X385359Y220658D01*
X385398Y220707D01*
X385437Y220765D01*
X385476Y220853D01*
X385515Y220951D01*
X385535Y221068D01*
X385544Y221195D01*
Y221214D01*
Y221253D01*
X385535Y221312D01*
X385515Y221390D01*
X385496Y221478D01*
X385457Y221565D01*
X385398Y221663D01*
X385330Y221741D01*
X385320Y221751D01*
X385291Y221770D01*
X385252Y221809D01*
X385183Y221849D01*
X385105Y221887D01*
X385017Y221927D01*
X384900Y221946D01*
X384783Y221956D01*
D02*
G37*
G36*
Y219438D02*
X384705D01*
X384627Y219418D01*
X384529Y219399D01*
X384422Y219360D01*
X384315Y219311D01*
X384207Y219233D01*
X384110Y219125D01*
X384100Y219116D01*
X384081Y219067D01*
X384041Y219008D01*
X384002Y218920D01*
X383963Y218823D01*
X383924Y218706D01*
X383905Y218579D01*
X383895Y218442D01*
Y218432D01*
Y218423D01*
Y218354D01*
X383905Y218267D01*
X383924Y218149D01*
X383954Y218023D01*
X384002Y217896D01*
X384061Y217769D01*
X384149Y217652D01*
X384159Y217642D01*
X384198Y217613D01*
X384256Y217564D01*
X384334Y217515D01*
X384422Y217457D01*
X384539Y217417D01*
X384666Y217378D01*
X384803Y217369D01*
X384871D01*
X384939Y217388D01*
X385027Y217408D01*
X385125Y217437D01*
X385232Y217486D01*
X385339Y217554D01*
X385437Y217642D01*
X385447Y217652D01*
X385476Y217691D01*
X385515Y217759D01*
X385564Y217847D01*
X385613Y217954D01*
X385652Y218091D01*
X385681Y218247D01*
X385691Y218432D01*
Y218442D01*
Y218452D01*
Y218511D01*
X385681Y218589D01*
X385662Y218696D01*
X385623Y218803D01*
X385583Y218930D01*
X385515Y219047D01*
X385427Y219155D01*
X385418Y219164D01*
X385379Y219203D01*
X385330Y219243D01*
X385252Y219301D01*
X385154Y219350D01*
X385047Y219399D01*
X384920Y219428D01*
X384783Y219438D01*
D02*
G37*
G36*
X374828Y221956D02*
X374769D01*
X374701Y221946D01*
X374623Y221927D01*
X374535Y221907D01*
X374438Y221868D01*
X374350Y221809D01*
X374262Y221741D01*
X374252Y221731D01*
X374233Y221702D01*
X374194Y221653D01*
X374164Y221595D01*
X374125Y221517D01*
X374086Y221419D01*
X374067Y221312D01*
X374057Y221185D01*
Y221165D01*
Y221126D01*
X374067Y221058D01*
X374086Y220980D01*
X374106Y220892D01*
X374145Y220794D01*
X374194Y220707D01*
X374262Y220619D01*
X374272Y220609D01*
X374301Y220589D01*
X374350Y220550D01*
X374408Y220521D01*
X374486Y220482D01*
X374584Y220443D01*
X374691Y220424D01*
X374818Y220414D01*
X374877D01*
X374935Y220424D01*
X375013Y220443D01*
X375101Y220463D01*
X375199Y220502D01*
X375287Y220550D01*
X375375Y220619D01*
X375384Y220628D01*
X375404Y220658D01*
X375443Y220707D01*
X375482Y220765D01*
X375521Y220853D01*
X375560Y220951D01*
X375580Y221068D01*
X375589Y221195D01*
Y221214D01*
Y221253D01*
X375580Y221312D01*
X375560Y221390D01*
X375540Y221478D01*
X375501Y221565D01*
X375443Y221663D01*
X375375Y221741D01*
X375365Y221751D01*
X375336Y221770D01*
X375296Y221809D01*
X375228Y221849D01*
X375150Y221887D01*
X375062Y221927D01*
X374945Y221946D01*
X374828Y221956D01*
D02*
G37*
G36*
Y219438D02*
X374750D01*
X374672Y219418D01*
X374574Y219399D01*
X374467Y219360D01*
X374359Y219311D01*
X374252Y219233D01*
X374155Y219125D01*
X374145Y219116D01*
X374125Y219067D01*
X374086Y219008D01*
X374047Y218920D01*
X374008Y218823D01*
X373969Y218706D01*
X373950Y218579D01*
X373940Y218442D01*
Y218432D01*
Y218423D01*
Y218354D01*
X373950Y218267D01*
X373969Y218149D01*
X373998Y218023D01*
X374047Y217896D01*
X374106Y217769D01*
X374194Y217652D01*
X374203Y217642D01*
X374242Y217613D01*
X374301Y217564D01*
X374379Y217515D01*
X374467Y217457D01*
X374584Y217417D01*
X374711Y217378D01*
X374848Y217369D01*
X374916D01*
X374984Y217388D01*
X375072Y217408D01*
X375170Y217437D01*
X375277Y217486D01*
X375384Y217554D01*
X375482Y217642D01*
X375492Y217652D01*
X375521Y217691D01*
X375560Y217759D01*
X375609Y217847D01*
X375658Y217954D01*
X375697Y218091D01*
X375726Y218247D01*
X375736Y218432D01*
Y218442D01*
Y218452D01*
Y218511D01*
X375726Y218589D01*
X375706Y218696D01*
X375667Y218803D01*
X375628Y218930D01*
X375560Y219047D01*
X375472Y219155D01*
X375462Y219164D01*
X375423Y219203D01*
X375375Y219243D01*
X375296Y219301D01*
X375199Y219350D01*
X375092Y219399D01*
X374965Y219428D01*
X374828Y219438D01*
D02*
G37*
G36*
X364873Y221956D02*
X364814D01*
X364746Y221946D01*
X364668Y221927D01*
X364580Y221907D01*
X364482Y221868D01*
X364395Y221809D01*
X364307Y221741D01*
X364297Y221731D01*
X364277Y221702D01*
X364238Y221653D01*
X364209Y221595D01*
X364170Y221517D01*
X364131Y221419D01*
X364111Y221312D01*
X364102Y221185D01*
Y221165D01*
Y221126D01*
X364111Y221058D01*
X364131Y220980D01*
X364151Y220892D01*
X364190Y220794D01*
X364238Y220707D01*
X364307Y220619D01*
X364317Y220609D01*
X364346Y220589D01*
X364395Y220550D01*
X364453Y220521D01*
X364531Y220482D01*
X364629Y220443D01*
X364736Y220424D01*
X364863Y220414D01*
X364922D01*
X364980Y220424D01*
X365058Y220443D01*
X365146Y220463D01*
X365244Y220502D01*
X365332Y220550D01*
X365419Y220619D01*
X365429Y220628D01*
X365449Y220658D01*
X365488Y220707D01*
X365527Y220765D01*
X365566Y220853D01*
X365605Y220951D01*
X365624Y221068D01*
X365634Y221195D01*
Y221214D01*
Y221253D01*
X365624Y221312D01*
X365605Y221390D01*
X365585Y221478D01*
X365546Y221565D01*
X365488Y221663D01*
X365419Y221741D01*
X365410Y221751D01*
X365380Y221770D01*
X365341Y221809D01*
X365273Y221849D01*
X365195Y221887D01*
X365107Y221927D01*
X364990Y221946D01*
X364873Y221956D01*
D02*
G37*
G36*
Y219438D02*
X364795D01*
X364717Y219418D01*
X364619Y219399D01*
X364512Y219360D01*
X364404Y219311D01*
X364297Y219233D01*
X364199Y219125D01*
X364190Y219116D01*
X364170Y219067D01*
X364131Y219008D01*
X364092Y218920D01*
X364053Y218823D01*
X364014Y218706D01*
X363994Y218579D01*
X363985Y218442D01*
Y218432D01*
Y218423D01*
Y218354D01*
X363994Y218267D01*
X364014Y218149D01*
X364043Y218023D01*
X364092Y217896D01*
X364151Y217769D01*
X364238Y217652D01*
X364248Y217642D01*
X364287Y217613D01*
X364346Y217564D01*
X364424Y217515D01*
X364512Y217457D01*
X364629Y217417D01*
X364756Y217378D01*
X364892Y217369D01*
X364961D01*
X365029Y217388D01*
X365117Y217408D01*
X365214Y217437D01*
X365322Y217486D01*
X365429Y217554D01*
X365527Y217642D01*
X365536Y217652D01*
X365566Y217691D01*
X365605Y217759D01*
X365654Y217847D01*
X365702Y217954D01*
X365741Y218091D01*
X365771Y218247D01*
X365780Y218432D01*
Y218442D01*
Y218452D01*
Y218511D01*
X365771Y218589D01*
X365751Y218696D01*
X365712Y218803D01*
X365673Y218930D01*
X365605Y219047D01*
X365517Y219155D01*
X365507Y219164D01*
X365468Y219203D01*
X365419Y219243D01*
X365341Y219301D01*
X365244Y219350D01*
X365136Y219399D01*
X365009Y219428D01*
X364873Y219438D01*
D02*
G37*
G36*
X353942Y220306D02*
X353873D01*
X353805Y220287D01*
X353707Y220267D01*
X353600Y220228D01*
X353493Y220180D01*
X353385Y220101D01*
X353278Y220004D01*
X353268Y219994D01*
X353239Y219955D01*
X353200Y219887D01*
X353151Y219799D01*
X353102Y219682D01*
X353063Y219545D01*
X353034Y219389D01*
X353024Y219213D01*
X354859D01*
Y219223D01*
Y219233D01*
Y219262D01*
X354849Y219301D01*
X354839Y219399D01*
X354820Y219516D01*
X354781Y219643D01*
X354732Y219779D01*
X354664Y219906D01*
X354576Y220023D01*
X354566Y220033D01*
X354527Y220072D01*
X354478Y220111D01*
X354400Y220170D01*
X354312Y220219D01*
X354205Y220267D01*
X354078Y220297D01*
X353942Y220306D01*
D02*
G37*
%LPD*%
D10*
X489232Y364665D02*
X488788Y365589D01*
X487788Y365817D01*
X486987Y365178D01*
Y364153D01*
X487788Y363514D01*
X488788Y363742D01*
X489232Y364665D01*
X399232D02*
X398788Y365589D01*
X397788Y365817D01*
X396987Y365178D01*
Y364153D01*
X397788Y363514D01*
X398788Y363742D01*
X399232Y364665D01*
X309232Y364535D02*
X308788Y365459D01*
X307788Y365687D01*
X306987Y365048D01*
Y364023D01*
X307788Y363384D01*
X308788Y363612D01*
X309232Y364535D01*
X220232Y365535D02*
X219788Y366459D01*
X218788Y366687D01*
X217987Y366048D01*
Y365023D01*
X218788Y364384D01*
X219788Y364612D01*
X220232Y365535D01*
X527347Y255949D02*
X526902Y256872D01*
X525903Y257100D01*
X525101Y256461D01*
Y255436D01*
X525903Y254797D01*
X526902Y255025D01*
X527347Y255949D01*
X458630Y183335D02*
X458185Y184258D01*
X457186Y184486D01*
X456385Y183847D01*
Y182822D01*
X457186Y182183D01*
X458185Y182411D01*
X458630Y183335D01*
X375130Y183205D02*
X374685Y184128D01*
X373686Y184356D01*
X372885Y183717D01*
Y182692D01*
X373686Y182053D01*
X374685Y182281D01*
X375130Y183205D01*
X285130Y183335D02*
X284685Y184258D01*
X283686Y184486D01*
X282885Y183847D01*
Y182822D01*
X283686Y182183D01*
X284685Y182411D01*
X285130Y183335D01*
X195130D02*
X194685Y184258D01*
X193686Y184486D01*
X192885Y183847D01*
Y182822D01*
X193686Y182183D01*
X194685Y182411D01*
X195130Y183335D01*
D11*
X493740Y373130D02*
X493002Y373556D01*
Y372704D01*
X493740Y373130D01*
X403740D02*
X403002Y373556D01*
Y372704D01*
X403740Y373130D01*
X313740Y373000D02*
X313002Y373426D01*
Y372574D01*
X313740Y373000D01*
X224740Y374000D02*
X224002Y374426D01*
Y373574D01*
X224740Y374000D01*
X253024Y243579D02*
X252285Y244005D01*
Y243152D01*
X253024Y243579D01*
X229496Y279248D02*
X228758Y279674D01*
Y278822D01*
X229496Y279248D01*
X535122Y250752D02*
X534384Y251178D01*
Y250326D01*
X535122Y250752D01*
X452744Y174870D02*
X452006Y175296D01*
Y174444D01*
X452744Y174870D01*
X369244Y174740D02*
X368506Y175166D01*
Y174314D01*
X369244Y174740D01*
X279244Y174870D02*
X278506Y175296D01*
Y174444D01*
X279244Y174870D01*
X189244D02*
X188506Y175296D01*
Y174444D01*
X189244Y174870D01*
D12*
X173500Y254500D02*
X174501Y254613D01*
X175452Y254946D01*
X176306Y255482D01*
X177018Y256194D01*
X177554Y257048D01*
X177887Y257999D01*
X178000Y259000D01*
Y261500D02*
X177998Y262514D01*
X177771Y263502D01*
X177330Y264415D01*
X176697Y265207D01*
X175903Y265837D01*
X174989Y266276D01*
X174000Y266500D01*
X172986Y266498D01*
X171998Y266271D01*
X171085Y265830D01*
X170293Y265197D01*
X169663Y264403D01*
X169224Y263489D01*
X169000Y262500D01*
Y259000D02*
X169113Y257999D01*
X169446Y257048D01*
X169982Y256194D01*
X170694Y255482D01*
X171547Y254946D01*
X172499Y254613D01*
X173500Y254500D01*
X193000Y260500D02*
X197500D01*
X195200Y258000D02*
Y263000D01*
X178000Y257500D02*
Y262500D01*
X169000Y259000D02*
Y262500D01*
X178000Y258000D02*
X178500D01*
Y244000D02*
Y277000D01*
X163000Y233000D02*
Y235999D01*
X164000Y234999D01*
X164999Y235999D01*
Y233000D01*
X167998Y235499D02*
X167499Y235999D01*
X166499D01*
X165999Y235499D01*
Y233500D01*
X166499Y233000D01*
X167499D01*
X167998Y233500D01*
X168998Y235999D02*
Y233500D01*
X169498Y233000D01*
X170498D01*
X170997Y233500D01*
Y235999D01*
X174996Y233000D02*
Y235999D01*
X176496D01*
X176996Y235499D01*
Y234500D01*
X176496Y234000D01*
X174996D01*
X177995Y235999D02*
Y233000D01*
X178995Y234000D01*
X179994Y233000D01*
Y235999D01*
X180994Y233000D02*
Y235999D01*
X182494D01*
X182993Y235499D01*
Y234500D01*
X182494Y234000D01*
X180994D01*
X181994D02*
X182993Y233000D01*
X278500Y327198D02*
Y321200D01*
X281499D01*
X282499Y322200D01*
Y323199D01*
X281499Y324199D01*
X278500D01*
X281499D01*
X282499Y325199D01*
Y326198D01*
X281499Y327198D01*
X278500D01*
X284498Y321200D02*
X286497D01*
X285498D01*
Y327198D01*
X284498D01*
X289496Y325199D02*
Y322200D01*
X290496Y321200D01*
X293495D01*
Y325199D01*
X298494Y321200D02*
X296494D01*
X295495Y322200D01*
Y324199D01*
X296494Y325199D01*
X298494D01*
X299493Y324199D01*
Y323199D01*
X295495D01*
X301493Y321200D02*
Y327198D01*
X304492D01*
X305491Y326198D01*
Y324199D01*
X304492Y323199D01*
X301493D01*
X307491Y321200D02*
X309490D01*
X308490D01*
Y325199D01*
X307491D01*
X312489Y321200D02*
X314488D01*
X313489D01*
Y327198D01*
X312489D01*
X317487Y321200D02*
X319487D01*
X318487D01*
Y327198D01*
X317487D01*
X246499Y325998D02*
X245499Y326998D01*
X243500D01*
X242500Y325998D01*
Y322000D01*
X243500Y321000D01*
X245499D01*
X246499Y322000D01*
X248498Y325998D02*
X249498Y326998D01*
X251497D01*
X252497Y325998D01*
Y324999D01*
X251497Y323999D01*
X250497D01*
X251497D01*
X252497Y322999D01*
Y322000D01*
X251497Y321000D01*
X249498D01*
X248498Y322000D01*
X240499Y231998D02*
X239499Y232998D01*
X237500D01*
X236500Y231998D01*
Y228000D01*
X237500Y227000D01*
X239499D01*
X240499Y228000D01*
X246497Y227000D02*
X242498D01*
X246497Y230999D01*
Y231998D01*
X245497Y232998D01*
X243498D01*
X242498Y231998D01*
X542000Y308000D02*
Y313998D01*
X544999D01*
X545999Y312998D01*
Y310999D01*
X544999Y309999D01*
X542000D01*
X547998Y309000D02*
X548998Y308000D01*
X550997D01*
X551997Y309000D01*
Y312998D01*
X550997Y313998D01*
X548998D01*
X547998Y312998D01*
Y311999D01*
X548998Y310999D01*
X551997D01*
X165900Y168000D02*
Y173998D01*
X168899D01*
X169899Y172998D01*
Y170999D01*
X168899Y169999D01*
X165900D01*
X171898Y172998D02*
X172898Y173998D01*
X174897D01*
X175897Y172998D01*
Y171999D01*
X174897Y170999D01*
X175897Y169999D01*
Y169000D01*
X174897Y168000D01*
X172898D01*
X171898Y169000D01*
Y169999D01*
X172898Y170999D01*
X171898Y171999D01*
Y172998D01*
X172898Y170999D02*
X174897D01*
X255900Y168000D02*
Y173998D01*
X258899D01*
X259899Y172998D01*
Y170999D01*
X258899Y169999D01*
X255900D01*
X261898Y173998D02*
X265897D01*
Y172998D01*
X261898Y169000D01*
Y168000D01*
X345900D02*
Y173998D01*
X348899D01*
X349899Y172998D01*
Y170999D01*
X348899Y169999D01*
X345900D01*
X355897Y173998D02*
X353897Y172998D01*
X351898Y170999D01*
Y169000D01*
X352898Y168000D01*
X354897D01*
X355897Y169000D01*
Y169999D01*
X354897Y170999D01*
X351898D01*
X435900Y168000D02*
Y173998D01*
X438899D01*
X439899Y172998D01*
Y170999D01*
X438899Y169999D01*
X435900D01*
X445897Y173998D02*
X441898D01*
Y170999D01*
X443897Y171999D01*
X444897D01*
X445897Y170999D01*
Y169000D01*
X444897Y168000D01*
X442898D01*
X441898Y169000D01*
X425000Y376000D02*
Y381998D01*
X427999D01*
X428999Y380998D01*
Y378999D01*
X427999Y377999D01*
X425000D01*
X433997Y376000D02*
Y381998D01*
X430998Y378999D01*
X434997D01*
X336000Y375500D02*
Y381498D01*
X338999D01*
X339999Y380498D01*
Y378499D01*
X338999Y377499D01*
X336000D01*
X341998Y380498D02*
X342998Y381498D01*
X344997D01*
X345997Y380498D01*
Y379499D01*
X344997Y378499D01*
X343997D01*
X344997D01*
X345997Y377499D01*
Y376500D01*
X344997Y375500D01*
X342998D01*
X341998Y376500D01*
X245087Y378000D02*
Y383998D01*
X248086D01*
X249085Y382998D01*
Y380999D01*
X248086Y379999D01*
X245087D01*
X255083Y378000D02*
X251085D01*
X255083Y381999D01*
Y382998D01*
X254084Y383998D01*
X252084D01*
X251085Y382998D01*
X158500Y375000D02*
Y380998D01*
X161499D01*
X162499Y379998D01*
Y377999D01*
X161499Y376999D01*
X158500D01*
X164498Y375000D02*
X166497D01*
X165498D01*
Y380998D01*
X164498Y379998D01*
X258000Y296498D02*
Y291500D01*
X259000Y290500D01*
X260999D01*
X261999Y291500D01*
Y296498D01*
X263998Y291500D02*
X264998Y290500D01*
X266997D01*
X267997Y291500D01*
Y295498D01*
X266997Y296498D01*
X264998D01*
X263998Y295498D01*
Y294499D01*
X264998Y293499D01*
X267997D01*
X531599Y375198D02*
X530599Y376198D01*
X528600D01*
X527600Y375198D01*
Y374199D01*
X528600Y373199D01*
X530599D01*
X531599Y372199D01*
Y371200D01*
X530599Y370200D01*
X528600D01*
X527600Y371200D01*
X533598Y376198D02*
Y370200D01*
X535597Y372199D01*
X537597Y370200D01*
Y376198D01*
X539596Y370200D02*
X541596D01*
X540596D01*
Y376198D01*
X539596Y375198D01*
X368739Y209468D02*
Y204470D01*
X369738Y203470D01*
X371738D01*
X372737Y204470D01*
Y209468D01*
X378735D02*
X376736Y208469D01*
X374737Y206469D01*
Y204470D01*
X375736Y203470D01*
X377736D01*
X378735Y204470D01*
Y205469D01*
X377736Y206469D01*
X374737D01*
X509870Y301098D02*
Y296100D01*
X510870Y295100D01*
X512869D01*
X513869Y296100D01*
Y301098D01*
X515868Y295100D02*
X517868D01*
X516868D01*
Y301098D01*
X515868Y300098D01*
X520866D02*
X521866Y301098D01*
X523866D01*
X524865Y300098D01*
Y296100D01*
X523866Y295100D01*
X521866D01*
X520866Y296100D01*
Y300098D01*
X188800Y209598D02*
Y204600D01*
X189800Y203600D01*
X191799D01*
X192799Y204600D01*
Y209598D01*
X194798Y208598D02*
X195798Y209598D01*
X197797D01*
X198797Y208598D01*
Y207599D01*
X197797Y206599D01*
X198797Y205599D01*
Y204600D01*
X197797Y203600D01*
X195798D01*
X194798Y204600D01*
Y205599D01*
X195798Y206599D01*
X194798Y207599D01*
Y208598D01*
X195798Y206599D02*
X197797D01*
X278800Y209598D02*
Y204600D01*
X279800Y203600D01*
X281799D01*
X282799Y204600D01*
Y209598D01*
X284798D02*
X288797D01*
Y208598D01*
X284798Y204600D01*
Y203600D01*
X448339Y213868D02*
Y208870D01*
X449338Y207870D01*
X451338D01*
X452337Y208870D01*
Y213868D01*
X458335D02*
X454337D01*
Y210869D01*
X456336Y211869D01*
X457336D01*
X458335Y210869D01*
Y208870D01*
X457336Y207870D01*
X455336D01*
X454337Y208870D01*
X435500Y365498D02*
Y360500D01*
X436500Y359500D01*
X438499D01*
X439499Y360500D01*
Y365498D01*
X444497Y359500D02*
Y365498D01*
X441498Y362499D01*
X445497D01*
X347500Y366498D02*
Y361500D01*
X348500Y360500D01*
X350499D01*
X351499Y361500D01*
Y366498D01*
X353498Y365498D02*
X354498Y366498D01*
X356497D01*
X357497Y365498D01*
Y364499D01*
X356497Y363499D01*
X355497D01*
X356497D01*
X357497Y362499D01*
Y361500D01*
X356497Y360500D01*
X354498D01*
X353498Y361500D01*
X258500Y364998D02*
Y360000D01*
X259500Y359000D01*
X261499D01*
X262499Y360000D01*
Y364998D01*
X268497Y359000D02*
X264498D01*
X268497Y362999D01*
Y363998D01*
X267497Y364998D01*
X265498D01*
X264498Y363998D01*
X172376Y367998D02*
Y363000D01*
X173375Y362000D01*
X175375D01*
X176374Y363000D01*
Y367998D01*
X178374Y362000D02*
X180373D01*
X179373D01*
Y367998D01*
X178374Y366998D01*
X157599Y331898D02*
X155599D01*
X156599D01*
Y326900D01*
X155599Y325900D01*
X154600D01*
X153600Y326900D01*
X159598Y331898D02*
Y325900D01*
X162597D01*
X163597Y326900D01*
Y330898D01*
X162597Y331898D01*
X159598D01*
X169595Y330898D02*
X168595Y331898D01*
X166596D01*
X165596Y330898D01*
Y326900D01*
X166596Y325900D01*
X168595D01*
X169595Y326900D01*
X171594Y325900D02*
X173593D01*
X172594D01*
Y331898D01*
X171594Y330898D01*
X205499Y233498D02*
X203499D01*
X204499D01*
Y228500D01*
X203499Y227500D01*
X202500D01*
X201500Y228500D01*
X207498Y227500D02*
X209497D01*
X208498D01*
Y233498D01*
X207498Y232498D01*
X207499Y258026D02*
X206499Y259026D01*
X204500D01*
X203500Y258026D01*
Y254027D01*
X204500Y253028D01*
X206499D01*
X207499Y254027D01*
X209498Y253028D02*
X211497D01*
X210498D01*
Y259026D01*
X209498Y258026D01*
D13*
X198000Y260500D02*
X197971Y261498D01*
X197883Y262492D01*
X197737Y263479D01*
X197533Y264456D01*
X197273Y265420D01*
X196956Y266366D01*
X196584Y267293D01*
X196158Y268196D01*
X195681Y269072D01*
X195152Y269919D01*
X194575Y270733D01*
X193951Y271512D01*
X193283Y272253D01*
X192572Y272954D01*
X191821Y273611D01*
X191033Y274224D01*
X190210Y274789D01*
X189356Y275305D01*
X188472Y275770D01*
X187563Y276182D01*
X186632Y276540D01*
X185680Y276843D01*
X184713Y277090D01*
X183733Y277279D01*
X182744Y277410D01*
X181748Y277484D01*
X180750Y277498D01*
X179753Y277454D01*
X178760Y277352D01*
X177775Y277191D01*
X176801Y276973D01*
X175842Y276698D01*
X174900Y276368D01*
X173979Y275982D01*
X173083Y275544D01*
X172213Y275053D01*
X171374Y274513D01*
X170569Y273923D01*
X169799Y273288D01*
X169068Y272609D01*
X168378Y271888D01*
X167731Y271127D01*
X167130Y270330D01*
X166577Y269499D01*
X166074Y268637D01*
X165622Y267747D01*
X165223Y266832D01*
X164879Y265896D01*
X164590Y264940D01*
X164358Y263969D01*
X164183Y262987D01*
X164066Y261995D01*
X164007Y260999D01*
Y260001D01*
X164066Y259004D01*
X164183Y258013D01*
X164358Y257031D01*
X164590Y256060D01*
X164879Y255104D01*
X165223Y254168D01*
X165622Y253253D01*
X166074Y252363D01*
X166577Y251501D01*
X167130Y250670D01*
X167731Y249873D01*
X168378Y249112D01*
X169068Y248391D01*
X169799Y247712D01*
X170569Y247077D01*
X171374Y246487D01*
X172213Y245947D01*
X173083Y245456D01*
X173979Y245018D01*
X174900Y244632D01*
X175842Y244302D01*
X176801Y244027D01*
X177775Y243809D01*
X178760Y243648D01*
X179753Y243546D01*
X180750Y243502D01*
X181748Y243516D01*
X182744Y243590D01*
X183733Y243721D01*
X184713Y243911D01*
X185680Y244157D01*
X186632Y244460D01*
X187563Y244818D01*
X188472Y245230D01*
X189356Y245695D01*
X190210Y246211D01*
X191033Y246776D01*
X191821Y247389D01*
X192572Y248046D01*
X193282Y248747D01*
X193951Y249488D01*
X194575Y250267D01*
X195152Y251081D01*
X195681Y251928D01*
X196158Y252804D01*
X196584Y253707D01*
X196956Y254633D01*
X197273Y255580D01*
X197533Y256543D01*
X197737Y257521D01*
X197883Y258508D01*
X197971Y259502D01*
X198000Y260500D01*
X446100Y388000D02*
Y399600D01*
X435400Y399700D02*
X516200D01*
Y388000D02*
Y399700D01*
X435400Y388000D02*
X516200D01*
X435400D02*
Y399700D01*
X356100Y388000D02*
Y399600D01*
X345400Y399700D02*
X426200D01*
Y388000D02*
Y399700D01*
X345400Y388000D02*
X426200D01*
X345400D02*
Y399700D01*
X266100Y388000D02*
Y399600D01*
X255400Y399700D02*
X336200D01*
Y388000D02*
Y399700D01*
X255400Y388000D02*
X336200D01*
X255400D02*
Y399700D01*
X176100Y388000D02*
Y399600D01*
X165400Y399700D02*
X246200D01*
Y388000D02*
Y399700D01*
X165400Y388000D02*
X246200D01*
X165400D02*
Y399700D01*
X187100Y222600D02*
X197000D01*
X187000Y243100D02*
X197000D01*
X187000Y213100D02*
Y243100D01*
Y213100D02*
X197000D01*
Y243100D01*
X545000Y304600D02*
X556700D01*
X545000Y223800D02*
Y304600D01*
Y223800D02*
X556700D01*
Y304600D01*
X545000Y293900D02*
X556600D01*
X246100Y149300D02*
Y161000D01*
X165300D02*
X246100D01*
X165300Y149300D02*
Y161000D01*
Y149300D02*
X246100D01*
X235400Y149400D02*
Y161000D01*
X336100Y149300D02*
Y161000D01*
X255300D02*
X336100D01*
X255300Y149300D02*
Y161000D01*
Y149300D02*
X336100D01*
X325400Y149400D02*
Y161000D01*
X426100Y149300D02*
Y161000D01*
X345300D02*
X426100D01*
X345300Y149300D02*
Y161000D01*
Y149300D02*
X426100D01*
X415400Y149400D02*
Y161000D01*
X516100Y149300D02*
Y161000D01*
X435300D02*
X516100D01*
X435300Y149300D02*
Y161000D01*
Y149300D02*
X516100D01*
X505400Y149400D02*
Y161000D01*
X552100Y362200D02*
X552200Y362100D01*
X160000Y288000D02*
Y321000D01*
X153000Y288000D02*
X207500D01*
X153000Y321000D02*
X207500D01*
Y288000D02*
Y321000D01*
X153000Y288000D02*
Y321000D01*
D14*
X545200Y350700D02*
X545098Y351707D01*
X544795Y352672D01*
X544304Y353556D01*
X543645Y354324D01*
X542845Y354943D01*
X541936Y355389D01*
X540957Y355642D01*
X539947Y355694D01*
X538947Y355540D01*
X537998Y355189D01*
X537140Y354654D01*
X536406Y353957D01*
X535828Y353127D01*
X535429Y352197D01*
X535226Y351206D01*
Y350194D01*
X535429Y349203D01*
X535828Y348273D01*
X536406Y347443D01*
X537140Y346746D01*
X537998Y346211D01*
X538947Y345860D01*
X539947Y345706D01*
X540957Y345758D01*
X541936Y346011D01*
X542845Y346457D01*
X543645Y347076D01*
X544304Y347844D01*
X544795Y348728D01*
X545098Y349693D01*
X545200Y350700D01*
X536200Y339700D02*
X545700D01*
X550700Y342800D02*
Y358200D01*
X536200Y362200D02*
X545700D01*
X530700Y342700D02*
Y358200D01*
D15*
X453012Y356398D02*
Y368602D01*
X491988Y356398D02*
Y368602D01*
X453012Y356398D02*
X491988D01*
X453012Y368602D02*
X491988D01*
X363012Y356398D02*
Y368602D01*
X401988Y356398D02*
Y368602D01*
X363012Y356398D02*
X401988D01*
X363012Y368602D02*
X401988D01*
X273012Y356268D02*
Y368472D01*
X311988Y356268D02*
Y368472D01*
X273012Y356268D02*
X311988D01*
X273012Y368472D02*
X311988D01*
X184012Y357268D02*
Y369472D01*
X222988Y357268D02*
Y369472D01*
X184012Y357268D02*
X222988D01*
X184012Y369472D02*
X222988D01*
X246528Y240035D02*
X250465Y243972D01*
X233535Y240035D02*
Y243972D01*
Y253028D02*
Y256965D01*
Y240035D02*
X246528D01*
X233535Y256965D02*
X246528D01*
X250465Y253028D01*
X530102Y252012D02*
Y290988D01*
X517898Y252012D02*
Y290988D01*
Y252012D02*
X530102D01*
X517898Y290988D02*
X530102D01*
X492488Y179398D02*
Y191602D01*
X453512Y179398D02*
Y191602D01*
X492488D01*
X453512Y179398D02*
X492488D01*
X408988Y179268D02*
Y191472D01*
X370012Y179268D02*
Y191472D01*
X408988D01*
X370012Y179268D02*
X408988D01*
X280012Y179398D02*
X318988D01*
X280012Y191602D02*
X318988D01*
X280012Y179398D02*
Y191602D01*
X318988Y179398D02*
Y191602D01*
X190012Y179398D02*
X228988D01*
X190012Y191602D02*
X228988D01*
X190012Y179398D02*
Y191602D01*
X228988Y179398D02*
Y191602D01*
D16*
X231300Y321000D02*
X234700D01*
X231300Y326000D02*
X234700D01*
D17*
X225400Y326900D02*
X240700D01*
X225400Y320200D02*
Y326900D01*
Y320200D02*
X240700D01*
Y326900D01*
X224220Y282594D02*
Y306217D01*
X251780Y282594D02*
Y306217D01*
X226976Y277870D02*
Y282594D01*
X230913D01*
Y277870D02*
Y282594D01*
X236032Y279445D02*
X239968D01*
Y282594D01*
X236032D02*
X239968D01*
X236032Y279445D02*
Y282594D01*
X249024Y277870D02*
Y282594D01*
X245087D02*
X249024D01*
X245087Y277870D02*
Y282594D01*
X224220D02*
X251780D01*
X249811Y306217D02*
X251780D01*
X224220D02*
X226189D01*
M02*
