G04*
G04 #@! TF.GenerationSoftware,Altium Limited,Altium Designer,18.1.6 (161)*
G04*
G04 Layer_Color=8421504*
%FSLAX25Y25*%
%MOIN*%
G70*
G01*
G75*
%ADD18O,0.02165X0.07874*%
%ADD19R,0.10039X0.06299*%
%ADD20R,0.05000X0.05500*%
G04:AMPARAMS|DCode=21|XSize=216.54mil|YSize=224.41mil|CornerRadius=27.07mil|HoleSize=0mil|Usage=FLASHONLY|Rotation=0.000|XOffset=0mil|YOffset=0mil|HoleType=Round|Shape=RoundedRectangle|*
%AMROUNDEDRECTD21*
21,1,0.21654,0.17028,0,0,0.0*
21,1,0.16240,0.22441,0,0,0.0*
1,1,0.05413,0.08120,-0.08514*
1,1,0.05413,-0.08120,-0.08514*
1,1,0.05413,-0.08120,0.08514*
1,1,0.05413,0.08120,0.08514*
%
%ADD21ROUNDEDRECTD21*%
G04:AMPARAMS|DCode=22|XSize=39.37mil|YSize=78.74mil|CornerRadius=4.92mil|HoleSize=0mil|Usage=FLASHONLY|Rotation=0.000|XOffset=0mil|YOffset=0mil|HoleType=Round|Shape=RoundedRectangle|*
%AMROUNDEDRECTD22*
21,1,0.03937,0.06890,0,0,0.0*
21,1,0.02953,0.07874,0,0,0.0*
1,1,0.00984,0.01476,-0.03445*
1,1,0.00984,-0.01476,-0.03445*
1,1,0.00984,-0.01476,0.03445*
1,1,0.00984,0.01476,0.03445*
%
%ADD22ROUNDEDRECTD22*%
%ADD23O,0.07874X0.02165*%
D18*
X455000Y351870D02*
D03*
X460000D02*
D03*
X465000D02*
D03*
X470000D02*
D03*
X475000D02*
D03*
X480000D02*
D03*
X485000D02*
D03*
X490000D02*
D03*
X455000Y373130D02*
D03*
X460000D02*
D03*
X465000D02*
D03*
X470000D02*
D03*
X475000D02*
D03*
X480000D02*
D03*
X485000D02*
D03*
X490000D02*
D03*
X365000Y351870D02*
D03*
X370000D02*
D03*
X375000D02*
D03*
X380000D02*
D03*
X385000D02*
D03*
X390000D02*
D03*
X395000D02*
D03*
X400000D02*
D03*
X365000Y373130D02*
D03*
X370000D02*
D03*
X375000D02*
D03*
X380000D02*
D03*
X385000D02*
D03*
X390000D02*
D03*
X395000D02*
D03*
X400000D02*
D03*
X275000Y351740D02*
D03*
X280000D02*
D03*
X285000D02*
D03*
X290000D02*
D03*
X295000D02*
D03*
X300000D02*
D03*
X305000D02*
D03*
X310000D02*
D03*
X275000Y373000D02*
D03*
X280000D02*
D03*
X285000D02*
D03*
X290000D02*
D03*
X295000D02*
D03*
X300000D02*
D03*
X305000D02*
D03*
X310000D02*
D03*
X186000Y352740D02*
D03*
X191000D02*
D03*
X196000D02*
D03*
X201000D02*
D03*
X206000D02*
D03*
X211000D02*
D03*
X216000D02*
D03*
X221000D02*
D03*
X186000Y374000D02*
D03*
X191000D02*
D03*
X196000D02*
D03*
X201000D02*
D03*
X206000D02*
D03*
X211000D02*
D03*
X216000D02*
D03*
X221000D02*
D03*
X490500Y196130D02*
D03*
X485500D02*
D03*
X480500D02*
D03*
X475500D02*
D03*
X470500D02*
D03*
X465500D02*
D03*
X460500D02*
D03*
X455500D02*
D03*
X490500Y174870D02*
D03*
X485500D02*
D03*
X480500D02*
D03*
X475500D02*
D03*
X470500D02*
D03*
X465500D02*
D03*
X460500D02*
D03*
X455500D02*
D03*
X407000Y196000D02*
D03*
X402000D02*
D03*
X397000D02*
D03*
X392000D02*
D03*
X387000D02*
D03*
X382000D02*
D03*
X377000D02*
D03*
X372000D02*
D03*
X407000Y174740D02*
D03*
X402000D02*
D03*
X397000D02*
D03*
X392000D02*
D03*
X387000D02*
D03*
X382000D02*
D03*
X377000D02*
D03*
X372000D02*
D03*
X282000Y174870D02*
D03*
X287000D02*
D03*
X292000D02*
D03*
X297000D02*
D03*
X302000D02*
D03*
X307000D02*
D03*
X312000D02*
D03*
X317000D02*
D03*
X282000Y196130D02*
D03*
X287000D02*
D03*
X292000D02*
D03*
X297000D02*
D03*
X302000D02*
D03*
X307000D02*
D03*
X312000D02*
D03*
X317000D02*
D03*
X192000Y174870D02*
D03*
X197000D02*
D03*
X202000D02*
D03*
X207000D02*
D03*
X212000D02*
D03*
X217000D02*
D03*
X222000D02*
D03*
X227000D02*
D03*
X192000Y196130D02*
D03*
X197000D02*
D03*
X202000D02*
D03*
X207000D02*
D03*
X212000D02*
D03*
X217000D02*
D03*
X222000D02*
D03*
X227000D02*
D03*
D19*
X248890Y248500D02*
D03*
X235110D02*
D03*
D20*
X228500Y323500D02*
D03*
X237500D02*
D03*
D21*
X238000Y303067D02*
D03*
D22*
X246996Y273933D02*
D03*
X229004Y273933D02*
D03*
D23*
X534630Y254000D02*
D03*
Y259000D02*
D03*
Y264000D02*
D03*
Y269000D02*
D03*
Y274000D02*
D03*
Y279000D02*
D03*
Y284000D02*
D03*
Y289000D02*
D03*
X513370Y254000D02*
D03*
Y259000D02*
D03*
Y264000D02*
D03*
Y269000D02*
D03*
Y274000D02*
D03*
Y279000D02*
D03*
Y284000D02*
D03*
Y289000D02*
D03*
M02*
