%FSTAX23Y23*%
%MOIN*%
%SFA1B1*%

%IPPOS*%
%ADD9500C,0.015750*%
%ADD9501C,0.030000*%
%ADD9502C,0.031000*%
%ADD9503C,0.032000*%
%ADD9504C,0.036000*%
%ADD9505C,0.042000*%
%LNled_v2-roundholes-1*%
%LPD*%
G54D9500*
X0476Y0186D03*
X0485Y0188D03*
X04905Y02035D03*
X04855Y02115D03*
X0506Y01985D03*
X05133Y0219D03*
X05065Y02445D03*
X05015Y0264D03*
X04855Y0267D03*
X0486Y0284D03*
X0521Y0279D03*
X05065Y0306D03*
X0438Y02875D03*
X0402Y0215D03*
X0392Y0208D03*
X0382Y0203D03*
X03721Y02151D03*
X0391Y01875D03*
X0399D03*
X04605Y01885D03*
X04655Y0204D03*
X044Y0164D03*
X0302Y01875D03*
X0292Y0188D03*
X0283Y01885D03*
X03075Y02046D03*
X0233Y0196D03*
X0222Y0187D03*
X0213Y01875D03*
X02075Y02045D03*
X0184Y01955D03*
X026Y0165D03*
X02155Y02735D03*
X0201Y0346D03*
X0196Y03625D03*
X0186Y0361D03*
X0211Y036D03*
X02285Y03527D03*
X0275Y0344D03*
X02849Y03447D03*
X029Y03402D03*
X0284Y03605D03*
X03D03*
X0318Y036D03*
X03204Y03456D03*
Y03313D03*
X03425Y036D03*
X0365Y03605D03*
X039Y03596D03*
X04075Y0352D03*
X03975Y03385D03*
Y03275D03*
X038Y0339D03*
X0375Y0344D03*
X0368Y0314D03*
X04135Y0373D03*
X0455Y03595D03*
X04555Y0343D03*
X0465Y0339D03*
X047Y0344D03*
X04755D03*
X048Y0364D03*
X05065Y036D03*
X0521Y0339D03*
X05442Y03295D03*
G54D9501*
X0478Y02432D03*
Y03032D03*
X0468D03*
X0458D03*
X0448D03*
X0438D03*
X0428D03*
X0418D03*
X0408D03*
X0398D03*
X0388D03*
X0378D03*
X0368D03*
X0358D03*
X0348D03*
X0338D03*
X0328D03*
X0318D03*
Y02432D03*
X0328D03*
X0338D03*
X0348D03*
X0358D03*
X0368D03*
X0378D03*
X0388D03*
X0398D03*
X0408D03*
X0418D03*
X0428D03*
X0438D03*
X0448D03*
X0458D03*
X0468D03*
X0308D03*
X0298D03*
X0288D03*
Y03032D03*
X0298D03*
X0308D03*
G54D9502*
X05307Y03382D03*
X05498Y03376D03*
X05502Y03627D03*
X0531Y0363D03*
G54D9503*
X01735Y02605D03*
X01885D03*
G54D9504*
X0192Y02181D03*
Y02282D03*
Y0238D03*
G54D9505*
X01705Y0155D03*
X01805D03*
X01905D03*
X02005D03*
X02105D03*
X02205D03*
X02305D03*
X02405D03*
X02605D03*
X02705D03*
X02805D03*
X02905D03*
X03005D03*
X03105D03*
X03205D03*
X03305D03*
X03505D03*
X03605D03*
X03705D03*
X03805D03*
X03905D03*
X04005D03*
X04105D03*
X04205D03*
X04405D03*
X04505D03*
X04605D03*
X04705D03*
X04805D03*
X04905D03*
X05005D03*
X05105D03*
X0551Y0229D03*
Y0239D03*
Y0249D03*
Y0259D03*
Y0269D03*
Y0279D03*
Y0289D03*
Y0299D03*
X0311Y0394D03*
X0301D03*
X0291D03*
X0281D03*
X0271D03*
X0261D03*
X0241D03*
X0231D03*
X0221D03*
X0211D03*
X0201D03*
X0191D03*
X0181D03*
X0171D03*
X0321D03*
X0331D03*
X0351D03*
X0361D03*
X0371D03*
X0381D03*
X0391D03*
X0401D03*
X0411D03*
X0421D03*
X0441D03*
X0451D03*
X0461D03*
X0471D03*
X0481D03*
X0491D03*
X0501D03*
X0511D03*
M02*