%FSTAX23Y23*%
%MOIN*%
%SFA1B1*%

%IPPOS*%
%ADD12C,0.010000*%
%ADD16C,0.004000*%
%ADD17C,0.005000*%
%LNled_v2-1*%
%LPD*%
G36*
X03753Y026D02*
X03729D01*
Y027*
X03704Y026*
X03679*
X03654Y027*
X03654Y026*
X0363*
Y02728*
X03669*
X03692Y0264*
X03715Y02728*
X03753*
Y026*
G37*
G36*
X03174Y0273D02*
X03179Y02729D01*
X03182Y02728*
X03185Y02728*
X03187Y02727*
X03189Y02727*
X03191Y02726*
X03193Y02725*
X03194Y02725*
X03196Y02724*
X03196Y02724*
X03197Y02724*
X03197Y02724*
X03198*
X03203Y0272*
X03208Y02716*
X03212Y02712*
X03216Y02708*
X03219Y02705*
X0322Y02703*
X03221Y02702*
X03221Y02701*
X03222Y027*
X03222Y027*
X03222Y02699*
X03225Y02693*
X03227Y02687*
X03229Y02681*
X03229Y02676*
X0323Y02673*
X0323Y02671*
X0323Y02669*
Y02667*
X0323Y02666*
Y02665*
Y02664*
Y02664*
X0323Y02657*
X03229Y02651*
X03228Y02645*
X03228Y02642*
X03227Y0264*
X03226Y02638*
X03225Y02636*
X03225Y02634*
X03224Y02632*
X03224Y02631*
X03223Y0263*
X03223Y0263*
Y0263*
X0322Y02624*
X03216Y02619*
X03213Y02615*
X03209Y02612*
X03206Y02609*
X03204Y02608*
X03203Y02607*
X03202Y02607*
X03201Y02606*
X03201Y02606*
X03201Y02606*
X03198Y02604*
X03195Y02603*
X03189Y02601*
X03183Y02599*
X03178Y02598*
X03175Y02598*
X03173Y02598*
X03171Y02597*
X03169*
X03168Y02597*
X03166*
X0316Y02597*
X03154Y02598*
X03149Y02599*
X03144Y026*
X03142Y02601*
X0314Y02601*
X03138Y02602*
X03137Y02602*
X03136Y02602*
X03135Y02603*
X03135Y02603*
X03134*
X03129Y02605*
X03124Y02608*
X0312Y0261*
X03117Y02612*
X03114Y02614*
X03112Y02616*
X03111Y02616*
X03111Y02617*
Y02668*
X03166*
Y02647*
X03137*
Y0263*
X03139Y02628*
X03142Y02627*
X03144Y02626*
X03146Y02625*
X03148Y02624*
X0315Y02623*
X03151Y02623*
X03151Y02622*
X03154Y02621*
X03157Y02621*
X0316Y0262*
X03162Y0262*
X03164Y02619*
X03166Y02619*
X03167*
X0317Y02619*
X03173Y0262*
X03176Y0262*
X03178Y02621*
X03183Y02623*
X03187Y02625*
X03188Y02626*
X0319Y02627*
X03191Y02628*
X03192Y02629*
X03193Y0263*
X03193Y0263*
X03194Y0263*
X03194Y02631*
X03196Y02633*
X03197Y02635*
X03198Y02638*
X03199Y02641*
X03201Y02647*
X03203Y02652*
X03203Y02655*
X03203Y02657*
X03203Y02659*
X03204Y02661*
X03204Y02663*
Y02664*
Y02665*
Y02665*
X03204Y02669*
X03203Y02672*
X03203Y02676*
X03202Y02679*
X03201Y02682*
X03201Y02684*
X032Y02687*
X03199Y02689*
X03198Y02691*
X03197Y02692*
X03196Y02694*
X03196Y02695*
X03195Y02696*
X03194Y02696*
X03194Y02697*
X03194Y02697*
X03192Y02699*
X0319Y02701*
X03188Y02702*
X03186Y02703*
X03181Y02705*
X03177Y02707*
X03173Y02707*
X03171Y02708*
X0317Y02708*
X03169Y02708*
X03167*
X03163Y02708*
X03159Y02707*
X03156Y02706*
X03154Y02705*
X03151Y02704*
X0315Y02703*
X03149Y02703*
X03148Y02702*
X03146Y027*
X03144Y02698*
X03142Y02695*
X03141Y02693*
X03139Y02691*
X03139Y02689*
X03138Y02688*
X03138Y02688*
Y02688*
X03113Y02692*
X03113Y02696*
X03114Y02699*
X03117Y02704*
X03118Y02707*
X0312Y02709*
X03121Y02711*
X03123Y02713*
X03124Y02714*
X03125Y02716*
X03127Y02717*
X03128Y02718*
X03129Y02719*
X03129Y02719*
X0313Y0272*
X0313Y0272*
X03132Y02722*
X03135Y02723*
X03138Y02724*
X03141Y02726*
X03147Y02727*
X03153Y02729*
X03156Y02729*
X03159Y02729*
X03161Y0273*
X03163Y0273*
X03165Y0273*
X03167*
X03174Y0273*
G37*
G36*
X04142Y02633D02*
X04142Y02629D01*
X04141Y02625*
X04141Y02621*
X0414Y02618*
X0414Y02616*
X04139Y02614*
X04139Y02613*
X04139Y02613*
X04137Y0261*
X04135Y02608*
X04134Y02606*
X04132Y02604*
X0413Y02603*
X04129Y02602*
X04128Y02601*
X04128Y02601*
X04125Y026*
X04122Y02599*
X04119Y02598*
X04117Y02598*
X04114Y02597*
X04113Y02597*
X04111*
X04108Y02597*
X04104Y02598*
X04101Y02599*
X04099Y02599*
X04097Y026*
X04095Y02601*
X04094Y02601*
X04094Y02601*
X04091Y02603*
X04088Y02605*
X04086Y02607*
X04084Y02609*
X04082Y02611*
X04081Y02612*
X0408Y02613*
X0408Y02613*
Y026*
X04057*
Y02692*
X04082*
Y02653*
Y0265*
Y02646*
X04082Y02643*
X04082Y02641*
Y02638*
X04083Y02636*
X04083Y02634*
X04083Y02633*
X04083Y02632*
X04083Y02631*
X04084Y0263*
Y02629*
X04084Y02628*
Y02628*
X04085Y02626*
X04086Y02624*
X04087Y02623*
X04088Y02622*
X04089Y02621*
X0409Y0262*
X04091Y02619*
X04091Y02619*
X04093Y02618*
X04094Y02617*
X04096Y02617*
X04098Y02616*
X041Y02616*
X04101Y02616*
X04102*
X04104Y02616*
X04106Y02616*
X04107Y02617*
X04109Y02617*
X0411Y02618*
X0411Y02618*
X04111Y02618*
X04111Y02618*
X04112Y02619*
X04113Y02621*
X04115Y02623*
X04115Y02624*
X04116Y02625*
X04116Y02625*
Y02625*
X04116Y02626*
X04116Y02628*
X04117Y02629*
Y02631*
X04117Y02635*
Y02639*
X04117Y02643*
Y02645*
Y02646*
Y02648*
Y02649*
Y02649*
Y0265*
Y02692*
X04142*
Y02633*
G37*
G36*
X02908D02*
X02908Y02629D01*
X02908Y02625*
X02907Y02621*
X02907Y02618*
X02906Y02616*
X02905Y02614*
X02905Y02613*
X02905Y02613*
X02904Y0261*
X02902Y02608*
X029Y02606*
X02898Y02604*
X02897Y02603*
X02896Y02602*
X02895Y02601*
X02894Y02601*
X02891Y026*
X02888Y02599*
X02886Y02598*
X02883Y02598*
X02881Y02597*
X02879Y02597*
X02878*
X02874Y02597*
X02871Y02598*
X02868Y02599*
X02865Y02599*
X02863Y026*
X02862Y02601*
X02861Y02601*
X0286Y02601*
X02857Y02603*
X02855Y02605*
X02852Y02607*
X0285Y02609*
X02849Y02611*
X02848Y02612*
X02847Y02613*
X02847Y02613*
Y026*
X02824*
Y02692*
X02848*
Y02653*
Y0265*
Y02646*
X02849Y02643*
X02849Y02641*
Y02638*
X02849Y02636*
X02849Y02634*
X02849Y02633*
X0285Y02632*
X0285Y02631*
X0285Y0263*
Y02629*
X0285Y02628*
Y02628*
X02851Y02626*
X02852Y02624*
X02853Y02623*
X02855Y02622*
X02855Y02621*
X02856Y0262*
X02857Y02619*
X02857Y02619*
X02859Y02618*
X02861Y02617*
X02863Y02617*
X02865Y02616*
X02866Y02616*
X02867Y02616*
X02868*
X0287Y02616*
X02872Y02616*
X02874Y02617*
X02875Y02617*
X02876Y02618*
X02877Y02618*
X02877Y02618*
X02878Y02618*
X02879Y02619*
X0288Y02621*
X02881Y02623*
X02882Y02624*
X02882Y02625*
X02882Y02625*
Y02625*
X02883Y02626*
X02883Y02628*
X02883Y02629*
Y02631*
X02883Y02635*
Y02639*
X02884Y02643*
Y02645*
Y02646*
Y02648*
Y02649*
Y02649*
Y0265*
Y02692*
X02908*
Y02633*
G37*
G36*
X03891Y02694D02*
X03894Y02694D01*
X03897Y02693*
X039Y02692*
X03903Y02691*
X03905Y0269*
X03907Y02689*
X0391Y02688*
X03911Y02687*
X03913Y02685*
X03915Y02684*
X03916Y02683*
X03917Y02682*
X03917Y02682*
X03918Y02681*
X03918Y02681*
X0392Y02679*
X03922Y02676*
X03923Y02673*
X03925Y0267*
X03926Y02667*
X03927Y02664*
X03928Y02658*
X03929Y02656*
X03929Y02653*
X03929Y02651*
X0393Y02649*
X0393Y02647*
Y02646*
Y02645*
Y02645*
X0393Y02641*
X03929Y02638*
X03928Y02632*
X03928Y02629*
X03927Y02626*
X03926Y02624*
X03925Y02622*
X03925Y0262*
X03924Y02618*
X03923Y02616*
X03922Y02615*
X03922Y02614*
X03921Y02614*
X03921Y02613*
Y02613*
X03919Y0261*
X03916Y02608*
X03913Y02606*
X0391Y02604*
X03907Y02602*
X03904Y02601*
X03901Y026*
X03898Y02599*
X03896Y02599*
X03893Y02598*
X03891Y02598*
X03889Y02597*
X03887*
X03886Y02597*
X03885*
X03879Y02598*
X03875Y02598*
X0387Y02599*
X03867Y02601*
X03864Y02602*
X03862Y02603*
X03861Y02603*
X03861Y02604*
X0386Y02604*
X0386Y02604*
X0386*
X03856Y02607*
X03853Y0261*
X0385Y02614*
X03848Y02617*
X03847Y0262*
X03846Y02621*
X03845Y02623*
X03845Y02623*
X03845Y02624*
X03844Y02625*
Y02625*
X03869Y02629*
X0387Y02626*
X03871Y02624*
X03872Y02623*
X03873Y02621*
X03874Y0262*
X03874Y02619*
X03875Y02619*
X03875Y02619*
X03877Y02618*
X03878Y02617*
X0388Y02616*
X03881Y02616*
X03883Y02616*
X03884Y02616*
X03885*
X03888Y02616*
X0389Y02616*
X03893Y02617*
X03895Y02619*
X03897Y0262*
X03898Y02621*
X03899Y02621*
X03899Y02622*
X03901Y02624*
X03902Y02627*
X03903Y0263*
X03904Y02633*
X03904Y02635*
X03904Y02637*
X03905Y02638*
Y02638*
Y02639*
Y02639*
X03843*
Y02644*
X03844Y02649*
X03844Y02653*
X03845Y02657*
X03846Y02661*
X03847Y02664*
X03848Y02667*
X03849Y0267*
X0385Y02673*
X03851Y02675*
X03852Y02676*
X03853Y02678*
X03853Y02679*
X03854Y0268*
X03854Y0268*
X03855Y02681*
X03857Y02683*
X0386Y02685*
X03862Y02687*
X03865Y02689*
X03868Y0269*
X0387Y02691*
X03873Y02692*
X03876Y02693*
X03878Y02693*
X0388Y02694*
X03882Y02694*
X03884Y02694*
X03885Y02694*
X03887*
X03891Y02694*
G37*
G36*
X03782D02*
X03784Y02694D01*
X03786Y02693*
X03788Y02693*
X03789Y02692*
X0379Y02692*
X03791Y02692*
X03791Y02691*
X03793Y0269*
X03794Y02688*
X03796Y02686*
X03798Y02684*
X03799Y02682*
X038Y02681*
X03801Y0268*
X03801Y02679*
Y02692*
X03824*
Y026*
X038*
Y02628*
Y02632*
Y02636*
X03799Y0264*
X03799Y02643*
Y02646*
X03799Y02648*
X03799Y0265*
X03799Y02652*
X03798Y02654*
X03798Y02656*
X03798Y02657*
Y02658*
X03798Y02658*
X03798Y02659*
Y02659*
X03797Y02662*
X03796Y02664*
X03795Y02666*
X03794Y02667*
X03793Y02668*
X03793Y02669*
X03792Y02669*
X03792Y02669*
X03791Y0267*
X03789Y02671*
X03787Y02672*
X03786Y02672*
X03785Y02672*
X03784Y02672*
X03783*
X03781Y02672*
X03779Y02672*
X03777Y02671*
X03775Y0267*
X03774Y0267*
X03772Y02669*
X03772Y02668*
X03771Y02668*
X03764Y0269*
X03767Y02691*
X0377Y02692*
X03773Y02693*
X03775Y02694*
X03777Y02694*
X03779Y02694*
X0378*
X03782Y02694*
G37*
G36*
X03336D02*
X03339Y02694D01*
X03342Y02693*
X03345Y02692*
X03348Y02691*
X0335Y0269*
X03352Y02688*
X03354Y02687*
X03356Y02685*
X03358Y02684*
X0336Y02683*
X03361Y02681*
X03362Y0268*
X03362Y02679*
X03363Y02679*
X03363Y02679*
Y02692*
X03386*
Y026*
X03361*
Y02641*
Y02644*
Y02647*
X03361Y02649*
Y02651*
X03361Y02653*
X03361Y02655*
X0336Y02657*
X0336Y02658*
X0336Y0266*
X0336Y02662*
X03359Y02663*
Y02663*
X03359Y02665*
X03357Y02667*
X03356Y02668*
X03355Y0267*
X03354Y02671*
X03353Y02672*
X03353Y02672*
X03353Y02672*
X03351Y02673*
X03349Y02674*
X03347Y02675*
X03345Y02675*
X03343Y02675*
X03342Y02676*
X03341*
X03339Y02675*
X03338Y02675*
X03336Y02675*
X03335Y02674*
X03334Y02674*
X03333Y02674*
X03333Y02673*
X03333Y02673*
X0333Y02671*
X03329Y02669*
X03328Y02668*
X03328Y02667*
X03328Y02666*
Y02666*
X03327Y02665*
X03327Y02664*
X03327Y02661*
X03326Y02658*
X03326Y02655*
X03326Y02652*
Y0265*
Y02649*
Y02648*
Y02647*
Y02647*
Y02647*
Y026*
X03301*
Y02657*
Y02661*
X03301Y02664*
X03302Y02667*
X03302Y02669*
X03302Y02671*
X03302Y02673*
X03303Y02673*
Y02674*
X03303Y02676*
X03304Y02678*
X03305Y02679*
X03305Y02681*
X03306Y02682*
X03307Y02683*
X03307Y02684*
X03307Y02684*
X03309Y02686*
X03311Y02687*
X03312Y02688*
X03314Y0269*
X03315Y0269*
X03316Y02691*
X03317Y02691*
X03318Y02691*
X0332Y02692*
X03323Y02693*
X03325Y02694*
X03328Y02694*
X03329Y02694*
X03331Y02694*
X03332*
X03336Y02694*
G37*
G36*
X03046D02*
X03048Y02694D01*
X0305Y02693*
X03052Y02693*
X03053Y02692*
X03054Y02692*
X03054Y02692*
X03055Y02691*
X03056Y0269*
X03058Y02688*
X0306Y02686*
X03062Y02684*
X03063Y02682*
X03064Y02681*
X03065Y0268*
X03065Y02679*
Y02692*
X03088*
Y026*
X03063*
Y02628*
Y02632*
Y02636*
X03063Y0264*
X03063Y02643*
Y02646*
X03063Y02648*
X03063Y0265*
X03063Y02652*
X03062Y02654*
X03062Y02656*
X03062Y02657*
Y02658*
X03062Y02658*
X03062Y02659*
Y02659*
X03061Y02662*
X0306Y02664*
X03059Y02666*
X03058Y02667*
X03057Y02668*
X03056Y02669*
X03056Y02669*
X03056Y02669*
X03054Y0267*
X03053Y02671*
X03051Y02672*
X0305Y02672*
X03049Y02672*
X03048Y02672*
X03047*
X03045Y02672*
X03043Y02672*
X03041Y02671*
X03039Y0267*
X03038Y0267*
X03036Y02669*
X03036Y02668*
X03035Y02668*
X03028Y0269*
X03031Y02691*
X03034Y02692*
X03037Y02693*
X03039Y02694*
X03041Y02694*
X03043Y02694*
X03044*
X03046Y02694*
G37*
G36*
X04221Y0273D02*
X04226Y02729D01*
X04231Y02729*
X04234Y02728*
X04237Y02727*
X04238Y02726*
X04239Y02726*
X0424Y02726*
X04241Y02726*
X04241Y02725*
X04241*
X04245Y02724*
X04248Y02722*
X04251Y02719*
X04253Y02717*
X04255Y02715*
X04256Y02714*
X04257Y02713*
X04257Y02713*
Y02712*
X04259Y02709*
X0426Y02706*
X04261Y02703*
X04262Y027*
X04262Y02698*
X04263Y02696*
Y02695*
Y02694*
Y02694*
Y02694*
X04262Y02691*
X04262Y02689*
X04261Y02686*
X04261Y02684*
X04259Y02679*
X04257Y02675*
X04256Y02674*
X04255Y02672*
X04254Y02671*
X04253Y0267*
X04252Y02669*
X04251Y02669*
X04251Y02668*
X04251Y02668*
X04249Y02667*
X04247Y02666*
X04243Y02663*
X04238Y02661*
X04233Y02659*
X04229Y02658*
X04227Y02657*
X04225Y02657*
X04224Y02656*
X04223Y02656*
X04222Y02656*
X04222*
X04219Y02655*
X04216Y02654*
X04214Y02654*
X04212Y02653*
X0421Y02652*
X04208Y02652*
X04207Y02652*
X04206Y02651*
X04204Y02651*
X04202Y0265*
X04201Y0265*
X04201*
X04199Y02649*
X04197Y02648*
X04195Y02647*
X04194Y02646*
X04193Y02645*
X04193Y02645*
X04192Y02644*
X04192Y02644*
X04191Y02643*
X0419Y02642*
X0419Y02639*
X04189Y02638*
X04189Y02637*
Y02637*
Y02637*
X04189Y02634*
X0419Y02632*
X04191Y0263*
X04192Y02628*
X04194Y02626*
X04195Y02625*
X04195Y02625*
X04196Y02624*
X04198Y02623*
X04201Y02621*
X04204Y0262*
X04207Y0262*
X0421Y02619*
X04212Y02619*
X04214*
X04219Y02619*
X04222Y0262*
X04226Y02621*
X04228Y02622*
X0423Y02623*
X04232Y02624*
X04233Y02625*
X04233Y02625*
X04236Y02627*
X04238Y0263*
X04239Y02633*
X0424Y02636*
X04241Y02639*
X04242Y02641*
X04242Y02642*
Y02643*
X04242Y02643*
Y02644*
X04268Y02641*
X04267Y02637*
X04266Y02633*
X04265Y0263*
X04264Y02627*
X04263Y02624*
X04262Y02621*
X0426Y02619*
X04259Y02616*
X04258Y02615*
X04256Y02613*
X04255Y02612*
X04254Y0261*
X04253Y02609*
X04253Y02609*
X04252Y02608*
X04252Y02608*
X0425Y02606*
X04247Y02605*
X04244Y02603*
X04241Y02602*
X04238Y02601*
X04234Y026*
X04228Y02599*
X04226Y02598*
X04223Y02598*
X04221Y02598*
X04219Y02597*
X04217Y02597*
X04215*
X04209Y02597*
X04203Y02598*
X04199Y02599*
X04194Y026*
X04193Y026*
X04191Y026*
X0419Y02601*
X04189Y02601*
X04188Y02601*
X04187Y02601*
X04187Y02602*
X04187*
X04183Y02604*
X04179Y02606*
X04176Y02608*
X04174Y02611*
X04172Y02613*
X04171Y02614*
X0417Y02616*
X04169Y02616*
Y02616*
X04167Y0262*
X04166Y02623*
X04165Y02627*
X04164Y0263*
X04164Y02633*
X04163Y02635*
Y02636*
Y02636*
Y02637*
Y02637*
X04163Y02641*
X04164Y02645*
X04165Y02649*
X04166Y02651*
X04167Y02654*
X04168Y02656*
X04168Y02657*
X04168Y02657*
X04171Y0266*
X04173Y02663*
X04175Y02665*
X04177Y02667*
X04179Y02668*
X04181Y02669*
X04182Y0267*
X04182Y0267*
X04183*
X04184Y02671*
X04186Y02672*
X04191Y02674*
X04195Y02675*
X042Y02677*
X04204Y02678*
X04206Y02678*
X04207Y02679*
X04209Y02679*
X0421Y02679*
X0421Y02679*
X0421*
X04214Y0268*
X04217Y02681*
X0422Y02682*
X04222Y02683*
X04224Y02683*
X04226Y02684*
X04228Y02685*
X04229Y02685*
X04231Y02686*
X04232Y02686*
X04233Y02687*
X04234Y02688*
X04234Y02688*
X04235Y02689*
X04236Y02691*
X04237Y02692*
X04237Y02693*
X04238Y02694*
X04238Y02695*
Y02696*
Y02696*
X04238Y02698*
X04237Y02699*
X04237Y027*
X04236Y02702*
X04235Y02703*
X04234Y02703*
X04234Y02704*
X04234Y02704*
X04231Y02705*
X04228Y02707*
X04226Y02707*
X04223Y02708*
X0422Y02708*
X04218Y02708*
X04216*
X04212Y02708*
X04209Y02708*
X04206Y02707*
X04204Y02706*
X04202Y02705*
X04201Y02705*
X042Y02704*
X042Y02704*
X04198Y02702*
X04197Y027*
X04195Y02698*
X04194Y02695*
X04194Y02693*
X04193Y02691*
X04193Y0269*
Y0269*
Y0269*
X04167Y02691*
X04167Y02694*
X04168Y02697*
X04168Y027*
X04169Y02703*
X04171Y02708*
X04172Y0271*
X04174Y02712*
X04175Y02713*
X04176Y02715*
X04177Y02716*
X04178Y02717*
X04179Y02718*
X04179Y02719*
X0418Y02719*
X0418Y02719*
X04182Y02721*
X04185Y02723*
X04188Y02724*
X04191Y02725*
X04197Y02727*
X04202Y02729*
X04205Y02729*
X04208Y02729*
X0421Y0273*
X04212Y0273*
X04214Y0273*
X04216*
X04221Y0273*
G37*
G36*
X03567Y02694D02*
X03572Y02693D01*
X03576Y02692*
X0358Y02691*
X03583Y0269*
X03584Y0269*
X03585Y02689*
X03586Y02689*
X03586Y02689*
X03587Y02688*
X03587*
X03591Y02686*
X03594Y02683*
X03597Y0268*
X03599Y02677*
X03601Y02675*
X03603Y02673*
X03603Y02672*
X03604Y02671*
X03604Y02671*
Y02671*
X03606Y02666*
X03607Y02662*
X03608Y02658*
X03609Y02655*
X03609Y02651*
X0361Y0265*
Y02649*
X0361Y02648*
Y02648*
Y02647*
Y02647*
X0361Y02641*
X03609Y02636*
X03608Y02631*
X03607Y02627*
X03606Y02626*
X03606Y02624*
X03605Y02623*
X03605Y02622*
X03604Y02621*
X03604Y0262*
X03604Y0262*
Y0262*
X03601Y02616*
X03599Y02612*
X03596Y02609*
X03593Y02607*
X0359Y02605*
X03588Y02604*
X03587Y02603*
X03587Y02603*
X03586Y02603*
X03586*
X03582Y02601*
X03578Y026*
X03574Y02599*
X0357Y02598*
X03567Y02598*
X03565Y02597*
X03564Y02597*
X03562*
X03558Y02597*
X03555Y02598*
X03551Y02599*
X03548Y02599*
X03545Y026*
X03542Y02601*
X0354Y02603*
X03537Y02604*
X03535Y02605*
X03533Y02607*
X03532Y02608*
X0353Y02609*
X03529Y0261*
X03528Y0261*
X03528Y02611*
X03528Y02611*
X03526Y02614*
X03523Y02616*
X03522Y02619*
X0352Y02622*
X03519Y02625*
X03518Y02628*
X03517Y02631*
X03516Y02634*
X03515Y02636*
X03515Y02639*
X03515Y02641*
X03514Y02642*
X03514Y02644*
Y02645*
Y02646*
Y02646*
X03514Y0265*
X03515Y02653*
X03515Y02657*
X03516Y0266*
X03517Y02663*
X03519Y02666*
X0352Y02669*
X03521Y02671*
X03522Y02673*
X03523Y02675*
X03525Y02677*
X03526Y02678*
X03527Y02679*
X03527Y0268*
X03528Y0268*
X03528Y02681*
X0353Y02683*
X03533Y02685*
X03536Y02687*
X03539Y02689*
X03542Y0269*
X03545Y02691*
X03547Y02692*
X0355Y02693*
X03553Y02693*
X03555Y02694*
X03557Y02694*
X03559Y02694*
X0356Y02694*
X03562*
X03567Y02694*
G37*
G36*
X03458D02*
X03462Y02693D01*
X03467Y02692*
X0347Y02691*
X03473Y0269*
X03475Y0269*
X03476Y02689*
X03476Y02689*
X03477Y02689*
X03477Y02688*
X03478*
X03481Y02686*
X03485Y02683*
X03488Y0268*
X0349Y02677*
X03492Y02675*
X03493Y02673*
X03494Y02672*
X03494Y02671*
X03495Y02671*
Y02671*
X03496Y02666*
X03498Y02662*
X03499Y02658*
X035Y02655*
X035Y02651*
X035Y0265*
Y02649*
X035Y02648*
Y02648*
Y02647*
Y02647*
X035Y02641*
X03499Y02636*
X03498Y02631*
X03497Y02627*
X03497Y02626*
X03496Y02624*
X03496Y02623*
X03495Y02622*
X03495Y02621*
X03495Y0262*
X03495Y0262*
Y0262*
X03492Y02616*
X03489Y02612*
X03486Y02609*
X03483Y02607*
X03481Y02605*
X03479Y02604*
X03478Y02603*
X03478Y02603*
X03477Y02603*
X03477*
X03473Y02601*
X03468Y026*
X03464Y02599*
X03461Y02598*
X03457Y02598*
X03456Y02597*
X03455Y02597*
X03453*
X03449Y02597*
X03445Y02598*
X03442Y02599*
X03439Y02599*
X03436Y026*
X03433Y02601*
X0343Y02603*
X03428Y02604*
X03426Y02605*
X03424Y02607*
X03422Y02608*
X03421Y02609*
X0342Y0261*
X03419Y0261*
X03419Y02611*
X03419Y02611*
X03416Y02614*
X03414Y02616*
X03412Y02619*
X03411Y02622*
X03409Y02625*
X03408Y02628*
X03407Y02631*
X03407Y02634*
X03406Y02636*
X03406Y02639*
X03405Y02641*
X03405Y02642*
X03405Y02644*
Y02645*
Y02646*
Y02646*
X03405Y0265*
X03405Y02653*
X03406Y02657*
X03407Y0266*
X03408Y02663*
X03409Y02666*
X0341Y02669*
X03412Y02671*
X03413Y02673*
X03414Y02675*
X03415Y02677*
X03416Y02678*
X03417Y02679*
X03418Y0268*
X03418Y0268*
X03418Y02681*
X03421Y02683*
X03424Y02685*
X03427Y02687*
X03429Y02689*
X03432Y0269*
X03435Y02691*
X03438Y02692*
X03441Y02693*
X03443Y02693*
X03445Y02694*
X03447Y02694*
X03449Y02694*
X03451Y02694*
X03453*
X03458Y02694*
G37*
G36*
X0298D02*
X02985Y02693D01*
X02989Y02692*
X02993Y02691*
X02996Y0269*
X02997Y0269*
X02998Y02689*
X02999Y02689*
X02999Y02689*
X03Y02688*
X03*
X03004Y02686*
X03007Y02683*
X0301Y0268*
X03013Y02677*
X03014Y02675*
X03016Y02673*
X03016Y02672*
X03017Y02671*
X03017Y02671*
Y02671*
X03019Y02666*
X0302Y02662*
X03021Y02658*
X03022Y02655*
X03022Y02651*
X03023Y0265*
Y02649*
X03023Y02648*
Y02648*
Y02647*
Y02647*
X03023Y02641*
X03022Y02636*
X03021Y02631*
X0302Y02627*
X03019Y02626*
X03019Y02624*
X03018Y02623*
X03018Y02622*
X03018Y02621*
X03017Y0262*
X03017Y0262*
Y0262*
X03014Y02616*
X03012Y02612*
X03009Y02609*
X03006Y02607*
X03003Y02605*
X03001Y02604*
X03001Y02603*
X03Y02603*
X03Y02603*
X02999*
X02995Y02601*
X02991Y026*
X02987Y02599*
X02983Y02598*
X0298Y02598*
X02979Y02597*
X02977Y02597*
X02975*
X02971Y02597*
X02968Y02598*
X02964Y02599*
X02961Y02599*
X02958Y026*
X02955Y02601*
X02953Y02603*
X0295Y02604*
X02948Y02605*
X02946Y02607*
X02945Y02608*
X02943Y02609*
X02942Y0261*
X02942Y0261*
X02941Y02611*
X02941Y02611*
X02939Y02614*
X02937Y02616*
X02935Y02619*
X02933Y02622*
X02932Y02625*
X02931Y02628*
X0293Y02631*
X02929Y02634*
X02929Y02636*
X02928Y02639*
X02928Y02641*
X02928Y02642*
X02927Y02644*
Y02645*
Y02646*
Y02646*
X02928Y0265*
X02928Y02653*
X02929Y02657*
X0293Y0266*
X0293Y02663*
X02932Y02666*
X02933Y02669*
X02934Y02671*
X02935Y02673*
X02937Y02675*
X02938Y02677*
X02939Y02678*
X0294Y02679*
X0294Y0268*
X02941Y0268*
X02941Y02681*
X02943Y02683*
X02946Y02685*
X02949Y02687*
X02952Y02689*
X02955Y0269*
X02958Y02691*
X0296Y02692*
X02963Y02693*
X02966Y02693*
X02968Y02694*
X0297Y02694*
X02972Y02694*
X02973Y02694*
X02975*
X0298Y02694*
G37*
G36*
X03984D02*
X03988Y02694D01*
X03991Y02693*
X03993Y02692*
X03995Y02691*
X03997Y02691*
X03998Y0269*
X03998Y0269*
X04001Y02688*
X04003Y02686*
X04005Y02684*
X04007Y02683*
X04008Y02681*
X04009Y0268*
X0401Y02679*
X0401Y02679*
Y02692*
X04033*
Y02564*
X04008*
Y02611*
X04006Y02608*
X04003Y02606*
X04001Y02604*
X03999Y02603*
X03997Y02601*
X03996Y02601*
X03995Y026*
X03995Y026*
X03993Y02599*
X0399Y02598*
X03988Y02598*
X03986Y02598*
X03984Y02597*
X03983Y02597*
X03981*
X03978Y02597*
X03975Y02598*
X03973Y02598*
X0397Y02599*
X03965Y02601*
X03961Y02604*
X0396Y02605*
X03958Y02606*
X03957Y02607*
X03956Y02608*
X03955Y02609*
X03954Y02609*
X03954Y0261*
X03954Y0261*
X03952Y02613*
X0395Y02615*
X03948Y02618*
X03947Y02621*
X03946Y02624*
X03945Y02627*
X03944Y02633*
X03943Y02636*
X03943Y02638*
X03943Y0264*
X03942Y02642*
X03942Y02644*
Y02645*
Y02646*
Y02646*
X03942Y0265*
X03943Y02654*
X03943Y02658*
X03944Y02661*
X03945Y02664*
X03946Y02667*
X03947Y0267*
X03948Y02672*
X03949Y02674*
X0395Y02676*
X03951Y02678*
X03952Y02679*
X03952Y0268*
X03953Y02681*
X03953Y02681*
X03953Y02682*
X03956Y02684*
X03958Y02686*
X0396Y02688*
X03962Y02689*
X03965Y0269*
X03967Y02691*
X03971Y02693*
X03975Y02694*
X03977Y02694*
X03978Y02694*
X03979Y02694*
X03981*
X03984Y02694*
G37*
G36*
X02751D02*
X02754Y02694D01*
X02757Y02693*
X02759Y02692*
X02762Y02691*
X02763Y02691*
X02764Y0269*
X02764Y0269*
X02767Y02688*
X0277Y02686*
X02772Y02684*
X02773Y02683*
X02775Y02681*
X02776Y0268*
X02776Y02679*
X02776Y02679*
Y02692*
X02799*
Y02564*
X02775*
Y02611*
X02772Y02608*
X0277Y02606*
X02767Y02604*
X02765Y02603*
X02764Y02601*
X02763Y02601*
X02762Y026*
X02762Y026*
X02759Y02599*
X02757Y02598*
X02754Y02598*
X02752Y02598*
X0275Y02597*
X02749Y02597*
X02748*
X02745Y02597*
X02742Y02598*
X02739Y02598*
X02737Y02599*
X02732Y02601*
X02728Y02604*
X02726Y02605*
X02725Y02606*
X02723Y02607*
X02722Y02608*
X02721Y02609*
X02721Y02609*
X0272Y0261*
X0272Y0261*
X02718Y02613*
X02716Y02615*
X02715Y02618*
X02714Y02621*
X02712Y02624*
X02711Y02627*
X0271Y02633*
X0271Y02636*
X02709Y02638*
X02709Y0264*
X02709Y02642*
X02709Y02644*
Y02645*
Y02646*
Y02646*
X02709Y0265*
X02709Y02654*
X0271Y02658*
X0271Y02661*
X02711Y02664*
X02712Y02667*
X02713Y0267*
X02714Y02672*
X02715Y02674*
X02716Y02676*
X02717Y02678*
X02718Y02679*
X02719Y0268*
X02719Y02681*
X0272Y02681*
X0272Y02682*
X02722Y02684*
X02724Y02686*
X02727Y02688*
X02729Y02689*
X02731Y0269*
X02734Y02691*
X02738Y02693*
X02742Y02694*
X02743Y02694*
X02745Y02694*
X02746Y02694*
X02747*
X02751Y02694*
G37*
%LNled_v2-2*%
%LPC*%
G36*
X03887Y02676D02*
X03886D01*
X03883Y02675*
X03881Y02675*
X03878Y02674*
X03877Y02673*
X03875Y02672*
X03874Y02671*
X03873Y0267*
X03873Y0267*
X03871Y02668*
X0387Y02665*
X03869Y02662*
X03868Y0266*
X03868Y02658*
X03868Y02656*
X03868Y02655*
Y02654*
Y02654*
Y02654*
X03904*
X03904Y02657*
X03903Y0266*
X03903Y02663*
X03902Y02666*
X03901Y02667*
X039Y02669*
X03899Y02669*
X03899Y0267*
X03897Y02672*
X03895Y02673*
X03893Y02674*
X03891Y02675*
X03889Y02675*
X03887Y02676*
G37*
G36*
X03562Y02674D02*
X03562D01*
X03559Y02674*
X03555Y02673*
X03553Y02672*
X03551Y02671*
X03549Y02669*
X03547Y02668*
X03546Y02667*
X03546Y02667*
X03544Y02664*
X03542Y0266*
X03541Y02657*
X0354Y02654*
X0354Y0265*
X0354Y02649*
X03539Y02648*
Y02647*
Y02646*
Y02646*
Y02646*
X0354Y02641*
X0354Y02637*
X03542Y02633*
X03543Y0263*
X03544Y02628*
X03545Y02626*
X03546Y02625*
X03546Y02625*
X03549Y02622*
X03551Y0262*
X03554Y02619*
X03556Y02618*
X03559Y02618*
X03561Y02617*
X03562Y02617*
X03562*
X03566Y02618*
X03569Y02618*
X03571Y0262*
X03574Y02621*
X03576Y02622*
X03577Y02623*
X03578Y02624*
X03578Y02625*
X0358Y02628*
X03582Y02631*
X03583Y02634*
X03584Y02638*
X03584Y02641*
X03584Y02642*
Y02643*
X03585Y02644*
Y02645*
Y02646*
Y02646*
X03584Y02651*
X03584Y02655*
X03583Y02658*
X03581Y02661*
X0358Y02664*
X03579Y02666*
X03578Y02666*
X03578Y02667*
X03576Y02669*
X03573Y02671*
X0357Y02673*
X03568Y02673*
X03565Y02674*
X03564Y02674*
X03562Y02674*
G37*
G36*
X03453D02*
X03453D01*
X03449Y02674*
X03446Y02673*
X03443Y02672*
X03441Y02671*
X03439Y02669*
X03438Y02668*
X03437Y02667*
X03437Y02667*
X03435Y02664*
X03433Y0266*
X03432Y02657*
X03431Y02654*
X0343Y0265*
X0343Y02649*
X0343Y02648*
Y02647*
Y02646*
Y02646*
Y02646*
X0343Y02641*
X03431Y02637*
X03432Y02633*
X03433Y0263*
X03435Y02628*
X03436Y02626*
X03437Y02625*
X03437Y02625*
X03439Y02622*
X03442Y0262*
X03445Y02619*
X03447Y02618*
X03449Y02618*
X03451Y02617*
X03452Y02617*
X03453*
X03456Y02618*
X03459Y02618*
X03462Y0262*
X03464Y02621*
X03466Y02622*
X03468Y02623*
X03468Y02624*
X03469Y02625*
X03471Y02628*
X03472Y02631*
X03474Y02634*
X03474Y02638*
X03475Y02641*
X03475Y02642*
Y02643*
X03475Y02644*
Y02645*
Y02646*
Y02646*
X03475Y02651*
X03474Y02655*
X03473Y02658*
X03472Y02661*
X03471Y02664*
X0347Y02666*
X03469Y02666*
X03469Y02667*
X03466Y02669*
X03463Y02671*
X03461Y02673*
X03458Y02673*
X03456Y02674*
X03454Y02674*
X03453Y02674*
G37*
G36*
X02976D02*
X02975D01*
X02972Y02674*
X02969Y02673*
X02966Y02672*
X02964Y02671*
X02962Y02669*
X0296Y02668*
X02959Y02667*
X02959Y02667*
X02957Y02664*
X02955Y0266*
X02954Y02657*
X02953Y02654*
X02953Y0265*
X02953Y02649*
X02953Y02648*
Y02647*
Y02646*
Y02646*
Y02646*
X02953Y02641*
X02954Y02637*
X02955Y02633*
X02956Y0263*
X02957Y02628*
X02958Y02626*
X02959Y02625*
X02959Y02625*
X02962Y02622*
X02964Y0262*
X02967Y02619*
X0297Y02618*
X02972Y02618*
X02974Y02617*
X02975Y02617*
X02975*
X02979Y02618*
X02982Y02618*
X02984Y0262*
X02987Y02621*
X02989Y02622*
X0299Y02623*
X02991Y02624*
X02991Y02625*
X02993Y02628*
X02995Y02631*
X02996Y02634*
X02997Y02638*
X02997Y02641*
X02997Y02642*
Y02643*
X02998Y02644*
Y02645*
Y02646*
Y02646*
X02997Y02651*
X02997Y02655*
X02996Y02658*
X02994Y02661*
X02993Y02664*
X02992Y02666*
X02991Y02666*
X02991Y02667*
X02989Y02669*
X02986Y02671*
X02983Y02673*
X02981Y02673*
X02979Y02674*
X02977Y02674*
X02976Y02674*
G37*
G36*
X03988Y02675D02*
X03988D01*
X03985Y02675*
X03982Y02674*
X03979Y02673*
X03977Y02672*
X03976Y0267*
X03974Y02669*
X03973Y02668*
X03973Y02668*
X03971Y02665*
X0397Y02662*
X03969Y02658*
X03968Y02654*
X03968Y02651*
X03968Y0265*
X03967Y02649*
Y02648*
Y02647*
Y02646*
Y02646*
Y02643*
X03968Y02641*
X03968Y02638*
X03968Y02636*
X03969Y02634*
X03969Y02632*
X0397Y02629*
X03971Y02626*
X03972Y02625*
X03973Y02624*
X03973Y02624*
X03975Y02621*
X03978Y0262*
X0398Y02618*
X03982Y02617*
X03984Y02617*
X03986Y02617*
X03987Y02617*
X03987*
X03991Y02617*
X03993Y02618*
X03996Y02619*
X03998Y0262*
X04Y02622*
X04001Y02623*
X04002Y02624*
X04002Y02624*
X04003Y02626*
X04004Y02627*
X04006Y02631*
X04007Y02635*
X04008Y02639*
X04008Y02642*
X04008Y02643*
Y02645*
X04009Y02646*
Y02647*
Y02647*
Y02647*
X04008Y02652*
X04008Y02656*
X04007Y0266*
X04006Y02663*
X04004Y02665*
X04004Y02667*
X04003Y02668*
X04003Y02668*
X04Y0267*
X03998Y02672*
X03995Y02673*
X03993Y02674*
X03991Y02675*
X03989Y02675*
X03988Y02675*
G37*
G36*
X02755D02*
X02754D01*
X02751Y02675*
X02748Y02674*
X02746Y02673*
X02744Y02672*
X02742Y0267*
X02741Y02669*
X0274Y02668*
X0274Y02668*
X02738Y02665*
X02736Y02662*
X02735Y02658*
X02735Y02654*
X02734Y02651*
X02734Y0265*
X02734Y02649*
Y02648*
Y02647*
Y02646*
Y02646*
Y02643*
X02734Y02641*
X02734Y02638*
X02735Y02636*
X02735Y02634*
X02736Y02632*
X02737Y02629*
X02738Y02626*
X02739Y02625*
X02739Y02624*
X0274Y02624*
X02742Y02621*
X02744Y0262*
X02747Y02618*
X02749Y02617*
X02751Y02617*
X02752Y02617*
X02753Y02617*
X02754*
X02757Y02617*
X0276Y02618*
X02763Y02619*
X02765Y0262*
X02766Y02622*
X02768Y02623*
X02769Y02624*
X02769Y02624*
X0277Y02626*
X02771Y02627*
X02772Y02631*
X02773Y02635*
X02774Y02639*
X02775Y02642*
X02775Y02643*
Y02645*
X02775Y02646*
Y02647*
Y02647*
Y02647*
X02775Y02652*
X02774Y02656*
X02773Y0266*
X02772Y02663*
X02771Y02665*
X0277Y02667*
X02769Y02668*
X02769Y02668*
X02767Y0267*
X02764Y02672*
X02762Y02673*
X0276Y02674*
X02757Y02675*
X02756Y02675*
X02755Y02675*
G37*
%LNled_v2-3*%
%LPD*%
G54D12*
X05245Y03205D02*
Y03264D01*
X05215*
X05205Y03254*
Y03234*
X05215Y03224*
X05245*
X05225D02*
X05205Y03205D01*
X05185D02*
X05165D01*
X05175*
Y03264*
X05185Y03254*
X0524Y03529D02*
X0525Y03539D01*
X0527*
X0528Y03529*
Y0349*
X0527Y0348*
X0525*
X0524Y0349*
X0519Y0348D02*
Y03539D01*
X0522Y03509*
X0518*
G54D16*
X05388Y03535D02*
X05422D01*
X05388Y03485D02*
X05422D01*
X05285Y03218D02*
Y03252D01*
X05335Y03218D02*
Y03252D01*
G54D17*
X05328Y03477D02*
Y03544D01*
Y03477D02*
X05481D01*
Y03544*
X05328D02*
X05481D01*
X05344Y03165D02*
Y03305D01*
X05277Y03165D02*
X05344D01*
X05277D02*
Y03305D01*
X05344*
M02*