%FSTAX23Y23*%
%MOIN*%
%SFA1B1*%

%IPPOS*%
%ADD26R,0.058000X0.063000*%
%ADD30R,0.068000X0.068000*%
%ADD31C,0.068000*%
%ADD32O,0.073000X0.098000*%
%ADD33R,0.073000X0.098000*%
%ADD34R,0.078000X0.108000*%
%ADD35O,0.078000X0.108000*%
%ADD36O,0.083000X0.073000*%
%ADD37O,0.098000X0.073000*%
%ADD38R,0.098000X0.073000*%
%ADD39C,0.083000*%
%ADD40O,0.168000X0.108000*%
%ADD41O,0.108000X0.168000*%
%ADD42C,0.035560*%
%ADD60R,0.063000X0.047370*%
%LNled_v2-1*%
%LPD*%
G54D26*
X0536Y0351D03*
X0545D03*
G54D30*
X0288Y02432D03*
G54D31*
X0298Y02432D03*
X0308D03*
X0318D03*
X0328D03*
X0338D03*
X0348D03*
X0358D03*
X0368D03*
X0378D03*
X0388D03*
X0398D03*
X0408D03*
X0418D03*
X0428D03*
X0438D03*
X0448D03*
X0458D03*
X0468D03*
X0478D03*
Y03032D03*
X0468D03*
X0458D03*
X0448D03*
X0438D03*
X0428D03*
X0418D03*
X0408D03*
X0398D03*
X0388D03*
X0378D03*
X0368D03*
X0358D03*
X0348D03*
X0338D03*
X0328D03*
X0318D03*
X0308D03*
X0298D03*
X0288D03*
G54D32*
X0501Y0394D03*
X0481D03*
X0451D03*
X0461D03*
X0471D03*
X0491D03*
X0511D03*
X0411D03*
X0391D03*
X0361D03*
X0371D03*
X0381D03*
X0401D03*
X0421D03*
X0321D03*
X0301D03*
X0271D03*
X0281D03*
X0291D03*
X0311D03*
X0331D03*
X0231D03*
X0211D03*
X0181D03*
X0191D03*
X0201D03*
X0221D03*
X0241D03*
X01705Y0155D03*
X01905D03*
X02105D03*
X02205D03*
X02305D03*
X02005D03*
X01805D03*
X02605D03*
X02805D03*
X03005D03*
X03105D03*
X03205D03*
X02905D03*
X02705D03*
X03505D03*
X03705D03*
X03905D03*
X04005D03*
X04105D03*
X03805D03*
X03605D03*
X04405D03*
X04605D03*
X04805D03*
X04905D03*
X05005D03*
X04705D03*
X04505D03*
G54D33*
X0441Y0394D03*
X0351D03*
X0261D03*
X0171D03*
X02405Y0155D03*
X03305D03*
X04205D03*
X05105D03*
G54D34*
X01885Y02605D03*
G54D35*
X01735Y02605D03*
G54D36*
X0192Y02181D03*
Y02282D03*
Y0238D03*
G54D37*
X0551Y0229D03*
Y0249D03*
Y0269D03*
Y0279D03*
Y0289D03*
Y0259D03*
Y0239D03*
G54D38*
X0551Y0299D03*
G54D39*
X05307Y03382D03*
X05502Y03627D03*
X0531Y0363D03*
X05498Y03376D03*
G54D40*
X0198Y0286D03*
G54D41*
X0183Y0306D03*
X0208D03*
G54D42*
X039Y03596D03*
X02849Y03447D03*
X03204Y03313D03*
Y03456D03*
X03721Y02151D03*
X0402Y0215D03*
X0392Y0208D03*
X0382Y0203D03*
X03425Y036D03*
X029Y03402D03*
X0222Y0187D03*
X0275Y0344D03*
X02285Y03527D03*
X04135Y0373D03*
X0318Y036D03*
X04075Y0352D03*
X04555Y0343D03*
X04855Y02115D03*
X0486Y0284D03*
X04855Y0267D03*
X05133Y0219D03*
X0201Y0346D03*
X0211Y036D03*
X0196Y03625D03*
X0368Y0314D03*
X03975Y03385D03*
X0438Y02875D03*
X05065Y036D03*
Y0306D03*
X0506Y01985D03*
X05065Y02445D03*
X05015Y0264D03*
X047Y0344D03*
X04755D03*
X03975Y03275D03*
X0476Y0186D03*
X02075Y02045D03*
X02155Y02735D03*
X0213Y01875D03*
X0186Y0361D03*
X0283Y01885D03*
X0292Y0188D03*
X03075Y02046D03*
X0391Y01875D03*
X0399D03*
X0184Y01955D03*
X04655Y0204D03*
X0455Y03595D03*
X048Y0364D03*
X0521Y0339D03*
X05442Y03295D03*
X0521Y0279D03*
X0485Y0188D03*
X04905Y02035D03*
X04605Y01885D03*
X044Y0164D03*
X0302Y01875D03*
X026Y0165D03*
X0233Y0196D03*
X0465Y0339D03*
X0365Y03605D03*
X038Y0339D03*
X0375Y0344D03*
X0284Y03605D03*
X03D03*
G54D60*
X0531Y0319D03*
Y0328D03*
M02*