%FSTAX23Y23*%
%MOIN*%
%SFA1B1*%

%IPPOS*%
%ADD20R,0.050000X0.055000*%
%ADD46R,0.060000X0.060000*%
%ADD47C,0.060000*%
%ADD48O,0.065000X0.090000*%
%ADD49R,0.065000X0.090000*%
%ADD50R,0.070000X0.100000*%
%ADD51O,0.070000X0.100000*%
%ADD52O,0.075000X0.065000*%
%ADD53O,0.090000X0.065000*%
%ADD54R,0.090000X0.065000*%
%ADD55C,0.075000*%
%ADD56O,0.160000X0.100000*%
%ADD57O,0.100000X0.160000*%
%ADD59R,0.055000X0.039370*%
%LNled_v2-1*%
%LPD*%
G54D20*
X0536Y0351D03*
X0545D03*
G54D46*
X0288Y02432D03*
G54D47*
X0298Y02432D03*
X0308D03*
X0318D03*
X0328D03*
X0338D03*
X0348D03*
X0358D03*
X0368D03*
X0378D03*
X0388D03*
X0398D03*
X0408D03*
X0418D03*
X0428D03*
X0438D03*
X0448D03*
X0458D03*
X0468D03*
X0478D03*
Y03032D03*
X0468D03*
X0458D03*
X0448D03*
X0438D03*
X0428D03*
X0418D03*
X0408D03*
X0398D03*
X0388D03*
X0378D03*
X0368D03*
X0358D03*
X0348D03*
X0338D03*
X0328D03*
X0318D03*
X0308D03*
X0298D03*
X0288D03*
G54D48*
X0501Y0394D03*
X0481D03*
X0451D03*
X0461D03*
X0471D03*
X0491D03*
X0511D03*
X0411D03*
X0391D03*
X0361D03*
X0371D03*
X0381D03*
X0401D03*
X0421D03*
X0321D03*
X0301D03*
X0271D03*
X0281D03*
X0291D03*
X0311D03*
X0331D03*
X0231D03*
X0211D03*
X0181D03*
X0191D03*
X0201D03*
X0221D03*
X0241D03*
X01705Y0155D03*
X01905D03*
X02105D03*
X02205D03*
X02305D03*
X02005D03*
X01805D03*
X02605D03*
X02805D03*
X03005D03*
X03105D03*
X03205D03*
X02905D03*
X02705D03*
X03505D03*
X03705D03*
X03905D03*
X04005D03*
X04105D03*
X03805D03*
X03605D03*
X04405D03*
X04605D03*
X04805D03*
X04905D03*
X05005D03*
X04705D03*
X04505D03*
G54D49*
X0441Y0394D03*
X0351D03*
X0261D03*
X0171D03*
X02405Y0155D03*
X03305D03*
X04205D03*
X05105D03*
G54D50*
X01885Y02605D03*
G54D51*
X01735Y02605D03*
G54D52*
X0192Y02181D03*
Y02282D03*
Y0238D03*
G54D53*
X0551Y0229D03*
Y0249D03*
Y0269D03*
Y0279D03*
Y0289D03*
Y0259D03*
Y0239D03*
G54D54*
X0551Y0299D03*
G54D55*
X05307Y03382D03*
X05502Y03627D03*
X0531Y0363D03*
X05498Y03376D03*
G54D56*
X0198Y0286D03*
G54D57*
X0183Y0306D03*
X0208D03*
G54D59*
X0531Y0319D03*
Y0328D03*
M02*